<?xml version="1.0" encoding="utf-8"?>
<!-- Generator: Adobe Illustrator 21.1.0, SVG Export Plug-In . SVG Version: 6.00 Build 0)  -->
<svg version="1.1" id="Layer_1" xmlns="http://www.w3.org/2000/svg" xmlns:xlink="http://www.w3.org/1999/xlink" x="0px" y="0px"
	 viewBox="0 0 100 100" style="enable-background:new 0 0 100 100;" xml:space="preserve">
<style type="text/css">
	.st0{fill:#FFFFFF;}
	.st1{fill:#70C197;}
</style>
<rect x="33.3" y="42.6" class="st0" width="33" height="33"/>
<path class="st1" d="M86.3,27.5c6.8-6.8,8.8-15.9,4.5-20.3c-4.3-4.3-13.4-2.3-20.3,4.5c-1.3,1.3-2.3,2.6-3.3,3.9
	c-5-3.6-10.8-5.6-17.3-5.6s-12.2,2-17.3,5.6c-0.9-1.4-2-2.7-3.3-3.9C22.6,4.9,13.6,2.9,9.2,7.3c-4.3,4.3-2.3,13.4,4.5,20.3
	c1.8,1.8,3.8,3.3,5.8,4.4c-7.9,15.3-12,37.4-12,63.1h85c0-25.6-4.1-47.8-12-63.1C82.5,30.8,84.4,29.4,86.3,27.5z M54.5,71.3h-9
	c-5.5,0-9.7-4.8-8.9-10.2l2.3-7.4c0.6-4.5,4.4-7.8,8.9-7.8h4.4c4.5,0,8.3,3.3,8.9,7.8l2.3,7.4C64.2,66.5,60,71.3,54.5,71.3z"/>
<ellipse class="st1" cx="50" cy="62.5" rx="6.5" ry="4.8"/>
</svg>
