<?xml version="1.0" encoding="utf-8"?>
<!-- Generator: Adobe Illustrator 21.1.0, SVG Export Plug-In . SVG Version: 6.00 Build 0)  -->
<svg version="1.1" id="Layer_1" xmlns="http://www.w3.org/2000/svg" xmlns:xlink="http://www.w3.org/1999/xlink" x="0px" y="0px"
	 viewBox="0 0 1000.4 200" style="enable-background:new 0 0 1000.4 200;" xml:space="preserve">
<style type="text/css">
	.st0{fill:#00A040;}
	.st1{fill:none;stroke:#FFCC00;stroke-width:12;}
	.st2{fill:#FFCC00;}
</style>
<rect x="0.1" class="st0" width="1000.4" height="200"/>
<circle class="st1" cx="500.3" cy="100" r="79"/>
<g transform="translate(300,200)">
	<path id="Vertex" class="st2" d="M190.5-91c4.5,2.3,8.9,5,13.4,8.1c5.8,4,10.4,7.9,16.4,11.9c-2.1-3-3.7-6.6-4.9-11
		c2.2-1.3,4.3-2.4,6.8-3.4c1.7,6.7,3.9,10.5,6.9,13.2c1.6,1.5,4.3,2.6,6.7,2.8c0-0.4-0.1-0.7-0.1-1.1c0-4.4,3.6-8,8-8s8,3.6,8,8
		c0,4.5-2.6,8.4-5.9,10.4c-3.3,2-7.3,2.8-11.3,2.7c-5.2-0.1-10.8-2.5-14.5-4.8c-8.6-5.3-13.9-10.1-20.4-14.4
		c-3.4-2.3-6.7-4.4-9.9-6.2c0.2-1.7,0.4-3.4,0.5-5.2C190.3-89.1,190.4-90,190.5-91z"/>
	<g transform="rotate(60)">
		<path id="Vertex_1_" class="st2" d="M187.6-104c0.3,5,0.1,10.2-0.3,15.7c-0.5,7-1.6,12.9-2.1,20.2c1.5-3.3,3.9-6.5,7.1-9.8
			c2.2,1.3,4.2,2.6,6.4,4.2c-5,4.8-7.1,8.7-8,12.6c-0.5,2.2-0.1,5,1,7.2c0.3-0.2,0.6-0.4,0.9-0.6c3.8-2.2,8.7-0.9,10.9,2.9
			c2.2,3.8,0.9,8.7-2.9,10.9c-3.9,2.3-8.5,1.9-12,0.1c-3.4-1.9-6.1-5-8-8.5c-2.5-4.6-3.2-10.7-3.1-15c0.3-10,1.7-17.1,2.3-24.9
			c0.3-4.1,0.5-8,0.4-11.7c1.6-0.7,3.1-1.4,4.8-2.2C185.9-103.2,186.7-103.6,187.6-104z"/>
	</g>
	<g transform="rotate(120)">
		<path id="Vertex_2_" class="st2" d="M197.5-113.1c-4.2,2.8-8.8,5.2-13.8,7.6c-6.3,3.1-12,5.1-18.5,8.3c3.6-0.3,7.5,0.1,12,1.2
			c0,2.6-0.1,4.9-0.4,7.6c-6.6-1.9-11.1-1.9-14.9-0.6c-2.1,0.7-4.4,2.4-5.8,4.4c0.3,0.1,0.7,0.3,1,0.5c3.8,2.2,5.1,7.1,2.9,10.9
			c-2.2,3.8-7.1,5.1-10.9,2.9c-3.9-2.3-5.9-6.4-6.1-10.3c-0.1-3.9,1.3-7.7,3.4-11.1c2.7-4.5,7.6-8.1,11.4-10.2
			c8.8-4.8,15.7-7,22.7-10.4c3.7-1.8,7.2-3.6,10.3-5.5c1.4,1,2.8,2,4.3,3C195.9-114.1,196.7-113.6,197.5-113.1z"/>
	</g>
	<g transform="rotate(180)">
		<path id="Vertex_3_" class="st2" d="M210.2-109c-4.5-2.3-8.9-5-13.4-8.1c-5.8-4-10.4-7.9-16.4-11.9c2.1,3,3.7,6.6,4.9,11
			c-2.2,1.3-4.3,2.4-6.8,3.4c-1.7-6.7-3.9-10.5-6.9-13.2c-1.6-1.5-4.3-2.6-6.7-2.8c0,0.4,0.1,0.7,0.1,1.1c0,4.4-3.6,8-8,8
			s-8-3.6-8-8c0-4.5,2.6-8.4,5.9-10.4c3.3-2,7.3-2.8,11.3-2.7c5.2,0.1,10.8,2.5,14.5,4.8c8.6,5.3,13.9,10.1,20.4,14.4
			c3.4,2.3,6.7,4.4,9.9,6.2c-0.2,1.7-0.4,3.4-0.5,5.2C210.3-110.9,210.3-110,210.2-109z"/>
	</g>
	<g transform="rotate(240)">
		<path id="Vertex_4_" class="st2" d="M213.1-96c-0.3-5-0.1-10.2,0.3-15.7c0.5-7,1.6-12.9,2.1-20.2c-1.5,3.3-3.9,6.5-7.1,9.8
			c-2.2-1.3-4.2-2.6-6.4-4.2c5-4.8,7.1-8.7,8-12.6c0.5-2.2,0.1-5-1-7.2c-0.3,0.2-0.6,0.4-0.9,0.6c-3.8,2.2-8.7,0.9-10.9-2.9
			c-2.2-3.8-0.9-8.7,2.9-10.9c3.9-2.3,8.5-1.9,12-0.1c3.4,1.9,6.1,5,8,8.5c2.5,4.6,3.2,10.7,3.1,15c-0.3,10-1.7,17.1-2.3,24.9
			c-0.3,4.1-0.5,8-0.4,11.7c-1.6,0.7-3.1,1.4-4.8,2.2C214.8-96.8,213.9-96.4,213.1-96z"/>
	</g>
	<g transform="rotate(300)">
		<path id="Vertex_5_" class="st2" d="M203.2-86.9c4.2-2.8,8.8-5.2,13.8-7.6c6.3-3.1,12-5.1,18.5-8.3c-3.6,0.3-7.5-0.1-12-1.2
			c0-2.6,0.1-4.9,0.4-7.6c6.6,1.9,11.1,1.9,14.9,0.6c2.1-0.7,4.4-2.4,5.8-4.4c-0.3-0.1-0.7-0.3-1-0.5c-3.8-2.2-5.1-7.1-2.9-10.9
			c2.2-3.8,7.1-5.1,10.9-2.9c3.9,2.3,5.9,6.4,6.1,10.3c0.1,3.9-1.3,7.7-3.4,11.1c-2.7,4.5-7.6,8.1-11.4,10.2
			c-8.8,4.8-15.7,7-22.7,10.4c-3.7,1.8-7.2,3.6-10.3,5.5c-1.4-1-2.8-2-4.3-3C204.8-85.9,204-86.4,203.2-86.9z"/>
	</g>
</g>
</svg>
