<?xml version="1.0" encoding="utf-8"?>
<!-- Generator: Adobe Illustrator 21.1.0, SVG Export Plug-In . SVG Version: 6.00 Build 0)  -->
<svg version="1.1" id="Layer_1" xmlns="http://www.w3.org/2000/svg" xmlns:xlink="http://www.w3.org/1999/xlink" x="0px" y="0px"
	 width="48px" height="48px" viewBox="0 0 48 48" enable-background="new 0 0 48 48" xml:space="preserve">
<g>
	<path fill="#1D1D1D" d="M355.3-265.6c-4.6-5-8.9-9.2-13.8-12.6c-1.5-1.1-1.8-2-0.9-3.7c1.4-2.9,1.9-6,2.2-9.1
		c0.5-6.4-0.4-7.7-6.9-8.2c-15.8-1.2-31.6-0.9-47.4-1c-16-0.1-32-0.6-47.9,1.7c-20.1,2.8-38.2,10.8-54.9,21.9
		c-4.3,2.8-8.5,5.8-12.6,8.9c-1.9,1.4-2.9,1.4-4.5-0.4c-3.3-3.7-6.8-7.2-10.4-10.5c-1.2-1.1-1.4-1.6-0.1-2.5
		c17.6-12.4,34.7-25.5,56.6-30.2c22.6-4.9,45.4-6.5,68.4-6.5c22.6,0,45.3,0.5,67.9,0.9c12.2,0.2,15.6,3.5,14.8,15.8
		C364.8-288.9,361.7-277.1,355.3-265.6z"/>
	<path fill="#1E1D1D" d="M60.5-308c-4.9,4.3-9.7,8.2-13.5,13c-1.1,1.3-2,2.2-4.2,1.3c-19.3-8.3-39-6.1-58.7-2.2
		c-20.8,4.1-38.4,14.7-55,27.1c-2.9,2.2-4.7,2.6-7.1-0.6c-2.6-3.4-5.9-6.3-9.1-9.2c-1.4-1.3-1.3-1.9,0.2-3
		c20.3-15.1,41.5-28.4,67-33.2c18.6-3.4,37.2-5.1,56-2.5C44.8-316.1,52.9-313.1,60.5-308z"/>
	<path fill="#1E1D1D" d="M-59.7-219.8c4-3.5,7.8-6.7,11.5-10c2.3-2.1,4.5-2.7,7.8-1.4c8.4,3.1,16,0.1,23.2-4.3
		c10.4-6.4,17.7-15.4,22.4-26.6c0.8-2,1.7-4.1-0.2-6c-1.7-1.7-3.8-1.9-6-1.3c-4.2,1.1-8.1,3-11.6,5.5c-1.4,1-2.7,1.9-4.2,0
		c-2.8-3.5-5.8-6.9-8.9-10.1c-1.7-1.8-1-2.7,0.7-3.6c13.2-6.9,26.8-12.4,42-12.7c7.1-0.1,10.2,2.9,9.9,10
		c-1,24.1-17.1,57.5-44.7,67.3C-31.8-207.9-45.8-208.7-59.7-219.8z"/>
	<path fill="#1E1D1D" d="M218.1-276c14.4-8,28.8-14.1,45-14.2c6.2,0,9.6,3.3,9.5,9.6c-0.2,11-3.7,21.2-8.2,31
		c-5.7,12.6-13.8,23.5-25.6,31c-17.7,11.3-35.4,12-53.2-1.2c4.8-4,9.6-7.8,14.3-11.7c0.8-0.7,1.6-1,2.7-0.6
		c12.8,5.5,22.8-0.7,32.2-8.1c7.3-5.7,12.5-13.3,15.9-22c2.1-5.2-0.2-8.1-5.8-7.2c-4.3,0.7-8.1,2.8-11.7,5.3c-2,1.4-3.4,1.9-5.2-0.6
		C225.2-268.4,221.8-271.9,218.1-276z"/>
	<path fill="#1E1D1D" d="M119.7-308.1c-5.3,4.1-10.3,7.9-15.3,11.8c-1.3,1-2.2,2.2-4.3,1.5c-11.2-3.6-20.1,1.7-28,8.6
		c-6.2,5.3-11,11.9-14.4,19.4c-0.9,1.9-1.7,3.7-0.2,5.6c1.6,1.9,3.8,1.8,5.9,1.1c0.8-0.3,1.6-0.5,2.3-0.8c7.7-3.3,7.7-3.3,13.1,2.9
		c2.1,2.4,4.1,4.7,6.5,7.5c-7.7,5.2-16.3,7.7-25.2,9.4c-6.6,1.2-13.2,1.8-19.8,0.1c-5.6-1.4-7.8-4-7.7-9.9
		c0.2-11.8,4.1-22.5,10.6-32.1c9.8-14.5,22.4-25.5,38.8-32.1C96.3-321.1,108.1-316.5,119.7-308.1z"/>
	<path fill="#1E1D1D" d="M354.3-204.9c-3.7-4.4-7.5-8.9-11.3-13.3c-1-1.1-1.6-2.1-0.8-3.5c5.4-10.7,0.4-19.7-5.3-28.2
		c-5.9-8.9-14.3-15.1-24.1-19.4c-2.1-1-4.6-2.1-6.5-0.2c-1.9,1.8-1.9,4.4-1.2,7c1,3.9,2.9,7.4,5.1,10.7c1.5,2.2,1.4,3.6-0.7,5.3
		c-3.1,2.4-6,5.2-9,7.8c-1.3,1.2-2.3,1.8-3.6-0.5c-7.1-12.7-12-26-12.8-40.7c-0.4-8.6,2.5-12.3,11-11.2c28.6,3.5,52.7,15,65.4,42.6
		C367.6-232.9,365.9-218.8,354.3-204.9z"/>
	<path fill="#1E1D1D" d="M266.3-138.3c4.1,5.2,8.1,10.5,12.2,15.7c0.8,1,1.5,1.8,0.9,3.5c-4,10.7,1.5,19.1,7.6,26.9
		c5.1,6.6,12.1,11.3,19.5,15.2c2.1,1.1,4.5,2.3,6.6,0.7c2.2-1.7,1.7-4.4,1-6.9c-0.1-0.3-0.1-0.7-0.2-1c-0.8-2.8-4.8-5.5-3.1-7.8
		c3.3-4.5,8-8,12.2-11.7c1.5-1.3,2,0.5,2.4,1.4c6.4,13.1,10.1,26.7,8.5,41.4c-0.7,6.8-5.5,10.1-13.3,9.3c-12-1.2-22.8-5.6-32.5-12.7
		c-11.8-8.7-21.2-19.4-27.4-32.8C253.6-112.3,255.4-125.3,266.3-138.3z"/>
	<path fill="#1E1D1D" d="M-160-250.5c-13.4,7.4-27.3,11.3-42.3,10c-8.1-0.7-11.5-5.2-10.8-13c2.2-27.6,29.6-58.5,56.7-63.8
		c11.7-2.3,21.2,2.7,30.5,9.3c-5.5,4.2-10.8,8.2-16,12.3c-0.9,0.7-1.5,1.6-3,1.2c-13.6-4.1-23.3,2.9-32.1,11.8
		c-4.8,4.9-8.7,10.4-11.3,16.8c-0.6,1.4-1.8,2.9-0.4,4.6c1.5,1.7,3.4,2.1,5.4,1.4c2.5-0.9,5.1-1.6,7.3-3c2.3-1.4,3.6-1.3,5.4,0.7
		C-167.2-258.2-163.7-254.5-160-250.5z"/>
	<path fill="#1E1D1D" d="M41.3-211c-12.6,0.3-24.9-1-36.5-6.4c-2.4-1.1-3.3-2.1-0.9-4c3.9-3.2,6.9-7.1,10-11c1-1.3,1.7-2,3.6-1.2
		c14.6,5.6,29.9,4.2,44.9,2.8c22.9-2.2,43-11.8,61.2-25.4c1.2-0.9,2.4-1.7,3.7-2.5c7.1-4.7,7.2-4.8,12.8,1.4
		c2.6,2.8,7.8,5.2,6.9,8.7c-0.7,2.8-5.8,4.4-8.9,6.7c-10.8,7.8-22,14.9-34.4,19.7C83.6-214.7,62.7-211.5,41.3-211z"/>
	<path fill="#1E1E1D" d="M-201.9-230.8c20.5,0.6,40.2-2.7,58.6-12.1c10-5.2,19.1-11.9,28.3-18.4c2.5-1.8,3.9-2.2,6.1,0.5
		c2.8,3.4,6.1,6.5,9.4,9.6c1.6,1.5,1.9,2.5,0,3.8c-15.5,10.8-30.9,22-49.1,27.5c-20.7,6.3-41.9,10-63.7,9.8c-2.2,0-2.8-0.8-2.8-2.9
		c0.1-5,0.2-10,0-15c-0.1-2.6,1.2-3,3.3-2.9C-208.5-230.7-205.2-230.8-201.9-230.8z"/>
	<path fill="#1E1D1D" d="M363.1-63c-0.2,4.6,1.1,10.5-1.2,13.5c-2.3,3-8.4,0.4-12.8,1c-4.8,0.7-5.8-1.3-5.3-5.7
		c2.6-22-1.7-43-10.3-63c-5.1-11.8-13.2-22.2-20.8-32.5c-1.9-2.6-1.6-3.9,0.7-5.9c3.4-2.9,6.5-6.2,9.6-9.4c1.4-1.4,2.1-1.9,3.6,0.2
		c13.1,18,25.4,36.4,30.5,58.6C360.3-92,363.5-77.8,363.1-63z"/>
	<path fill="#1E1D1D" d="M-149.3-284c14.1-12.3,28.3-24.5,46.3-31c16.3-5.9,30.9-1.9,44,9.3c-5.7,3.8-11.2,7.4-16.8,11
		c-1,0.6-1.9,1-3.2,0.4c-10.7-5-19.6-0.3-28.3,5.4c-8.3,5.4-16.3,11.4-23.9,17.8c-2.9,2.4-4.7,2.2-7.1-0.6
		C-141.7-275.8-145.4-279.7-149.3-284z"/>
	<path fill="#1E1E1D" d="M186.5-305.7c-5.4,3.6-10.8,7.1-16.1,10.7c-1.7,1.2-3.3,1-5.1,0.2c-7.3-3-14.2-1.5-20.9,2.3
		c-11.3,6.3-21.4,14.5-31.5,22.6c-1.8,1.5-2.6,1.2-3.9-0.2c-3.7-4-7.4-8.1-11.2-12c-1.2-1.2-1.5-1.9-0.1-3.1
		c13.3-11.2,26.4-22.6,42.8-29C157.2-320.9,171.8-318,186.5-305.7z"/>
	<path fill="#1E1E1D" d="M256.8-176.4c-0.7-7.1,2.1-13.7,5.2-20.3c1.6-3.4,3.9-3.9,6.7-1.2c2.2,2.1,4.3,4.2,6.6,6.1
		c3.4,2.9,5.5,5.4,3.2,10.7c-3.1,7,0.8,13.6,4.3,19.6c6.1,10.5,13.6,20,21.4,29.3c1.8,2.1,1.7,2.8-0.3,4.6c-3.9,3.3-7.5,7-11.2,10.5
		c-1.2,1.1-2,2.4-3.8,0.3c-11.2-13.1-22.2-26.3-28.9-42.5C257.6-164.8,256.4-170.2,256.8-176.4z"/>
	<path fill="#1E1E1D" d="M152.1-210.2c-13.4,0.2-23-5.8-32.2-12.8c-1.9-1.4-0.8-2.1,0.4-2.8c4.8-2.9,9.6-5.8,14.4-8.7
		c1.3-0.8,2.5-1.6,4-0.5c15,10.4,26.9,3.5,38.1-6.9c5.6-5.2,11.2-10.4,16.6-15.7c1.9-1.9,3.2-2,4.7,0.2c1.1,1.6,2.5,3.1,3.8,4.6
		c2.2,2.5,6.4,4.9,5.8,7.6c-0.6,2.8-4.5,5-7.1,7.3c-10.7,9.5-21.3,18.9-34.7,24.7C161.1-211.2,156.2-209.9,152.1-210.2z"/>
	<path fill="#1E1E1D" d="M-93.9-210.2c-12.8,0.3-22.4-5.8-31.7-12.6c-2-1.5-1.1-2.3,0.4-3.1c2.4-1.4,5.1-2.6,7.3-4.3
		c5.7-4.3,10.3-5.8,17.7-1.5c8.5,5,17.7,1,25.2-5c7.6-6.1,14.5-13,21.4-19.9c2.8-2.8,4.6-3,7,0.3c2.3,3.1,4.8,6,7.5,8.7
		c1.7,1.7,1.8,2.7,0,4.3c-10.8,9.7-21.4,19.9-34.3,27C-79.9-212.7-86.7-209.7-93.9-210.2z"/>
	<path fill="#1E1D1D" d="M349.9-137.5c-3.7-5.8-7.3-11.4-11-17.1c-0.9-1.4-0.2-2.5,0.6-3.7c8.6-12.4,5.1-22.4-3.3-32.5
		c-5.9-7.1-12.4-13.8-19-20.4c-2.8-2.8-2.4-4.3,0.4-6.5c3.2-2.4,6-5.2,8.9-7.9c1.2-1.1,2.2-2,3.7-0.3c10.5,11.6,21.4,22.9,28.8,37.1
		c7.5,14.4,6.1,28.1-2,41.5C355.1-143.7,352.9-140.5,349.9-137.5z"/>
	<path fill="#1E1E1E" d="M294.1-175c-11.7-20-29.7-31.7-47.7-43.1c3.4-3.5,7.2-6.1,9.2-9.7c3.2-5.8,6.3-4.2,10.6-1.6
		c13.9,8.3,25.2,19.4,35.3,31.8c6.6,8.1,6.5,8.1-1,15.7C298.4-179.9,296.6-177.8,294.1-175z"/>
	<path fill="#1E1E1E" d="M-118.4-275.9c4.8-3.4,9.2-6.5,13.7-9.7c1.8-1.3,3.1-0.9,4.8,0.6c11.2,10.4,21.8,21.5,32.5,32.4
		c1.3,1.3,1.8,2.3,0,3.5c-0.4,0.3-0.7,0.7-1.1,1c-11.4,11.1-11.4,11.1-22.2-0.3C-99.6-257.6-108.6-266.9-118.4-275.9z"/>
	<path fill="#1E1E1E" d="M298.2-146.4c-2.7-3.7-5.3-7.4-8.1-10.9c-2.6-3.3-2.4-5.9,0.6-8.9c8.4-8.2,16.5-16.7,25-24.8
		c2.6-2.5,4.9-7.4,8.3-6.8c2.9,0.5,5,4.9,7.5,7.6c0.7,0.7,1.3,1.6,2,2.2c3.2,3,2.2,5.4-0.7,8.1c-8.5,7.9-16.8,16-25.1,24
		C304.5-152.7,301.4-149.6,298.2-146.4z"/>
	<path fill="#1E1E1D" d="M179.9-250.5c-4.1,3.7-8,7-11.8,10.5c-2.1,1.9-3.7,2-5.8-0.2c-10.8-11.6-21.5-23.1-33.2-33.8
		c-1.8-1.7-1-2.5,0.3-3.4c3.9-2.8,7.8-5.5,11.7-8.3c2.3-1.6,3.5,0,5,1.3C157.6-273.6,168.7-262.3,179.9-250.5z"/>
	<path fill="#1E1E1E" d="M336.8-241.7c-0.2,1.3-1.3,1.9-2.1,2.7c-9.5,10.3-20.9,18.4-30.8,28.2c-3.7,3.7-6.2,4.2-9.1-0.4
		c-0.5-0.8-1.3-1.5-1.9-2.3c-2.2-2.6-7-4.5-6.5-7.3c0.5-2.7,4.8-4.7,7.4-6.9c10.1-8.6,20.5-16.8,29.5-26.7c0.6-0.7,1.5-1.5,2.3-1.5
		C327.4-256,336.9-243.7,336.8-241.7z"/>
	<path fill="#1E1E1E" d="M317.6-134c1.4-0.2,0.9,0.8,1.2,1.2c3.6,4.4,6.5,9.2,9.2,14.2c1.3,2.5,0.9,3.8-1,5.4
		c-9,8.1-18.2,15.9-26.5,24.8c-1.1,1.1-2.1,1.5-3.4,0.3c-0.7-0.7-1.5-1.3-2.3-1.9c-11.6-9.9-11.8-12.1-1.2-22.4
		c6.7-6.5,13.6-12.7,20.4-19C315.2-132.5,316.5-133.3,317.6-134z"/>
	<path fill="#1E1E1E" d="M-130.3-256.9c0,1.2-0.7,1.6-1.4,2c-4.9,3-9.6,6.4-14.9,8.9c-2.1,1-3.1,0.6-4.6-1
		c-8-8.8-16.1-17.6-24.4-26.1c-1.9-2-1.9-3.1-0.1-4.8c0.6-0.6,1-1.3,1.6-1.9c3.3-3.6,6.8-7.6,11.4-8.5c5.1-1,7.2,4.5,10.2,7.5
		c7.2,7.1,13.9,14.7,20.8,22.1C-131.2-258.1-130.7-257.4-130.3-256.9z"/>
	<path fill="#1E1E1E" d="M83.9-289.1c1.4-0.1,2,1.1,2.8,1.9c9.8,9.2,18.6,19.4,27.9,29.1c1.1,1.1,1.7,1.9-0.1,3
		c-5,2.9-9.6,6.4-14.9,8.9c-2.2,1.1-3.6,0.7-5.1-0.9c-8.4-9-16.7-18-25.1-27c-0.8-0.8-1.4-1.4-0.5-2.4c4.1-4.8,8.4-9.4,14.3-12.2
		C83.3-288.8,83.6-289,83.9-289.1z"/>
	<path fill="#1E1E1E" d="M189.1-273.9c4.8-2.8,9.3-5.4,13.7-8.1c2.3-1.3,4-1.4,5.9,1c8.5,10.6,17.2,21.1,27.4,30.2
		c1.7,1.5,1.7,2.6,0,3.9c-0.3,0.2-0.5,0.4-0.8,0.6c-11.2,10.8-11.9,10.8-22.1-0.5C205.2-255.6,197.3-264.6,189.1-273.9z"/>
	<path fill="#1E1E1E" d="M-56.4-273.8c4.8-2.9,9.3-5.6,13.7-8.3c2.1-1.2,3.5-1.3,5.4,0.9c8.8,10.5,17.4,21.3,27.8,30.4
		c1.4,1.2,1.6,2.4,0.2,3.7c-0.4,0.3-0.8,0.6-1.1,1c-11.1,10.4-11.3,10.6-21.4-0.1C-40.2-255.1-48.1-264.4-56.4-273.8z"/>
	<path fill="#1F1E1E" d="M266.1-79.7c4.2,5.3,8.4,10.1,13.3,14c1.9,1.5,1.7,2.9,0.8,4.7c-0.9,1.8-2.2,3.6-2.3,5.4
		c-0.2,6.5-3.8,7.9-9.4,7.1c-2-0.3-4,0-6,0c-6.5,0-6.6,0-5.7-6.6C258-63.7,261.2-71.6,266.1-79.7z"/>
	<path fill="#1E1E1E" d="M-185-308c-5.2,4.1-9.7,8.3-13.7,13c-1.4,1.6-2.6,2.5-4.5,1c-0.6-0.5-1.6-0.5-2.3-0.9
		c-3-1.5-8.5-0.9-9.1-3.7c-1.3-5.5-0.4-11.6-0.4-17.4c0-1.4,1.1-1.4,2.1-1.4C-202.9-316.7-193.7-313.6-185-308z"/>
</g>
<g>
	<path fill="#1D1D1D" d="M-469.3,474.7c4.6,5,8.9,9.2,13.8,12.6c1.5,1.1,1.8,2,0.9,3.7c-1.4,2.9-1.9,6-2.2,9.1
		c-0.5,6.4,0.4,7.7,6.9,8.2c15.8,1.2,31.6,0.9,47.4,1c16,0.1,32,0.6,47.9-1.7c20.1-2.8,38.2-10.8,54.9-21.9
		c4.3-2.8,8.5-5.8,12.6-8.9c1.9-1.4,2.9-1.4,4.5,0.4c3.3,3.7,6.8,7.2,10.4,10.5c1.2,1.1,1.4,1.6,0.1,2.5
		c-17.6,12.4-34.7,25.5-56.6,30.2c-22.6,4.9-45.4,6.5-68.4,6.5c-22.6,0-45.3-0.5-67.9-0.9c-12.2-0.2-15.6-3.5-14.8-15.8
		C-478.8,498-475.7,486.2-469.3,474.7z"/>
	<path fill="#1E1D1D" d="M-174.4,517.2c4.9-4.3,9.7-8.2,13.5-13c1.1-1.3,2-2.2,4.2-1.3c19.3,8.3,39,6.1,58.7,2.2
		c20.8-4.1,38.4-14.7,55-27.1c2.9-2.2,4.7-2.6,7.1,0.6c2.6,3.4,5.9,6.3,9.1,9.2c1.4,1.3,1.3,1.9-0.2,3c-20.3,15.1-41.5,28.4-67,33.2
		c-18.6,3.4-37.2,5.1-56,2.5C-158.8,525.2-166.9,522.2-174.4,517.2z"/>
	<path fill="#1E1D1D" d="M-54.3,428.9c-4,3.5-7.8,6.7-11.5,10c-2.3,2.1-4.5,2.7-7.8,1.4c-8.4-3.1-16-0.1-23.2,4.3
		c-10.4,6.4-17.7,15.4-22.4,26.6c-0.8,2-1.7,4.1,0.2,6c1.7,1.7,3.8,1.9,6,1.3c4.2-1.1,8.1-3,11.6-5.5c1.4-1,2.7-1.9,4.2,0
		c2.8,3.5,5.8,6.9,8.9,10.1c1.7,1.8,1,2.7-0.7,3.6c-13.2,6.9-26.8,12.4-42,12.7c-7.1,0.1-10.2-2.9-9.9-10
		c1-24.1,17.1-57.5,44.7-67.3C-82.1,417-68.2,417.9-54.3,428.9z"/>
	<path fill="#1E1D1D" d="M-332.1,485.2c-14.4,8-28.8,14.1-45,14.2c-6.2,0-9.6-3.3-9.5-9.6c0.2-11,3.7-21.2,8.2-31
		c5.7-12.6,13.8-23.5,25.6-31c17.7-11.3,35.4-12,53.2,1.2c-4.8,4-9.6,7.8-14.3,11.7c-0.8,0.7-1.6,1-2.7,0.6
		c-12.8-5.5-22.8,0.7-32.2,8.1c-7.3,5.7-12.5,13.3-15.9,22c-2.1,5.2,0.2,8.1,5.8,7.2c4.3-0.7,8.1-2.8,11.7-5.3
		c2-1.4,3.4-1.9,5.2,0.6C-339.2,477.6-335.8,481-332.1,485.2z"/>
	<path fill="#1E1D1D" d="M-233.7,517.2c5.3-4.1,10.3-7.9,15.3-11.8c1.3-1,2.2-2.2,4.3-1.5c11.2,3.6,20.1-1.7,28-8.6
		c6.2-5.3,11-11.9,14.4-19.4c0.9-1.9,1.7-3.7,0.2-5.6c-1.6-1.9-3.8-1.8-5.9-1.1c-0.8,0.3-1.6,0.5-2.3,0.8c-7.7,3.3-7.7,3.3-13.1-2.9
		c-2.1-2.4-4.1-4.7-6.5-7.5c7.7-5.2,16.3-7.7,25.2-9.4c6.6-1.2,13.2-1.8,19.8-0.1c5.6,1.4,7.8,4,7.7,9.9
		c-0.2,11.8-4.1,22.5-10.6,32.1c-9.8,14.5-22.4,25.5-38.8,32.1C-210.2,530.2-222.1,525.6-233.7,517.2z"/>
	<path fill="#1E1D1D" d="M-468.3,414c3.7,4.4,7.5,8.9,11.3,13.3c1,1.1,1.6,2.1,0.8,3.5c-5.4,10.7-0.4,19.7,5.3,28.2
		c5.9,8.9,14.3,15.1,24.1,19.4c2.1,1,4.6,2.1,6.5,0.2c1.9-1.8,1.9-4.4,1.2-7c-1-3.9-2.9-7.4-5.1-10.7c-1.5-2.2-1.4-3.6,0.7-5.3
		c3.1-2.4,6-5.2,9-7.8c1.3-1.2,2.3-1.8,3.6,0.5c7.1,12.7,12,26,12.8,40.7c0.4,8.6-2.5,12.3-11,11.2c-28.6-3.5-52.7-15-65.4-42.6
		C-481.6,442-479.9,427.9-468.3,414z"/>
	<path fill="#1E1D1D" d="M-380.2,347.4c-4.1-5.2-8.1-10.5-12.2-15.7c-0.8-1-1.5-1.8-0.9-3.5c4-10.7-1.5-19.1-7.6-26.9
		c-5.1-6.6-12.1-11.3-19.5-15.2c-2.1-1.1-4.5-2.3-6.6-0.7c-2.2,1.7-1.7,4.4-1,6.9c0.1,0.3,0.1,0.7,0.2,1c0.8,2.8,4.8,5.5,3.1,7.8
		c-3.3,4.5-8,8-12.2,11.7c-1.5,1.3-2-0.5-2.4-1.4c-6.4-13.1-10.1-26.7-8.5-41.4c0.7-6.8,5.5-10.1,13.3-9.3
		c12,1.2,22.8,5.6,32.5,12.7c11.8,8.7,21.2,19.4,27.4,32.8C-367.6,321.4-369.4,334.4-380.2,347.4z"/>
	<path fill="#1E1D1D" d="M46,459.6c13.4-7.4,27.3-11.3,42.3-10c8.1,0.7,11.5,5.2,10.8,13c-2.2,27.6-29.6,58.5-56.7,63.8
		c-11.7,2.3-21.2-2.7-30.5-9.3c5.5-4.2,10.8-8.2,16-12.3c0.9-0.7,1.5-1.6,3-1.2c13.6,4.1,23.3-2.9,32.1-11.8
		c4.8-4.9,8.7-10.4,11.3-16.8c0.6-1.4,1.8-2.9,0.4-4.6c-1.5-1.7-3.4-2.1-5.4-1.4c-2.5,0.9-5.1,1.6-7.3,3c-2.3,1.4-3.6,1.3-5.4-0.7
		C53.2,467.4,49.7,463.7,46,459.6z"/>
	<path fill="#1E1D1D" d="M-155.3,420.2c12.6-0.3,24.9,1,36.5,6.4c2.4,1.1,3.3,2.1,0.9,4c-3.9,3.2-6.9,7.1-10,11
		c-1,1.3-1.7,2-3.6,1.2c-14.6-5.6-29.9-4.2-44.9-2.8c-22.9,2.2-43,11.8-61.2,25.4c-1.2,0.9-2.4,1.7-3.7,2.5
		c-7.1,4.7-7.2,4.8-12.8-1.4c-2.6-2.8-7.8-5.2-6.9-8.7c0.7-2.8,5.8-4.4,8.9-6.7c10.8-7.8,22-14.9,34.4-19.7
		C-197.6,423.9-176.7,420.6-155.3,420.2z"/>
	<path fill="#1E1E1D" d="M87.9,440c-20.5-0.6-40.2,2.7-58.6,12.1c-10,5.2-19.1,11.9-28.3,18.4c-2.5,1.8-3.9,2.2-6.1-0.5
		c-2.8-3.4-6.1-6.5-9.4-9.6c-1.6-1.5-1.9-2.5,0-3.8c15.5-10.8,30.9-22,49.1-27.5c20.7-6.3,41.9-10,63.7-9.8c2.2,0,2.8,0.8,2.8,2.9
		c-0.1,5-0.2,10,0,15c0.1,2.6-1.2,3-3.3,2.9C94.6,439.9,91.2,440,87.9,440z"/>
	<path fill="#1E1D1D" d="M-477.1,272.1c0.2-4.6-1.1-10.5,1.2-13.5c2.3-3,8.4-0.4,12.8-1c4.8-0.7,5.8,1.3,5.3,5.7
		c-2.6,22,1.7,43,10.3,63c5.1,11.8,13.2,22.2,20.8,32.5c1.9,2.6,1.6,3.9-0.7,5.9c-3.4,2.9-6.5,6.2-9.6,9.4c-1.4,1.4-2.1,1.9-3.6-0.2
		c-13.1-18-25.4-36.4-30.5-58.6C-474.3,301.2-477.4,286.9-477.1,272.1z"/>
	<path fill="#1E1D1D" d="M35.3,493.1c-14.1,12.3-28.3,24.5-46.3,31c-16.3,5.9-30.9,1.9-44-9.3c5.7-3.8,11.2-7.4,16.8-11
		c1-0.6,1.9-1,3.2-0.4c10.7,5,19.6,0.3,28.3-5.4c8.3-5.4,16.3-11.4,23.9-17.8c2.9-2.4,4.7-2.2,7.1,0.6
		C27.7,484.9,31.5,488.9,35.3,493.1z"/>
	<path fill="#1E1E1D" d="M-300.5,514.8c5.4-3.6,10.8-7.1,16.1-10.7c1.7-1.2,3.3-1,5.1-0.2c7.3,3,14.2,1.5,20.9-2.3
		c11.3-6.3,21.4-14.5,31.5-22.6c1.8-1.5,2.6-1.2,3.9,0.2c3.7,4,7.4,8.1,11.2,12c1.2,1.2,1.5,1.9,0.1,3.1
		c-13.3,11.2-26.4,22.6-42.8,29C-271.2,530-285.7,527.2-300.5,514.8z"/>
	<path fill="#1E1E1D" d="M-370.8,385.5c0.7,7.1-2.1,13.7-5.2,20.3c-1.6,3.4-3.9,3.9-6.7,1.2c-2.2-2.1-4.3-4.2-6.6-6.1
		c-3.4-2.9-5.5-5.4-3.2-10.7c3.1-7-0.8-13.6-4.3-19.6c-6.1-10.5-13.6-20-21.4-29.3c-1.8-2.1-1.7-2.8,0.3-4.6
		c3.9-3.3,7.5-7,11.2-10.5c1.2-1.1,2-2.4,3.8-0.3c11.2,13.1,22.2,26.3,28.9,42.5C-371.6,373.9-370.4,379.3-370.8,385.5z"/>
	<path fill="#1E1E1D" d="M-266,419.3c13.4-0.2,23,5.8,32.2,12.8c1.9,1.4,0.8,2.1-0.4,2.8c-4.8,2.9-9.6,5.8-14.4,8.7
		c-1.3,0.8-2.5,1.6-4,0.5c-15-10.4-26.9-3.5-38.1,6.9c-5.6,5.2-11.2,10.4-16.6,15.7c-1.9,1.9-3.2,2-4.7-0.2
		c-1.1-1.6-2.5-3.1-3.8-4.6c-2.2-2.5-6.4-4.9-5.8-7.6c0.6-2.8,4.5-5,7.1-7.3c10.7-9.5,21.3-18.9,34.7-24.7
		C-275,420.3-270.1,419.1-266,419.3z"/>
	<path fill="#1E1E1D" d="M-20.1,419.4c12.8-0.3,22.4,5.8,31.7,12.6c2,1.5,1.1,2.3-0.4,3.1c-2.4,1.4-5.1,2.6-7.3,4.3
		c-5.7,4.3-10.3,5.8-17.7,1.5c-8.5-5-17.7-1-25.2,5c-7.6,6.1-14.5,13-21.4,19.9c-2.8,2.8-4.6,3-7-0.3c-2.3-3.1-4.8-6-7.5-8.7
		c-1.7-1.7-1.8-2.7,0-4.3c10.8-9.7,21.4-19.9,34.3-27C-34.1,421.9-27.3,418.9-20.1,419.4z"/>
	<path fill="#1E1D1D" d="M-463.9,346.6c3.7,5.8,7.3,11.4,11,17.1c0.9,1.4,0.2,2.5-0.6,3.7c-8.6,12.4-5.1,22.4,3.3,32.5
		c5.9,7.1,12.4,13.8,19,20.4c2.8,2.8,2.4,4.3-0.4,6.5c-3.2,2.4-6,5.2-8.9,7.9c-1.2,1.1-2.2,2-3.7,0.3
		c-10.5-11.6-21.4-22.9-28.8-37.1c-7.5-14.4-6.1-28.1,2-41.5C-469.1,352.9-466.9,349.6-463.9,346.6z"/>
	<path fill="#1E1E1E" d="M-408,384.2c11.7,20,29.7,31.7,47.7,43.1c-3.4,3.5-7.2,6.1-9.2,9.7c-3.2,5.8-6.3,4.2-10.6,1.6
		c-13.9-8.3-25.2-19.4-35.3-31.8c-6.6-8.1-6.5-8.1,1-15.7C-412.4,389.1-410.5,386.9-408,384.2z"/>
	<path fill="#1E1E1E" d="M4.5,485c-4.8,3.4-9.2,6.5-13.7,9.7c-1.8,1.3-3.1,0.9-4.8-0.6c-11.2-10.4-21.8-21.5-32.5-32.4
		c-1.3-1.3-1.8-2.3,0-3.5c0.4-0.3,0.7-0.7,1.1-1C-34,446-34,446-23.2,457.4C-14.3,466.8-5.3,476.1,4.5,485z"/>
	<path fill="#1E1E1E" d="M-412.1,355.6c2.7,3.7,5.3,7.4,8.1,10.9c2.6,3.3,2.4,5.9-0.6,8.9c-8.4,8.2-16.5,16.7-25,24.8
		c-2.6,2.5-4.9,7.4-8.3,6.8c-2.9-0.5-5-4.9-7.5-7.6c-0.7-0.7-1.3-1.6-2-2.2c-3.2-3-2.2-5.4,0.7-8.1c8.5-7.9,16.8-16,25.1-24
		C-418.4,361.8-415.4,358.8-412.1,355.6z"/>
	<path fill="#1E1E1D" d="M-293.9,459.7c4.1-3.7,8-7,11.8-10.5c2.1-1.9,3.7-2,5.8,0.2c10.8,11.6,21.5,23.1,33.2,33.8
		c1.8,1.7,1,2.5-0.3,3.4c-3.9,2.8-7.8,5.5-11.7,8.3c-2.3,1.6-3.5,0-5-1.3C-271.6,482.8-282.6,471.5-293.9,459.7z"/>
	<path fill="#1E1E1E" d="M-450.8,450.8c0.2-1.3,1.3-1.9,2.1-2.7c9.5-10.3,20.9-18.4,30.8-28.2c3.7-3.7,6.2-4.2,9.1,0.4
		c0.5,0.8,1.3,1.5,1.9,2.3c2.2,2.6,7,4.5,6.5,7.3c-0.5,2.7-4.8,4.7-7.4,6.9c-10.1,8.6-20.5,16.8-29.5,26.7c-0.6,0.7-1.5,1.5-2.3,1.5
		C-441.4,465.1-450.9,452.8-450.8,450.8z"/>
	<path fill="#1E1E1E" d="M-431.5,343.2c-1.4,0.2-0.9-0.8-1.2-1.2c-3.6-4.4-6.5-9.2-9.2-14.2c-1.3-2.5-0.9-3.8,1-5.4
		c9-8.1,18.2-15.9,26.5-24.8c1.1-1.1,2.1-1.5,3.4-0.3c0.7,0.7,1.5,1.3,2.3,1.9c11.6,9.9,11.8,12.1,1.2,22.4
		c-6.7,6.5-13.6,12.7-20.4,19C-429.2,341.7-430.5,342.4-431.5,343.2z"/>
	<path fill="#1E1E1E" d="M16.3,466.1c0-1.2,0.7-1.6,1.4-2c4.9-3,9.6-6.4,14.9-8.9c2.1-1,3.1-0.6,4.6,1c8,8.8,16.1,17.6,24.4,26.1
		c1.9,2,1.9,3.1,0.1,4.8c-0.6,0.6-1,1.3-1.6,1.9c-3.3,3.6-6.8,7.6-11.4,8.5c-5.1,1-7.2-4.5-10.2-7.5c-7.2-7.1-13.9-14.7-20.8-22.1
		C17.2,467.2,16.7,466.6,16.3,466.1z"/>
	<path fill="#1E1E1E" d="M-197.9,498.3c-1.4,0.1-2-1.1-2.8-1.9c-9.8-9.2-18.6-19.4-27.9-29.1c-1.1-1.1-1.7-1.9,0.1-3
		c5-2.9,9.6-6.4,14.9-8.9c2.2-1.1,3.6-0.7,5.1,0.9c8.4,9,16.7,18,25.1,27c0.8,0.8,1.4,1.4,0.5,2.4c-4.1,4.8-8.4,9.4-14.3,12.2
		C-197.3,498-197.6,498.1-197.9,498.3z"/>
	<path fill="#1E1E1E" d="M-303,483.1c-4.8,2.8-9.3,5.4-13.7,8.1c-2.3,1.3-4,1.4-5.9-1c-8.5-10.6-17.2-21.1-27.4-30.2
		c-1.7-1.5-1.7-2.6,0-3.9c0.3-0.2,0.5-0.4,0.8-0.6c11.2-10.8,11.9-10.8,22.1,0.5C-319.1,464.8-311.3,473.8-303,483.1z"/>
	<path fill="#1E1E1E" d="M-57.6,482.9c-4.8,2.9-9.3,5.6-13.7,8.3c-2.1,1.2-3.5,1.3-5.4-0.9c-8.8-10.5-17.4-21.3-27.8-30.4
		c-1.4-1.2-1.6-2.4-0.2-3.7c0.4-0.3,0.8-0.6,1.1-1c11.1-10.4,11.3-10.6,21.4,0.1C-73.7,464.2-65.9,473.6-57.6,482.9z"/>
	<path fill="#1F1E1E" d="M-380.1,288.8c-4.2-5.3-8.4-10.1-13.3-14c-1.9-1.5-1.7-2.9-0.8-4.7c0.9-1.8,2.2-3.6,2.3-5.4
		c0.2-6.5,3.8-7.9,9.4-7.1c2,0.3,4,0,6,0c6.5,0,6.6,0,5.7,6.6C-372,272.9-375.2,280.8-380.1,288.8z"/>
	<path fill="#1E1E1E" d="M71.1,517.1c5.2-4.1,9.7-8.3,13.7-13c1.4-1.6,2.6-2.5,4.5-1c0.6,0.5,1.6,0.5,2.3,0.9c3,1.5,8.5,0.9,9.1,3.7
		c1.3,5.5,0.4,11.6,0.4,17.4c0,1.4-1.1,1.4-2.1,1.4C88.9,525.9,79.7,522.7,71.1,517.1z"/>
</g>
<g>
	<path fill="#1D1D1D" d="M311.6,518.5c5-4.6,9.2-8.9,12.6-13.8c1.1-1.5,2-1.8,3.7-0.9c2.9,1.4,6,1.9,9.1,2.2
		c6.4,0.5,7.7-0.4,8.2-6.9c1.2-15.8,0.9-31.6,1-47.4c0.1-16,0.6-32-1.7-47.9c-2.8-20.1-10.8-38.2-21.9-54.9
		c-2.8-4.3-5.8-8.5-8.9-12.6c-1.4-1.9-1.4-2.9,0.4-4.5c3.7-3.3,7.2-6.8,10.5-10.4c1.1-1.2,1.6-1.4,2.5-0.1
		c12.4,17.6,25.5,34.7,30.2,56.6c4.9,22.6,6.5,45.4,6.5,68.4c0,22.6-0.5,45.3-0.9,67.9c-0.2,12.2-3.5,15.6-15.8,14.8
		C334.9,528,323.1,524.9,311.6,518.5z"/>
	<path fill="#1E1D1D" d="M354,223.7c-4.3-4.9-8.2-9.7-13-13.5c-1.3-1.1-2.2-2-1.3-4.2c8.3-19.3,6.1-39,2.2-58.7
		c-4.1-20.8-14.7-38.4-27.1-55c-2.2-2.9-2.6-4.7,0.6-7.1c3.4-2.6,6.3-5.9,9.2-9.1c1.3-1.4,1.9-1.3,3,0.2
		c15.1,20.3,28.4,41.5,33.2,67c3.4,18.6,5.1,37.2,2.5,56C362.1,208,359.1,216.1,354,223.7z"/>
	<path fill="#1E1D1D" d="M265.8,103.5c3.5,4,6.7,7.8,10,11.5c2.1,2.3,2.7,4.5,1.4,7.8c-3.1,8.4-0.1,16,4.3,23.2
		c6.4,10.4,15.4,17.7,26.6,22.4c2,0.8,4.1,1.7,6-0.2c1.7-1.7,1.9-3.8,1.3-6c-1.1-4.2-3-8.1-5.5-11.6c-1-1.4-1.9-2.7,0-4.2
		c3.5-2.8,6.9-5.8,10.1-8.9c1.8-1.7,2.7-1,3.6,0.7c6.9,13.2,12.4,26.8,12.7,42c0.1,7.1-2.9,10.2-10,9.9c-24.1-1-57.5-17.1-67.3-44.7
		C253.9,131.4,254.7,117.5,265.8,103.5z"/>
	<path fill="#1E1D1D" d="M322,381.3c8,14.4,14.1,28.8,14.2,45c0,6.2-3.3,9.6-9.6,9.5c-11-0.2-21.2-3.7-31-8.2
		c-12.6-5.7-23.5-13.8-31-25.6c-11.3-17.7-12-35.4,1.2-53.2c4,4.8,7.8,9.6,11.7,14.3c0.7,0.8,1,1.6,0.6,2.7
		c-5.5,12.8,0.7,22.8,8.1,32.2c5.7,7.3,13.3,12.5,22,15.9c5.2,2.1,8.1-0.2,7.2-5.8c-0.7-4.3-2.8-8.1-5.3-11.7
		c-1.4-2-1.9-3.4,0.6-5.2C314.5,388.4,317.9,385,322,381.3z"/>
	<path fill="#1E1D1D" d="M354.1,282.9c-4.1-5.3-7.9-10.3-11.8-15.3c-1-1.3-2.2-2.2-1.5-4.3c3.6-11.2-1.7-20.1-8.6-28
		c-5.3-6.2-11.9-11-19.4-14.4c-1.9-0.9-3.7-1.7-5.6-0.2c-1.9,1.6-1.8,3.8-1.1,5.9c0.3,0.8,0.5,1.6,0.8,2.3c3.3,7.7,3.3,7.7-2.9,13.1
		c-2.4,2.1-4.7,4.1-7.5,6.5c-5.2-7.7-7.7-16.3-9.4-25.2c-1.2-6.6-1.8-13.2-0.1-19.8c1.4-5.6,4-7.8,9.9-7.7
		c11.8,0.2,22.5,4.1,32.1,10.6c14.5,9.8,25.5,22.4,32.1,38.8C367.1,259.5,362.5,271.3,354.1,282.9z"/>
	<path fill="#1E1D1D" d="M250.9,517.5c4.4-3.7,8.9-7.5,13.3-11.3c1.1-1,2.1-1.6,3.5-0.8c10.7,5.4,19.7,0.4,28.2-5.3
		c8.9-5.9,15.1-14.3,19.4-24.1c1-2.1,2.1-4.6,0.2-6.5c-1.8-1.9-4.4-1.9-7-1.2c-3.9,1-7.4,2.9-10.7,5.1c-2.2,1.5-3.6,1.4-5.3-0.7
		c-2.4-3.1-5.2-6-7.8-9c-1.2-1.3-1.8-2.3,0.5-3.6c12.7-7.1,26-12,40.7-12.8c8.6-0.4,12.3,2.5,11.2,11c-3.5,28.6-15,52.7-42.6,65.4
		C278.9,530.8,264.8,529.1,250.9,517.5z"/>
	<path fill="#1E1D1D" d="M184.3,429.5c-5.2,4.1-10.5,8.1-15.7,12.2c-1,0.8-1.8,1.5-3.5,0.9c-10.7-4-19.1,1.5-26.9,7.6
		c-6.6,5.1-11.3,12.1-15.2,19.5c-1.1,2.1-2.3,4.5-0.7,6.6c1.7,2.2,4.4,1.7,6.9,1c0.3-0.1,0.7-0.1,1-0.2c2.8-0.8,5.5-4.8,7.8-3.1
		c4.5,3.3,8,8,11.7,12.2c1.3,1.5-0.5,2-1.4,2.4c-13.1,6.4-26.7,10.1-41.4,8.5c-6.8-0.7-10.1-5.5-9.3-13.3c1.2-12,5.6-22.8,12.7-32.5
		c8.7-11.8,19.4-21.2,32.8-27.4C158.3,416.8,171.3,418.7,184.3,429.5z"/>
	<path fill="#1E1D1D" d="M296.5,3.2c-7.4-13.4-11.3-27.3-10-42.3c0.7-8.1,5.2-11.5,13-10.8c27.6,2.2,58.5,29.6,63.8,56.7
		c2.3,11.7-2.7,21.2-9.3,30.5c-4.2-5.5-8.2-10.8-12.3-16c-0.7-0.9-1.6-1.5-1.2-3c4.1-13.6-2.9-23.3-11.8-32.1
		C324-18.5,318.4-22.4,312-25c-1.4-0.6-2.9-1.8-4.6-0.4c-1.7,1.5-2.1,3.4-1.4,5.4c0.9,2.5,1.6,5.1,3,7.3c1.4,2.3,1.3,3.6-0.7,5.4
		C304.3-4,300.6-0.5,296.5,3.2z"/>
	<path fill="#1E1D1D" d="M257.1,204.5c-0.3-12.6,1-24.9,6.4-36.5c1.1-2.4,2.1-3.3,4-0.9c3.2,3.9,7.1,6.9,11,10c1.3,1,2,1.7,1.2,3.6
		c-5.6,14.6-4.2,29.9-2.8,44.9c2.2,22.9,11.8,43,25.4,61.2c0.9,1.2,1.7,2.4,2.5,3.7c4.7,7.1,4.8,7.2-1.4,12.8
		c-2.8,2.6-5.2,7.8-8.7,6.9c-2.8-0.7-4.4-5.8-6.7-8.9c-7.8-10.8-14.9-22-19.7-34.4C260.7,246.8,257.5,225.9,257.1,204.5z"/>
	<path fill="#1E1E1D" d="M276.9-38.7C276.3-18.2,279.5,1.6,289,20c5.2,10,11.9,19.1,18.4,28.3c1.8,2.5,2.2,3.9-0.5,6.1
		c-3.4,2.8-6.5,6.1-9.6,9.4c-1.5,1.6-2.5,1.9-3.8,0c-10.8-15.5-22-30.9-27.5-49.1c-6.3-20.7-10-41.9-9.8-63.7c0-2.2,0.8-2.8,2.9-2.8
		c5,0.1,10,0.2,15,0c2.6-0.1,3,1.2,2.9,3.3C276.8-45.3,276.9-42,276.9-38.7z"/>
	<path fill="#1E1D1D" d="M109,526.4c-4.6-0.2-10.5,1.1-13.5-1.2c-3-2.3-0.4-8.4-1-12.8c-0.7-4.8,1.3-5.8,5.7-5.3
		c22,2.6,43-1.7,63-10.3c11.8-5.1,22.2-13.2,32.5-20.8c2.6-1.9,3.9-1.6,5.9,0.7c2.9,3.4,6.2,6.5,9.4,9.6c1.4,1.4,1.9,2.1-0.2,3.6
		c-18,13.1-36.4,25.4-58.6,30.5C138.1,523.5,123.8,526.7,109,526.4z"/>
	<path fill="#1E1D1D" d="M330,13.9c12.3,14.1,24.5,28.3,31,46.3c5.9,16.3,1.9,30.9-9.3,44c-3.8-5.7-7.4-11.2-11-16.8
		c-0.6-1-1-1.9-0.4-3.2c5-10.7,0.3-19.6-5.4-28.3c-5.4-8.3-11.4-16.3-17.8-23.9c-2.4-2.9-2.2-4.7,0.6-7.1
		C321.8,21.5,325.8,17.8,330,13.9z"/>
	<path fill="#1E1E1D" d="M351.7,349.7c-3.6-5.4-7.1-10.8-10.7-16.1c-1.2-1.7-1-3.3-0.2-5.1c3-7.3,1.5-14.2-2.3-20.9
		c-6.3-11.3-14.5-21.4-22.6-31.5c-1.5-1.8-1.2-2.6,0.2-3.9c4-3.7,8.1-7.4,12-11.2c1.2-1.2,1.9-1.5,3.1-0.1
		c11.2,13.3,22.6,26.4,29,42.8C366.9,320.4,364,335,351.7,349.7z"/>
	<path fill="#1E1E1D" d="M222.4,420c7.1-0.7,13.7,2.1,20.3,5.2c3.4,1.6,3.9,3.9,1.2,6.7c-2.1,2.2-4.2,4.3-6.1,6.6
		c-2.9,3.4-5.4,5.5-10.7,3.2c-7-3.1-13.6,0.8-19.6,4.3c-10.5,6.1-20,13.6-29.3,21.4c-2.1,1.8-2.8,1.7-4.6-0.3
		c-3.3-3.9-7-7.5-10.5-11.2c-1.1-1.2-2.4-2-0.3-3.8c13.1-11.2,26.3-22.2,42.5-28.9C210.8,420.8,216.2,419.6,222.4,420z"/>
	<path fill="#1E1E1D" d="M256.2,315.3c-0.2-13.4,5.8-23,12.8-32.2c1.4-1.9,2.1-0.8,2.8,0.4c2.9,4.8,5.8,9.6,8.7,14.4
		c0.8,1.3,1.6,2.5,0.5,4c-10.4,15-3.5,26.9,6.9,38.1c5.2,5.6,10.4,11.2,15.7,16.6c1.9,1.9,2,3.2-0.2,4.7c-1.6,1.1-3.1,2.5-4.6,3.8
		c-2.5,2.2-4.9,6.4-7.6,5.8c-2.8-0.6-5-4.5-7.3-7.1c-9.5-10.7-18.9-21.3-24.7-34.7C257.2,324.3,256,319.4,256.2,315.3z"/>
	<path fill="#1E1E1D" d="M256.2,69.3c-0.3-12.8,5.8-22.4,12.6-31.7c1.5-2,2.3-1.1,3.1,0.4c1.4,2.4,2.6,5.1,4.3,7.3
		c4.3,5.7,5.8,10.3,1.5,17.7c-5,8.5-1,17.7,5,25.2c6.1,7.6,13,14.5,19.9,21.4c2.8,2.8,3,4.6-0.3,7c-3.1,2.3-6,4.8-8.7,7.5
		c-1.7,1.7-2.7,1.8-4.3,0c-9.7-10.8-19.9-21.4-27-34.3C258.7,83.3,255.8,76.5,256.2,69.3z"/>
	<path fill="#1E1D1D" d="M183.5,513.1c5.8-3.7,11.4-7.3,17.1-11c1.4-0.9,2.5-0.2,3.7,0.6c12.4,8.6,22.4,5.1,32.5-3.3
		c7.1-5.9,13.8-12.4,20.4-19c2.8-2.8,4.3-2.4,6.5,0.4c2.4,3.2,5.2,6,7.9,8.9c1.1,1.2,2,2.2,0.3,3.7c-11.6,10.5-22.9,21.4-37.1,28.8
		c-14.4,7.5-28.1,6.1-41.5-2C189.8,518.3,186.5,516.1,183.5,513.1z"/>
	<path fill="#1E1E1E" d="M221,457.3c20-11.7,31.7-29.7,43.1-47.7c3.5,3.4,6.1,7.2,9.7,9.2c5.8,3.2,4.2,6.3,1.6,10.6
		c-8.3,13.9-19.4,25.2-31.8,35.3c-8.1,6.6-8.1,6.5-15.7-1C225.9,461.6,223.8,459.8,221,457.3z"/>
	<path fill="#1E1E1E" d="M321.9,44.8c3.4,4.8,6.5,9.2,9.7,13.7c1.3,1.8,0.9,3.1-0.6,4.8c-10.4,11.2-21.5,21.8-32.4,32.5
		c-1.3,1.3-2.3,1.8-3.5,0c-0.3-0.4-0.7-0.7-1-1.1c-11.1-11.4-11.1-11.4,0.3-22.2C303.7,63.6,312.9,54.6,321.9,44.8z"/>
	<path fill="#1E1E1E" d="M192.5,461.4c3.7-2.7,7.4-5.3,10.9-8.1c3.3-2.6,5.9-2.4,8.9,0.6c8.2,8.4,16.7,16.5,24.8,25
		c2.5,2.6,7.4,4.9,6.8,8.3c-0.5,2.9-4.9,5-7.6,7.5c-0.7,0.7-1.6,1.3-2.2,2c-3,3.2-5.4,2.2-8.1-0.7c-7.9-8.5-16-16.8-24-25.1
		C198.7,467.7,195.6,464.6,192.5,461.4z"/>
	<path fill="#1E1E1D" d="M296.6,343.1c-3.7-4.1-7-8-10.5-11.8c-1.9-2.1-2-3.7,0.2-5.8c11.6-10.8,23.1-21.5,33.8-33.2
		c1.7-1.8,2.5-1,3.4,0.3c2.8,3.9,5.5,7.8,8.3,11.7c1.6,2.3,0,3.5-1.3,5C319.6,320.8,308.3,331.9,296.6,343.1z"/>
	<path fill="#1E1E1E" d="M287.7,500c-1.3-0.2-1.9-1.3-2.7-2.1c-10.3-9.5-18.4-20.9-28.2-30.8c-3.7-3.7-4.2-6.2,0.4-9.1
		c0.8-0.5,1.5-1.3,2.3-1.9c2.6-2.2,4.5-7,7.3-6.5c2.7,0.5,4.7,4.8,6.9,7.4c8.6,10.1,16.8,20.5,26.7,29.5c0.7,0.6,1.5,1.5,1.5,2.3
		C302,490.6,289.7,500.1,287.7,500z"/>
	<path fill="#1E1E1E" d="M180,480.8c0.2,1.4-0.8,0.9-1.2,1.2c-4.4,3.6-9.2,6.5-14.2,9.2c-2.5,1.3-3.8,0.9-5.4-1
		c-8.1-9-15.9-18.2-24.8-26.5c-1.1-1.1-1.5-2.1-0.3-3.4c0.7-0.7,1.3-1.5,1.9-2.3c9.9-11.6,12.1-11.8,22.4-1.2
		c6.5,6.7,12.7,13.6,19,20.4C178.5,478.4,179.3,479.7,180,480.8z"/>
	<path fill="#1E1E1E" d="M302.9,32.9c-1.2,0-1.6-0.7-2-1.4c-3-4.9-6.4-9.6-8.9-14.9c-1-2.1-0.6-3.1,1-4.6c8.8-8,17.6-16.1,26.1-24.4
		c2-1.9,3.1-1.9,4.8-0.1c0.6,0.6,1.3,1,1.9,1.6c3.6,3.3,7.6,6.8,8.5,11.4c1,5.1-4.5,7.2-7.5,10.2c-7.1,7.2-14.7,13.9-22.1,20.8
		C304.1,32,303.4,32.5,302.9,32.9z"/>
	<path fill="#1E1E1E" d="M335.2,247.1c0.1,1.4-1.1,2-1.9,2.8c-9.2,9.8-19.4,18.6-29.1,27.9c-1.1,1.1-1.9,1.7-3-0.1
		c-2.9-5-6.4-9.6-8.9-14.9c-1.1-2.2-0.7-3.6,0.9-5.1c9-8.4,18-16.7,27-25.1c0.8-0.8,1.4-1.4,2.4-0.5c4.8,4.1,9.4,8.4,12.2,14.3
		C334.8,246.5,335,246.8,335.2,247.1z"/>
	<path fill="#1E1E1E" d="M319.9,352.3c2.8,4.8,5.4,9.3,8.1,13.7c1.3,2.3,1.4,4-1,5.9c-10.6,8.5-21.1,17.2-30.2,27.4
		c-1.5,1.7-2.6,1.7-3.9,0c-0.2-0.3-0.4-0.5-0.6-0.8c-10.8-11.2-10.8-11.9,0.5-22.1C301.6,368.4,310.6,360.5,319.9,352.3z"/>
	<path fill="#1E1E1E" d="M319.8,106.8c2.9,4.8,5.6,9.3,8.3,13.7c1.2,2.1,1.3,3.5-0.9,5.4c-10.5,8.8-21.3,17.4-30.4,27.8
		c-1.2,1.4-2.4,1.6-3.7,0.2c-0.3-0.4-0.6-0.8-1-1.1c-10.4-11.1-10.6-11.3,0.1-21.4C301.1,123,310.5,115.1,319.8,106.8z"/>
	<path fill="#1F1E1E" d="M125.7,429.3c-5.3,4.2-10.1,8.4-14,13.3c-1.5,1.9-2.9,1.7-4.7,0.8c-1.8-0.9-3.6-2.2-5.4-2.3
		c-6.5-0.2-7.9-3.8-7.1-9.4c0.3-2,0-4,0-6c0-6.5,0-6.6,6.6-5.7C109.7,421.2,117.6,424.4,125.7,429.3z"/>
	<path fill="#1E1E1E" d="M354-21.8c-4.1-5.2-8.3-9.7-13-13.7c-1.6-1.4-2.5-2.6-1-4.5c0.5-0.6,0.5-1.6,0.9-2.3c1.5-3,0.9-8.5,3.7-9.1
		c5.5-1.3,11.6-0.4,17.4-0.4c1.4,0,1.4,1.1,1.4,2.1C362.7-39.7,359.6-30.5,354-21.8z"/>
</g>
<g>
	<path fill="#1D1D1D" d="M-426.3-309.1c-5,4.6-9.2,8.9-12.6,13.8c-1.1,1.5-2,1.8-3.7,0.9c-2.9-1.4-6-1.9-9.1-2.2
		c-6.4-0.5-7.7,0.4-8.2,6.9c-1.2,15.8-0.9,31.6-1,47.4c-0.1,16-0.6,32,1.7,47.9c2.8,20.1,10.8,38.2,21.9,54.9
		c2.8,4.3,5.8,8.5,8.9,12.6c1.4,1.9,1.4,2.9-0.4,4.5c-3.7,3.3-7.2,6.8-10.5,10.4c-1.1,1.2-1.6,1.4-2.5,0.1
		c-12.4-17.6-25.5-34.7-30.2-56.6c-4.9-22.6-6.5-45.4-6.5-68.4c0-22.6,0.5-45.3,0.9-67.9c0.2-12.2,3.5-15.6,15.8-14.8
		C-449.7-318.5-437.8-315.4-426.3-309.1z"/>
	<path fill="#1E1D1D" d="M-468.8-14.2c4.3,4.9,8.2,9.7,13,13.5c1.3,1.1,2.2,2,1.3,4.2c-8.3,19.3-6.1,39-2.2,58.7
		c4.1,20.8,14.7,38.4,27.1,55c2.2,2.9,2.6,4.7-0.6,7.1c-3.4,2.6-6.3,5.9-9.2,9.1c-1.3,1.4-1.9,1.3-3-0.2
		c-15.1-20.3-28.4-41.5-33.2-67c-3.4-18.6-5.1-37.2-2.5-56C-476.8,1.5-473.8-6.6-468.8-14.2z"/>
	<path fill="#1E1D1D" d="M-380.5,105.9c-3.5-4-6.7-7.8-10-11.5c-2.1-2.3-2.7-4.5-1.4-7.8c3.1-8.4,0.1-16-4.3-23.2
		c-6.4-10.4-15.4-17.7-26.6-22.4c-2-0.8-4.1-1.7-6,0.2c-1.7,1.7-1.9,3.8-1.3,6c1.1,4.2,3,8.1,5.5,11.6c1,1.4,1.9,2.7,0,4.2
		c-3.5,2.8-6.9,5.8-10.1,8.9c-1.8,1.7-2.7,1-3.6-0.7c-6.9-13.2-12.4-26.8-12.7-42c-0.1-7.1,2.9-10.2,10-9.9
		c24.1,1,57.5,17.1,67.3,44.7C-368.7,78.1-369.5,92-380.5,105.9z"/>
	<path fill="#1E1D1D" d="M-436.8-171.9c-8-14.4-14.1-28.8-14.2-45c0-6.2,3.3-9.6,9.6-9.5c11,0.2,21.2,3.7,31,8.2
		c12.6,5.7,23.5,13.8,31,25.6c11.3,17.7,12,35.4-1.2,53.2c-4-4.8-7.8-9.6-11.7-14.3c-0.7-0.8-1-1.6-0.6-2.7
		c5.5-12.8-0.7-22.8-8.1-32.2c-5.7-7.3-13.3-12.5-22-15.9c-5.2-2.1-8.1,0.2-7.2,5.8c0.7,4.3,2.8,8.1,5.3,11.7c1.4,2,1.9,3.4-0.6,5.2
		C-429.2-179-432.6-175.5-436.8-171.9z"/>
	<path fill="#1E1D1D" d="M-468.9-73.4c4.1,5.3,7.9,10.3,11.8,15.3c1,1.3,2.2,2.2,1.5,4.3c-3.6,11.2,1.7,20.1,8.6,28
		c5.3,6.2,11.9,11,19.4,14.4c1.9,0.9,3.7,1.7,5.6,0.2c1.9-1.6,1.8-3.8,1.1-5.9c-0.3-0.8-0.5-1.6-0.8-2.3c-3.3-7.7-3.3-7.7,2.9-13.1
		c2.4-2.1,4.7-4.1,7.5-6.5c5.2,7.7,7.7,16.3,9.4,25.2c1.2,6.6,1.8,13.2,0.1,19.8c-1.4,5.6-4,7.8-9.9,7.7
		c-11.8-0.2-22.5-4.1-32.1-10.6c-14.5-9.8-25.5-22.4-32.1-38.8C-481.8-50-477.2-61.9-468.9-73.4z"/>
	<path fill="#1E1D1D" d="M-365.6-308c-4.4,3.7-8.9,7.5-13.3,11.3c-1.1,1-2.1,1.6-3.5,0.8c-10.7-5.4-19.7-0.4-28.2,5.3
		c-8.9,5.9-15.1,14.3-19.4,24.1c-1,2.1-2.1,4.6-0.2,6.5c1.8,1.9,4.4,1.9,7,1.2c3.9-1,7.4-2.9,10.7-5.1c2.2-1.5,3.6-1.4,5.3,0.7
		c2.4,3.1,5.2,6,7.8,9c1.2,1.3,1.8,2.3-0.5,3.6c-12.7,7.1-26,12-40.7,12.8c-8.6,0.4-12.3-2.5-11.2-11c3.5-28.6,15-52.7,42.6-65.4
		C-393.7-321.3-379.6-319.6-365.6-308z"/>
	<path fill="#1E1D1D" d="M-299.1-220c5.2-4.1,10.5-8.1,15.7-12.2c1-0.8,1.8-1.5,3.5-0.9c10.7,4,19.1-1.5,26.9-7.6
		c6.6-5.1,11.3-12.1,15.2-19.5c1.1-2.1,2.3-4.5,0.7-6.6c-1.7-2.2-4.4-1.7-6.9-1c-0.3,0.1-0.7,0.1-1,0.2c-2.8,0.8-5.5,4.8-7.8,3.1
		c-4.5-3.3-8-8-11.7-12.2c-1.3-1.5,0.5-2,1.4-2.4c13.1-6.4,26.7-10.1,41.4-8.5c6.8,0.7,10.1,5.5,9.3,13.3
		c-1.2,12-5.6,22.8-12.7,32.5c-8.7,11.8-19.4,21.2-32.8,27.4C-273-207.3-286.1-209.2-299.1-220z"/>
	<path fill="#1E1D1D" d="M-411.2,206.3c7.4,13.4,11.3,27.3,10,42.3c-0.7,8.1-5.2,11.5-13,10.8c-27.6-2.2-58.5-29.6-63.8-56.7
		c-2.3-11.7,2.7-21.2,9.3-30.5c4.2,5.5,8.2,10.8,12.3,16c0.7,0.9,1.6,1.5,1.2,3c-4.1,13.6,2.9,23.3,11.8,32.1
		c4.9,4.8,10.4,8.7,16.8,11.3c1.4,0.6,2.9,1.8,4.6,0.4c1.7-1.5,2.1-3.4,1.4-5.4c-0.9-2.5-1.6-5.1-3-7.3c-1.4-2.3-1.3-3.6,0.7-5.4
		C-419,213.5-415.3,210-411.2,206.3z"/>
	<path fill="#1E1D1D" d="M-371.8,5c0.3,12.6-1,24.9-6.4,36.5c-1.1,2.4-2.1,3.3-4,0.9c-3.2-3.9-7.1-6.9-11-10c-1.3-1-2-1.7-1.2-3.6
		c5.6-14.6,4.2-29.9,2.8-44.9c-2.2-22.9-11.8-43-25.4-61.2c-0.9-1.2-1.7-2.4-2.5-3.7c-4.7-7.1-4.8-7.2,1.4-12.8
		c2.8-2.6,5.2-7.8,8.7-6.9c2.8,0.7,4.4,5.8,6.7,8.9c7.8,10.8,14.9,22,19.7,34.4C-375.5-37.3-372.3-16.4-371.8,5z"/>
	<path fill="#1E1E1D" d="M-391.6,248.2c0.6-20.5-2.7-40.2-12.1-58.6c-5.2-10-11.9-19.1-18.4-28.3c-1.8-2.5-2.2-3.9,0.5-6.1
		c3.4-2.8,6.5-6.1,9.6-9.4c1.5-1.6,2.5-1.9,3.8,0c10.8,15.5,22,30.9,27.5,49.1c6.3,20.7,10,41.9,9.8,63.7c0,2.2-0.8,2.8-2.9,2.8
		c-5-0.1-10-0.2-15,0c-2.6,0.1-3-1.2-2.9-3.3C-391.5,254.8-391.6,251.5-391.6,248.2z"/>
	<path fill="#1E1D1D" d="M-223.8-316.9c4.6,0.2,10.5-1.1,13.5,1.2c3,2.3,0.4,8.4,1,12.8c0.7,4.8-1.3,5.8-5.7,5.3
		c-22-2.6-43,1.7-63,10.3c-11.8,5.1-22.2,13.2-32.5,20.8c-2.6,1.9-3.9,1.6-5.9-0.7c-2.9-3.4-6.2-6.5-9.4-9.6
		c-1.4-1.4-1.9-2.1,0.2-3.6c18-13.1,36.4-25.4,58.6-30.5C-252.8-314-238.5-317.2-223.8-316.9z"/>
	<path fill="#1E1D1D" d="M-444.7,195.5c-12.3-14.1-24.5-28.3-31-46.3c-5.9-16.3-1.9-30.9,9.3-44c3.8,5.7,7.4,11.2,11,16.8
		c0.6,1,1,1.9,0.4,3.2c-5,10.7-0.3,19.6,5.4,28.3c5.4,8.3,11.4,16.3,17.8,23.9c2.4,2.9,2.2,4.7-0.6,7.1
		C-436.6,187.9-440.5,191.7-444.7,195.5z"/>
	<path fill="#1E1E1D" d="M-466.4-140.2c3.6,5.4,7.1,10.8,10.7,16.1c1.2,1.7,1,3.3,0.2,5.1c-3,7.3-1.5,14.2,2.3,20.9
		c6.3,11.3,14.5,21.4,22.6,31.5c1.5,1.8,1.2,2.6-0.2,3.9c-4,3.7-8.1,7.4-12,11.2c-1.2,1.2-1.9,1.5-3.1,0.1
		c-11.2-13.3-22.6-26.4-29-42.8C-481.7-111-478.8-125.5-466.4-140.2z"/>
	<path fill="#1E1E1D" d="M-337.2-210.5c-7.1,0.7-13.7-2.1-20.3-5.2c-3.4-1.6-3.9-3.9-1.2-6.7c2.1-2.2,4.2-4.3,6.1-6.6
		c2.9-3.4,5.4-5.5,10.7-3.2c7,3.1,13.6-0.8,19.6-4.3c10.5-6.1,20-13.6,29.3-21.4c2.1-1.8,2.8-1.7,4.6,0.3c3.3,3.9,7,7.5,10.5,11.2
		c1.1,1.2,2.4,2,0.3,3.8c-13.1,11.2-26.3,22.2-42.5,28.9C-325.5-211.4-330.9-210.1-337.2-210.5z"/>
	<path fill="#1E1E1D" d="M-371-105.8c0.2,13.4-5.8,23-12.8,32.2c-1.4,1.9-2.1,0.8-2.8-0.4c-2.9-4.8-5.8-9.6-8.7-14.4
		c-0.8-1.3-1.6-2.5-0.5-4c10.4-15,3.5-26.9-6.9-38.1c-5.2-5.6-10.4-11.2-15.7-16.6c-1.9-1.9-2-3.2,0.2-4.7c1.6-1.1,3.1-2.5,4.6-3.8
		c2.5-2.2,4.9-6.4,7.6-5.8c2.8,0.6,5,4.5,7.3,7.1c9.5,10.7,18.9,21.3,24.7,34.7C-371.9-114.8-370.7-109.9-371-105.8z"/>
	<path fill="#1E1E1D" d="M-371,140.2c0.3,12.8-5.8,22.4-12.6,31.7c-1.5,2-2.3,1.1-3.1-0.4c-1.4-2.4-2.6-5.1-4.3-7.3
		c-4.3-5.7-5.8-10.3-1.5-17.7c5-8.5,1-17.7-5-25.2c-6.1-7.6-13-14.5-19.9-21.4c-2.8-2.8-3-4.6,0.3-7c3.1-2.3,6-4.8,8.7-7.5
		c1.7-1.7,2.7-1.8,4.3,0c9.7,10.8,19.9,21.4,27,34.3C-373.5,126.2-370.5,133-371,140.2z"/>
	<path fill="#1E1D1D" d="M-298.2-303.6c-5.8,3.7-11.4,7.3-17.1,11c-1.4,0.9-2.5,0.2-3.7-0.6c-12.4-8.6-22.4-5.1-32.5,3.3
		c-7.1,5.9-13.8,12.4-20.4,19c-2.8,2.8-4.3,2.4-6.5-0.4c-2.4-3.2-5.2-6-7.9-8.9c-1.1-1.2-2-2.2-0.3-3.7
		c11.6-10.5,22.9-21.4,37.1-28.8c14.4-7.5,28.1-6.1,41.5,2C-304.5-308.8-301.2-306.6-298.2-303.6z"/>
	<path fill="#1E1E1E" d="M-335.8-247.8c-20,11.7-31.7,29.7-43.1,47.7c-3.5-3.4-6.1-7.2-9.7-9.2c-5.8-3.2-4.2-6.3-1.6-10.6
		c8.3-13.9,19.4-25.2,31.8-35.3c8.1-6.6,8.1-6.5,15.7,1C-340.7-252.1-338.5-250.3-335.8-247.8z"/>
	<path fill="#1E1E1E" d="M-436.7,164.7c-3.4-4.8-6.5-9.2-9.7-13.7c-1.3-1.8-0.9-3.1,0.6-4.8c10.4-11.2,21.5-21.8,32.4-32.5
		c1.3-1.3,2.3-1.8,3.5,0c0.3,0.4,0.7,0.7,1,1.1c11.1,11.4,11.1,11.4-0.3,22.2C-418.4,145.9-427.7,154.9-436.7,164.7z"/>
	<path fill="#1E1E1E" d="M-307.2-251.9c-3.7,2.7-7.4,5.3-10.9,8.1c-3.3,2.6-5.9,2.4-8.9-0.6c-8.2-8.4-16.7-16.5-24.8-25
		c-2.5-2.6-7.4-4.9-6.8-8.3c0.5-2.9,4.9-5,7.6-7.5c0.7-0.7,1.6-1.3,2.2-2c3-3.2,5.4-2.2,8.1,0.7c7.9,8.5,16,16.8,24,25.1
		C-313.5-258.2-310.4-255.1-307.2-251.9z"/>
	<path fill="#1E1E1D" d="M-411.3-133.6c3.7,4.1,7,8,10.5,11.8c1.9,2.1,2,3.7-0.2,5.8c-11.6,10.8-23.1,21.5-33.8,33.2
		c-1.7,1.8-2.5,1-3.4-0.3c-2.8-3.9-5.5-7.8-8.3-11.7c-1.6-2.3,0-3.5,1.3-5C-434.4-111.3-423.1-122.4-411.3-133.6z"/>
	<path fill="#1E1E1E" d="M-402.4-290.6c1.3,0.2,1.9,1.3,2.7,2.1c10.3,9.5,18.4,20.9,28.2,30.8c3.7,3.7,4.2,6.2-0.4,9.1
		c-0.8,0.5-1.5,1.3-2.3,1.9c-2.6,2.2-4.5,7-7.3,6.5c-2.7-0.5-4.7-4.8-6.9-7.4c-8.6-10.1-16.8-20.5-26.7-29.5
		c-0.7-0.6-1.5-1.5-1.5-2.3C-416.7-281.1-404.4-290.6-402.4-290.6z"/>
	<path fill="#1E1E1E" d="M-294.8-271.3c-0.2-1.4,0.8-0.9,1.2-1.2c4.4-3.6,9.2-6.5,14.2-9.2c2.5-1.3,3.8-0.9,5.4,1
		c8.1,9,15.9,18.2,24.8,26.5c1.1,1.1,1.5,2.1,0.3,3.4c-0.7,0.7-1.3,1.5-1.9,2.3c-9.9,11.6-12.1,11.8-22.4,1.2
		c-6.5-6.7-12.7-13.6-19-20.4C-293.3-269-294-270.3-294.8-271.3z"/>
	<path fill="#1E1E1E" d="M-417.7,176.5c1.2,0,1.6,0.7,2,1.4c3,4.9,6.4,9.6,8.9,14.9c1,2.1,0.6,3.1-1,4.6c-8.8,8-17.6,16.1-26.1,24.4
		c-2,1.9-3.1,1.9-4.8,0.1c-0.6-0.6-1.3-1-1.9-1.6c-3.6-3.3-7.6-6.8-8.5-11.4c-1-5.1,4.5-7.2,7.5-10.2c7.1-7.2,14.7-13.9,22.1-20.8
		C-418.9,177.5-418.2,177-417.7,176.5z"/>
	<path fill="#1E1E1E" d="M-449.9-37.6c-0.1-1.4,1.1-2,1.9-2.8c9.2-9.8,19.4-18.6,29.1-27.9c1.1-1.1,1.9-1.7,3,0.1
		c2.9,5,6.4,9.6,8.9,14.9c1.1,2.2,0.7,3.6-0.9,5.1c-9,8.4-18,16.7-27,25.1c-0.8,0.8-1.4,1.4-2.4,0.5c-4.8-4.1-9.4-8.4-12.2-14.3
		C-449.6-37-449.7-37.3-449.9-37.6z"/>
	<path fill="#1E1E1E" d="M-434.7-142.8c-2.8-4.8-5.4-9.3-8.1-13.7c-1.3-2.3-1.4-4,1-5.9c10.6-8.5,21.1-17.2,30.2-27.4
		c1.5-1.7,2.6-1.7,3.9,0c0.2,0.3,0.4,0.5,0.6,0.8c10.8,11.2,10.8,11.9-0.5,22.1C-416.4-158.9-425.4-151-434.7-142.8z"/>
	<path fill="#1E1E1E" d="M-434.5,102.7c-2.9-4.8-5.6-9.3-8.3-13.7c-1.2-2.1-1.3-3.5,0.9-5.4c10.5-8.8,21.3-17.4,30.4-27.8
		c1.2-1.4,2.4-1.6,3.7-0.2c0.3,0.4,0.6,0.8,1,1.1c10.4,11.1,10.6,11.3-0.1,21.4C-415.8,86.5-425.2,94.4-434.5,102.7z"/>
	<path fill="#1F1E1E" d="M-240.4-219.8c5.3-4.2,10.1-8.4,14-13.3c1.5-1.9,2.9-1.7,4.7-0.8c1.8,0.9,3.6,2.2,5.4,2.3
		c6.5,0.2,7.9,3.8,7.1,9.4c-0.3,2,0,4,0,6c0,6.5,0,6.6-6.6,5.7C-224.5-211.8-232.4-214.9-240.4-219.8z"/>
	<path fill="#1E1E1E" d="M-468.8,231.3c4.1,5.2,8.3,9.7,13,13.7c1.6,1.4,2.5,2.6,1,4.5c-0.5,0.6-0.5,1.6-0.9,2.3
		c-1.5,3-0.9,8.5-3.7,9.1c-5.5,1.3-11.6,0.4-17.4,0.4c-1.4,0-1.4-1.1-1.4-2.1C-477.5,249.2-474.4,240-468.8,231.3z"/>
</g>
</svg>
