<?xml version="1.0" encoding="utf-8"?>
<!-- Generator: Adobe Illustrator 21.1.0, SVG Export Plug-In . SVG Version: 6.00 Build 0)  -->
<svg version="1.1" id="Layer_1" xmlns="http://www.w3.org/2000/svg" xmlns:xlink="http://www.w3.org/1999/xlink" x="0px" y="0px"
	 width="16px" height="16px" viewBox="0 0 16 16" style="enable-background:new 0 0 16 16;" xml:space="preserve">
<style type="text/css">
	.st0{fill:#FF883E;}
	.st1{fill:#FFFFFF;}
	.st2{display:none;}
	.st3{display:inline;}
	.st4{stroke:#000000;stroke-width:0.11;stroke-miterlimit:10;}
</style>
<path class="st0" d="M8,0C4.7,0,2,2.7,2,6c0,3.9,4.3,8.7,5,9.4C7.3,15.7,7.5,16,8,16s0.7-0.3,1-0.6c0.7-0.7,5-5.5,5-9.4
	C14,2.7,11.3,0,8,0z"/>
<circle class="st1" cx="8" cy="6" r="4"/>
<circle class="st2" cx="8" cy="6" r="2"/>
<g class="st2">
	<path class="st3" d="M10.9,7.3c0-0.1,0-1.3-1.5-2c0,0-0.1,0-0.1,0c0,0,0.1-0.1,0.1-0.1C9.3,3.7,8.2,3.1,8.2,3.1L8,3.1
		c0,0-0.1,0-0.1,0L7.8,3.1c-0.1,0-1.2,0.6-1.2,2.2c0,0,0,0.1,0,0.1c0,0-0.1,0-0.1,0C5.2,6.2,5.1,7.3,5.1,7.3C5.1,8,6,8.1,6.3,8.2
		c0.1,0,0.2,0,0.4,0c0.5,0,1.1-0.2,1.5-0.5c0,0.1,0,0.1,0.1,0.1l0.1,0C8.7,8,9,8.1,9.4,8.1c0.8,0,1.2-0.3,1.3-0.4l0.1-0.1
		c0,0,0.1-0.1,0.1-0.1L10.9,7.3z M7.9,3.4L7.9,3.4H8c0,0,0.9,0.5,1,1.8c0,0,0,0,0,0c0,0,0,0,0,0l0,0l0,0c-0.1,0-0.2-0.1-0.3-0.1
		C8.6,4.4,8.3,4,8.1,3.8C8,3.8,7.9,3.8,7.9,3.8C7.6,4,7.2,4.5,7.2,5.3c0,0.1,0,0.3,0,0.4l0,0c0,0.3,0.1,0.5,0.3,0.7
		c0.1,0.1,0.2,0.3,0.3,0.4c0,0,0,0,0,0L7.7,6.9c0,0-0.1,0.1-0.1,0.1C7.4,6.9,7.3,6.7,7.3,6.6C7.1,6.3,7,6.1,7,5.8l0,0
		c0-0.1,0-0.3,0-0.4C6.9,3.9,7.9,3.4,7.9,3.4z M8,6.6C7.9,6.5,7.9,6.4,7.8,6.3c0-0.1-0.1-0.1-0.1-0.2c0.1,0,0.2,0,0.2,0h0h0
		c0.1,0,0.2,0,0.3,0c0,0.1-0.1,0.2-0.1,0.2c0,0,0,0,0,0l0,0c0,0,0,0,0,0C8.1,6.4,8.1,6.5,8,6.6z M8.4,5.1c-0.2,0-0.3,0-0.5,0
		c-0.1,0-0.2,0-0.3,0c0-0.5,0.2-0.8,0.4-1C8.1,4.3,8.3,4.6,8.4,5.1z M7,6.8C7.1,6.9,7.1,7,7.2,7.1C7,7.2,6.7,7.3,6.4,7.2
		c-0.1,0-0.2,0-0.3-0.1c0.1-0.2,0.2-0.5,0.6-0.8C6.8,6.5,6.9,6.6,7,6.8z M6.6,7.9c-0.1,0-0.2,0-0.3,0C6,7.8,5.5,7.7,5.5,7.4
		c0,0,0-1,1.2-1.6c0,0,0,0,0,0c0,0,0,0.1,0,0.1l0,0c0,0.1,0,0.2,0,0.2C6,6.5,5.8,7,5.8,7.2c0,0.1,0,0.1,0.1,0.2
		c0.1,0,0.3,0.1,0.5,0.1c0.1,0,0.2,0,0.3,0c0.4,0,0.8-0.1,1.2-0.4c0,0,0,0,0,0L8,7.1c0,0,0,0,0,0c0.2-0.2,0.4-0.4,0.5-0.6l0,0
		c0.1-0.1,0.1-0.2,0.2-0.3c0,0,0,0,0.1,0l0,0c0.1,0,0.2,0.1,0.2,0.1C8.9,6.3,8.8,6.5,8.7,6.6c0,0,0,0,0,0C8.6,6.9,8.4,7.1,8.2,7.3
		L8.1,7.4C7.6,7.7,7.1,7.9,6.6,7.9z M9,6.7c0.1-0.1,0.1-0.2,0.2-0.4c0.4,0.2,0.6,0.5,0.6,0.7c-0.2,0.1-0.6,0.1-1,0
		C8.9,7,9,6.9,9,6.7z M10.5,7.5c0,0-0.4,0.3-1.1,0.3c-0.3,0-0.6-0.1-1-0.2l-0.1,0c0,0,0,0,0,0l0,0c0,0,0,0,0,0
		c0.1-0.1,0.2-0.1,0.2-0.2c0.3,0.1,0.6,0.2,0.8,0.2c0.3,0,0.5-0.1,0.7-0.1c0.1,0,0.1-0.1,0.1-0.2c-0.1-0.3-0.3-0.8-1.1-1.2
		C9,5.9,8.9,5.8,8.8,5.8l0,0C8.5,5.7,8.2,5.7,8,5.7h0c-0.1,0-0.2,0-0.3,0c0,0,0-0.1,0-0.1c0-0.1,0-0.2,0-0.2c0.1,0,0.2,0,0.3,0
		c0,0,0,0,0,0c0.3,0,0.6,0,1,0.1l0,0l0,0c0.1,0,0.2,0.1,0.3,0.1c1.3,0.6,1.3,1.7,1.3,1.7L10.5,7.5L10.5,7.5z"/>
</g>
<g>
	<path class="st4" d="M7.3,6.6C7.3,6.7,7.4,6.9,7.5,7c0.1,0,0.1-0.1,0.1-0.1l0.1-0.1c0,0,0,0,0,0C7.7,6.7,7.6,6.6,7.5,6.4
		C7.4,6.2,7.3,6,7.3,5.7c0-0.1,0-0.3,0-0.4c0-0.9,0.4-1.3,0.6-1.5c0.1-0.1,0.1-0.1,0.2,0C8.3,4,8.6,4.4,8.7,5.1
		c0.1,0,0.2,0.1,0.3,0.1c0,0,0,0,0,0c0,0,0,0,0,0C9,3.9,8.1,3.4,8,3.4L8,3.4l-0.1,0c0,0-1,0.5-1,1.9c0,0.1,0,0.3,0,0.4
		C7,6.1,7.1,6.3,7.3,6.6z"/>
	<path class="st4" d="M8.7,6.6c0.1-0.1,0.1-0.2,0.2-0.4c-0.1,0-0.2-0.1-0.2-0.1c0,0,0,0-0.1,0c0,0.1-0.1,0.2-0.2,0.3l0,0
		C8.3,6.7,8.2,6.9,8,7.1c0,0,0,0,0,0L7.9,7.1c0,0,0,0,0,0C7.5,7.4,7.1,7.5,6.6,7.5c-0.1,0-0.2,0-0.3,0C6.2,7.5,6,7.5,5.9,7.4
		c-0.1,0-0.1-0.1-0.1-0.2C5.8,7,6,6.5,6.7,6c0-0.1,0-0.2,0-0.2c0,0,0-0.1,0-0.1c0,0,0,0,0,0C5.5,6.3,5.5,7.3,5.5,7.4
		c0,0.3,0.5,0.4,0.9,0.5c0.1,0,0.2,0,0.3,0c0.5,0,1-0.2,1.4-0.5l0.1-0.1C8.4,7.1,8.6,6.9,8.7,6.6C8.7,6.6,8.7,6.6,8.7,6.6z"/>
	<path class="st4" d="M9.2,5.6C9.1,5.6,9,5.5,8.9,5.5c-0.3-0.1-0.6-0.1-1-0.1c0,0,0,0,0,0c-0.1,0-0.2,0-0.3,0c0,0.1,0,0.2,0,0.2
		c0,0,0,0.1,0,0.1c0.1,0,0.2,0,0.3,0h0c0.3,0,0.5,0,0.8,0.1c0.1,0,0.2,0.1,0.3,0.1c0.8,0.4,1,0.9,1.1,1.2c0,0.1,0,0.2-0.1,0.2
		C10,7.4,9.7,7.5,9.4,7.5c-0.2,0-0.5,0-0.8-0.2C8.6,7.4,8.5,7.5,8.4,7.5c0,0,0,0,0,0l0,0c0,0,0,0,0,0l0.1,0c0.3,0.1,0.6,0.2,1,0.2
		c0.7,0,1.1-0.3,1.1-0.3l0.1-0.1V7.3C10.5,7.3,10.5,6.2,9.2,5.6z"/>
</g>
</svg>
