<svg xmlns="http://www.w3.org/2000/svg" xmlns:xlink="http://www.w3.org/1999/xlink" version="1.1" x="0px" y="0px" viewBox="0 0 100 125" enable-background="new 0 0 100 100" xml:space="preserve"><g><path d="M94.9,77.3c0-0.8-0.6-20.3-23.6-31.2c-0.4-0.2-0.9-0.4-1.3-0.6c0.6-0.5,0.9-1.2,0.9-2c-0.9-23.7-17.4-32.3-18.1-32.7   l-2.2-1.1c-0.7-0.4-1.5-0.4-2.2,0l-2.2,1.1C45.4,11.2,28,20.2,28,45.5c0,0.6,0,1.2,0,1.8c-0.7-0.3-1.6-0.3-2.3,0.1   C5.2,58.7,5,77.3,5,77.4C4.9,87.6,18.5,89.5,23,90.2c1.8,0.3,3.7,0.4,5.6,0.4c8.3,0,16.6-2.6,24-7.4c0,1,0.6,1.9,1.5,2.3l0.9,0.4   c5.7,2.4,11.4,3.6,17,3.6c11.9,0,19.2-5.5,20-6.1l2-1.5c0.6-0.5,1-1.2,1-2L94.9,77.3z M48.4,15.3l1.1-0.6l1.1,0.6   c0.6,0.3,14.5,7.6,15.3,28.4c0,0.1,0,0.1,0,0.2c-0.2-0.1-0.3-0.1-0.5-0.2c0,0,0,0,0,0c0,0,0,0,0,0c-1.5-0.5-3.1-0.9-4.6-1.3   c-0.8-11.7-6.4-18.1-9.8-20.8c-0.9-0.8-2.3-0.8-3.2,0C44.2,24.7,38,31.9,38,45.5c0,2.1,0.2,4.1,0.5,6.2c0,0,0,0,0,0   c0.7,4.2,2,8,4,11.2c1.2,2.1,2.7,4,4.4,5.8c-0.2,0.2-0.3,0.3-0.5,0.5L45,70.3c-0.7,0.5-1.4,0.9-2.2,1.3c-1.8-1.9-3.3-4-4.6-6.2   c-2.3-3.8-3.9-8.2-4.6-13c0,0,0,0,0,0c-0.4-2.3-0.5-4.6-0.5-6.9C33,23.3,47.8,15.6,48.4,15.3z M50.3,64.9c-1.4-1.4-2.5-2.9-3.5-4.6   c-0.6-1-1.1-2.1-1.6-3.3c1.3-0.2,2.6-0.4,3.8-0.4c0,0,0.1,0,0.1,0l0.6,0c1.7-0.2,3.4-0.2,5.1,0c-0.5,1.3-1.1,2.6-1.8,3.7   c0,0,0,0.1-0.1,0.1l-0.2,0.4c0,0,0,0.1-0.1,0.1C52,62.4,51.2,63.7,50.3,64.9z M55.8,41.7c-2.5-0.2-4.9-0.2-7.4,0   c-1.8,0-3.5,0.2-5.3,0.5c0.7-7.7,3.8-12.5,6.3-15.2C52,29.6,55,34.2,55.8,41.7z M33.9,68c1.2,2.1,2.6,4,4.2,5.8   c-4.3,1.6-8.7,2.1-12.9,1.5c-2-0.3-3.5-0.6-4.5-0.9c1-3.3,3.7-8.4,10.2-12.7C31.7,64,32.7,66.1,33.9,68z M28.6,85.6   c-1.6,0-3.3-0.1-4.9-0.3c-5.9-0.8-13.8-2.6-13.7-7.7c0-0.6,0.5-16,18.2-25.7c0.1,0,0.2-0.1,0.2-0.2c0.1,0.5,0.1,1,0.2,1.6   c0,0,0,0,0,0c0.2,1.3,0.4,2.5,0.7,3.7c-10.9,6.5-13.5,15.3-14.2,18.8c-0.2,1.1,0.4,2.3,1.5,2.7c1.7,0.7,4.3,1.4,7.8,1.8   c1.4,0.2,2.8,0.3,4.1,0.3c6.6,0,13.3-2.2,19.3-6.3c0.1,0,0.1-0.1,0.2-0.1l1.5-1.2c0,0,0.1,0,0.1-0.1c3.3-2.9,5.8-6.1,7.5-9.7   l0.2-0.3c1-1.6,1.8-3.4,2.5-5.3c0.3,0.1,0.7,0.2,1,0.3c0,0,0,0,0,0c1.2,0.4,2.5,0.9,3.7,1.5c-0.8,2.1-1.7,4.1-2.8,6   c0,0.1-0.1,0.1-0.1,0.2c-2,4.1-4.9,7.9-8.6,11.1l-2.1,1.7C43.9,83.1,36.3,85.6,28.6,85.6z M66,67.8c1.1-1.9,2.1-3.9,2.9-6   c5.9,3.8,8.7,8.3,10,11.6c-3.4,1.1-8.8,1.8-15.8-0.6C64.2,71.2,65.2,69.6,66,67.8z M89,79.4c-0.3,0.2-6.6,5-17,5   c-4.9,0-10-1.1-15-3.2l-0.8-0.4c-0.1,0-0.2-0.1-0.3-0.1l0.2-0.2c0,0,0.1,0,0.1-0.1c1.3-1.1,2.5-2.3,3.6-3.6   c4.7,1.8,8.8,2.5,12.3,2.5c4.9,0,8.6-1.2,10.9-2.3c1.1-0.5,1.7-1.7,1.4-2.9c-1.2-4.7-5-13.3-17.3-19.2c-1.5-0.7-3.1-1.4-4.7-1.9   c0,0,0,0,0,0c-4.5-1.5-8.9-2-13.1-1.5l-0.4,0c-1.7,0-3.4,0.2-5.1,0.6c-0.1-0.4-0.2-0.9-0.3-1.3c-0.2-1.2-0.3-2.4-0.4-3.6   c1.8-0.3,3.7-0.5,5.5-0.6c0.1,0,0.1,0,0.2,0c4.9-0.5,10,0.1,15.1,1.8c0,0,0,0,0,0c0,0,0,0,0,0c1.8,0.6,3.6,1.3,5.3,2.1   c20.2,9.6,20.7,26.6,20.7,26.8l0,1.2L89,79.4z"/></g><text x="0" y="115" fill="#000000" font-size="5px" font-weight="bold" font-family="'Helvetica Neue', Helvetica, Arial-Unicode, Arial, Sans-serif">Created by Erich Grois</text><text x="0" y="120" fill="#000000" font-size="5px" font-weight="bold" font-family="'Helvetica Neue', Helvetica, Arial-Unicode, Arial, Sans-serif">from the Noun Project</text></svg>