<?xml version="1.0" encoding="utf-8"?>
<!-- Generator: Adobe Illustrator 21.1.0, SVG Export Plug-In . SVG Version: 6.00 Build 0)  -->
<svg version="1.1" id="Layer_1" xmlns="http://www.w3.org/2000/svg" xmlns:xlink="http://www.w3.org/1999/xlink" x="0px" y="0px"
	 width="52px" height="84px" viewBox="0 0 52 84" style="enable-background:new 0 0 52 84;" xml:space="preserve">
<style type="text/css">
	.st0{fill:#FFFFFF;}
</style>
<circle class="st0" cx="731" cy="433.9" r="350"/>
<path d="M825.7,295c-0.1,33.8-20.3,63.3-51.7,73c-20.6,6.4-40.3,4-58.3-8.2c-20-13.5-26.7-41.7-15.4-62.7
	c7.7-14.5,23.8-20.7,37.1-14.3c5.1,2.4,8.9,6,9.6,11.9c0.7,5.8-1,9.6-6.7,10.5c-11.8,2-11.3,14.9-3.4,21.4
	c8.9,7.3,23.3,6.6,33.2-1.6c12.3-10.2,17.2-28,12.2-44.1c-10.2-32.6-48.3-49.2-81.6-35.7c-31.5,12.7-51.8,48.7-47.3,83.6
	c5.8,44.6,39.6,77.3,85.1,83c18.4,2.3,36.2-0.1,53.7-5.6c15.8-4.9,31.7-8.9,48.5-8.4c57.2,1.5,106.4,39.8,119.8,93.7
	c13.3,53.6-12,106.8-60.9,126.7c-31.5,12.8-62.2,10.5-90.2-9.6c-31.4-22.5-41.3-64.1-23.2-96.4c11.5-20.5,28.7-32.8,53.2-31.4
	c16,0.9,28.7,8.1,37,22.1c5.6,9.4,6.8,19.5,2.4,29.7c-3.3,7.7-9.2,12.6-17.7,13.6c-8.5,1-13.4-4.5-11.3-12.7
	c1.2-4.7,1.2-8.9-3.1-12.2c-4.3-3.3-8.9-3.2-13.6-1c-12.2,5.7-18.1,20.8-13.7,35c5.9,19.1,27.4,32,48.2,29
	c35.4-5.2,59.8-39.6,53.8-75.8c-6.4-38.6-39.7-67.3-79.6-68.7c-46-1.6-85.1,25.8-99.9,70.4c-4.1,12.5-7.1,25.3-11,37.9
	c-15.4,48.9-63.7,85.9-114.9,88.4c-50.1,2.4-99.1-30.4-113.6-76.1c-12-37.6-0.6-80,28.1-104.4c29.2-24.9,71.1-26.4,100.7-4.2
	c27.9,20.9,28.5,55.3,18.5,76.8c-9.1,19.6-32,29.7-51.9,23c-12.7-4.2-20.8-17.7-18.1-30.3c1-4.6,3.4-7.9,8-9.3
	c4.4-1.3,7.6,0.3,10.6,3.5c5.9,6.2,15,3.7,17.6-4.6c3.3-10.8-4.6-26.4-16.1-31.3c-13.6-5.8-26.4-3.8-38.3,4.6
	c-21.6,15.2-28.6,43.7-17.2,68.7c12.7,27.8,46,45.6,76.7,41.2c40.6-5.9,70.8-37.4,75.8-78.3c3.8-31.4-4.3-58.7-25.8-81.9
	c-7.1-7.7-14.5-15.1-21.8-22.7c-19.5-20.3-33.2-43.7-37-72.1c-8.9-65.7,28.5-121.4,85.3-135.9c38-9.7,72.5-2,101.2,25.7
	C817.1,246.3,825.5,268.2,825.7,295z"/>
</svg>
