<?xml version="1.0" encoding="utf-8"?>
<!-- Generator: Adobe Illustrator 21.1.0, SVG Export Plug-In . SVG Version: 6.00 Build 0)  -->
<svg version="1.1" id="Layer_1" xmlns="http://www.w3.org/2000/svg" xmlns:xlink="http://www.w3.org/1999/xlink" x="0px" y="0px"
	 width="12px" height="16px" viewBox="0 0 12 16" style="enable-background:new 0 0 12 16;" xml:space="preserve">
<style type="text/css">
	.st0{fill:#024833;}
	.st1{fill:#FFFFFF;}
	.st2{display:none;}
	.st3{display:inline;fill:#010101;stroke:#010101;stroke-width:0.11;stroke-miterlimit:10;}
	.st4{fill:none;stroke:#000000;stroke-width:0.75;stroke-linecap:round;stroke-linejoin:round;stroke-miterlimit:10;}
</style>
<path class="st0" d="M6,0C2.7,0,0,2.7,0,6c0,3.9,4.3,8.7,5,9.4C5.3,15.7,5.5,16,6,16s0.7-0.3,1-0.6c0.7-0.7,5-5.5,5-9.4
	C12,2.7,9.3,0,6,0z"/>
<circle class="st1" cx="6" cy="6" r="4"/>
<g class="st2">
	<path class="st3" d="M5.3,6.6c0,0.1,0.1,0.3,0.2,0.4c0.1,0,0.1-0.1,0.1-0.1l0.1-0.1l0,0c0-0.1-0.1-0.2-0.2-0.4
		C5.4,6.2,5.3,6,5.3,5.7c0-0.1,0-0.3,0-0.4c0-0.9,0.4-1.3,0.6-1.5C6,3.7,6,3.7,6.1,3.8C6.3,4,6.6,4.4,6.7,5.1c0.1,0,0.2,0.1,0.3,0.1
		l0,0l0,0c0-1.3-0.9-1.8-1-1.8l0,0H5.9c0,0-1,0.5-1,1.9c0,0.1,0,0.3,0,0.4C5,6.1,5.1,6.3,5.3,6.6z"/>
	<path class="st3" d="M6.7,6.6c0.1-0.1,0.1-0.2,0.2-0.4c-0.1,0-0.2-0.1-0.2-0.1s0,0-0.1,0c0,0.1-0.1,0.2-0.2,0.3l0,0
		C6.3,6.7,6.2,6.9,6,7.1l0,0H5.9l0,0C5.5,7.4,5.1,7.5,4.6,7.5c-0.1,0-0.2,0-0.3,0c-0.1,0-0.3,0-0.4-0.1c-0.1,0-0.1-0.1-0.1-0.2
		C3.8,7,4,6.5,4.7,6c0-0.1,0-0.2,0-0.2V5.7l0,0C3.5,6.3,3.5,7.3,3.5,7.4c0,0.3,0.5,0.4,0.9,0.5c0.1,0,0.2,0,0.3,0
		c0.5,0,1-0.2,1.4-0.5l0.1-0.1C6.4,7.1,6.6,6.9,6.7,6.6L6.7,6.6z"/>
	<path class="st3" d="M7.2,5.6C7.1,5.6,7,5.5,6.9,5.5c-0.3-0.1-0.6-0.1-1-0.1l0,0c-0.1,0-0.2,0-0.3,0c0,0.1,0,0.2,0,0.2v0.1
		c0.1,0,0.2,0,0.3,0l0,0c0.3,0,0.5,0,0.8,0.1c0.1,0,0.2,0.1,0.3,0.1c0.8,0.4,1,0.9,1.1,1.2c0,0.1,0,0.2-0.1,0.2
		c0,0.1-0.3,0.2-0.6,0.2c-0.2,0-0.5,0-0.8-0.2c0,0.1-0.1,0.2-0.2,0.2l0,0l0,0l0,0h0.1c0.3,0.1,0.6,0.2,1,0.2c0.7,0,1.1-0.3,1.1-0.3
		l0.1-0.1v0C8.5,7.3,8.5,6.2,7.2,5.6z"/>
</g>
<path class="st4" d="M7.8,6.4C7.7,6.3,7.5,6.3,7.4,6.2C7.6,6.1,7.8,5.9,8,5.8C7.7,5.6,7.4,5.4,7,5.3c0-0.1,0-0.1,0.1-0.1
	c0.1,0,0.2-0.1,0.2-0.1c0.1,0,0.2,0,0.2-0.1C7.5,5,7.3,4.9,7.2,4.8C7.1,4.7,6.9,4.7,6.8,4.6C6.7,4.5,6.5,4.5,6.4,4.3
	c0.2-0.1,0.5-0.1,0.7,0h0.1V4.2C7,3.9,6.9,3.8,6.7,3.7C6.4,3.5,6.2,3.2,6,2.9c0,0,0-0.1-0.1-0.1c0,0.3-0.1,0.6-0.3,0.9
	C5.5,3.9,5.1,4,4.9,4.2c0.2,0.1,0.4,0.2,0.6,0.3c0,0.1,0,0.1-0.1,0.1C5.1,4.7,4.8,4.9,4.5,5c0.1,0,0.1,0,0.2,0.1S4.9,5.2,5,5.3
	C4.7,5.4,4.5,5.6,4.3,5.7L4.2,5.8c0,0.2,0,0.3,0.1,0.5c0,0,0,0,0,0.1C4,6.6,3.8,6.9,3.6,7.2c0,0,0.1,0,0.1,0.1
	c0.5,0.2,1.1,0.3,1.7,0.3c0,0.3,0,0.7-0.3,0.9c0,0,0.1,0,0.1,0.1c0.2,0.1,0.4,0.2,0.5,0.2s0.2,0.1,0.4,0.1c0.1,0,0.1,0,0.2,0
	s0.1,0,0.2,0C6.7,8.8,6.9,8.7,7,8.5C6.7,8.3,6.6,8,6.6,7.7h0.1c0.4,0,0.8-0.1,1.1-0.3C8.1,7.2,8.3,7,8.4,6.8C8.2,6.6,8,6.5,7.8,6.4z
	"/>
</svg>
