<svg id="Layer_2" data-name="Layer 2" xmlns="http://www.w3.org/2000/svg" width="54.2377" height="53.5927" viewBox="0 0 54.2377 53.5927"><title>rock-02</title><path d="M5.2553,3.887a.8665.8665,0,0,0-.4441.1214.8439.8439,0,0,0-.2722.4488,4.7,4.7,0,0,0-.2167,1.7786l3.0472.39a14.0288,14.0288,0,0,1,.0431,4.3021,11.4031,11.4031,0,0,0,3.92,1.147c.6065-.9559-.108-2.172-.2113-3.2993-.0533-.5818.0642-1.1653.0674-1.75a2.0228,2.0228,0,0,0-.5853-1.5913A3.78,3.78,0,0,0,9.1574,4.9C7.67,4.4723,6.9351,3.7605,5.2553,3.887Z" transform="translate(-0.9385 -0.5752)" fill="#757575"/><path d="M3.936,24.4125a.5049.5049,0,0,0,.0126.276c.0729.1635.2846.2.463.2139.7016.0554,1.585.0086,1.8644-.6374a1.7091,1.7091,0,0,0,.0927-.6877c-.0026-.9191.7209-5.3554-1.2033-4.6851C4.014,19.2934,4.0876,23.3393,3.936,24.4125Z" transform="translate(-0.9385 -0.5752)" fill="#757575"/><path d="M15.3921,24.4784a5.6751,5.6751,0,0,0,2.4974.5614.39.39,0,0,0,.3067-.0823.369.369,0,0,0,.0641-.2716,26.0422,26.0422,0,0,1-.4866-2.6332c.052-.9266.6847-1.8045.4968-2.7134-.4112-1.9888-3.95-2.4016-4.6017-.46C13.081,20.63,13.7293,23.6041,15.3921,24.4784Z" transform="translate(-0.9385 -0.5752)" fill="#757575"/><path d="M9.6681,29.6751a3.8419,3.8419,0,0,0-.1163,1.8085,3.6786,3.6786,0,0,1-.102,2.1508c-.3266.6257-1.0944,1.1751-.8614,1.8413a2.0115,2.0115,0,0,0,1.232.52,1.3983,1.3983,0,0,0,1.1011-.8681,5.5916,5.5916,0,0,0,.34-1.428,10.3663,10.3663,0,0,1,.6147-2.154,4.0082,4.0082,0,0,0,.4865-1.8726C12.1866,28.0156,10.1266,28.4483,9.6681,29.6751Z" transform="translate(-0.9385 -0.5752)" fill="#a3a3a3"/><path d="M7.7883,47.4695a6.55,6.55,0,0,0,1.8669.2152c1.6909.1931,3.0981,1.6654,4.7989,1.605a.5439.5439,0,0,0,.3793-.1228.5973.5973,0,0,0,.1274-.3253,4.1316,4.1316,0,0,0-.2578-2.9929,4.2323,4.2323,0,0,0-1.7907-1.3056,10.1294,10.1294,0,0,0-1.6733-.6927c-1.0225-.2863-3.0985-.3731-3.9531.4351A2.0524,2.0524,0,0,0,7.7883,47.4695Z" transform="translate(-0.9385 -0.5752)" fill="#757575"/><path d="M17.8043,39.7749c.4437.6087,1.6474.3358,1.9165,1.0394a1.5239,1.5239,0,0,1,.0457.5725A3.2318,3.2318,0,0,0,22.558,44.54a.5548.5548,0,0,0,.5155-.1409c.14-.1873.02-.4518-.1067-.648a10.7469,10.7469,0,0,1-1.2017-2.0048,2.1646,2.1646,0,0,1,.2706-2.2076C24.5852,36.8118,16.0463,37.3632,17.8043,39.7749Z" transform="translate(-0.9385 -0.5752)" fill="#757575"/><path d="M28.6158,48.5246a1.0516,1.0516,0,0,0,.6008,1.3942,2.2259,2.2259,0,0,0,1.671-.1329,12.13,12.13,0,0,1,1.5833-.6681,8.4458,8.4458,0,0,1,2.2258-.07,3.5623,3.5623,0,0,1-.16,2.7044,2.6411,2.6411,0,0,1-1.899,1.0539A13.1646,13.1646,0,0,1,30.4,52.7871a24.3946,24.3946,0,0,0-4.89.5164c-1.0121.167-1.546.574-1.5346-.4858.008-.7425,1.2661-1.7629,1.7172-2.2811a12.5885,12.5885,0,0,1,1.2485-1.5409A6.2347,6.2347,0,0,1,28.6158,48.5246Z" transform="translate(-0.9385 -0.5752)" fill="#757575"/><path d="M18.1294,10.8632a1.6708,1.6708,0,0,0,.5114,2.4293c.8079.31,1.8076-.2871,2.5476.1612a1.53,1.53,0,0,1,.6075.8639c.1787.5523.1888,1.1545.42,1.6868a1.202,1.202,0,0,0,1.3628.7987.8247.8247,0,0,0,.4011-1.1616,2.3825,2.3825,0,0,0-.34-.3727,2.385,2.385,0,0,1-.61-2.1486,3.0079,3.0079,0,0,0,.227-1.383c-.2141-.8108-1.847-1.2759-2.54-1.5646C19.6211,9.7163,18.9865,9.5555,18.1294,10.8632Z" transform="translate(-0.9385 -0.5752)" fill="#e8e8e8"/><path d="M19.6229,5.4628a7.7248,7.7248,0,0,0,1.6156.0751c2.1382.1267,3.8709,2.3034,5.9967,2.0412a.7872.7872,0,0,0-.4013-.731,5.8222,5.8222,0,0,1-.7408-.4767c-.5807-.5481-.4076-1.4894-.2521-2.2727a1.2848,1.2848,0,0,0-.013-.7683,1.3564,1.3564,0,0,0-.9722-.6038l-1.3418-.3575c-.8827-.2352-1.1.3285-1.863.5054-.4293.1-1.1868-.114-1.5465.0463C19.3249,3.2683,18.2707,5.0881,19.6229,5.4628Z" transform="translate(-0.9385 -0.5752)" fill="#a3a3a3"/><path d="M31.4574,7.5118c-.0573.3556.0449.719.0178,1.0782-.085,1.1292-1.3061,1.7467-2.0891,2.5647a3.87,3.87,0,0,0-.9972,1.9281,1.0682,1.0682,0,0,0-.0013.5229c.1381.4361.6759.5737,1.1282.6421a10.3971,10.3971,0,0,0,2.8162.167A3.5051,3.5051,0,0,0,34.765,13.13c.5669-.7782.6786-1.836,1.3183-2.5557a12.1551,12.1551,0,0,1,2.1974-1.4181,4.5684,4.5684,0,0,0,1.5041-2.0573,1.3841,1.3841,0,0,0,.0937-1.0248c-.2228-.5289-.9154-.6312-1.489-.65C36.2888,5.3569,31.9764,4.29,31.4574,7.5118Z" transform="translate(-0.9385 -0.5752)" fill="#757575"/><path d="M27.378,24.1008A3.8261,3.8261,0,0,0,28.79,26.586a5.2987,5.2987,0,0,0,2.4531.7894,2.7422,2.7422,0,0,0,1.102-.0108.9943.9943,0,0,0,.7437-.7414c.08-.5237-.3887-.9447-.6894-1.3809-.9494-1.3767-.33-3.4317-1.3265-4.775-.9509-1.2822-3.4146-1.7744-4.4705-.4177a3.759,3.759,0,0,0-.5837,2.2728C26.3008,23.1857,27.2054,23.0878,27.378,24.1008Z" transform="translate(-0.9385 -0.5752)" fill="#757575"/><path d="M17.6131,29.6741a1.5549,1.5549,0,0,0,.3883,1.9113,3.2181,3.2181,0,0,0,1.9688.681,6.9633,6.9633,0,0,1,2.427.3029,6.1516,6.1516,0,0,1,1.2646.89,9.9407,9.9407,0,0,0,5.24,2.1009,1.242,1.242,0,0,0,.9931-.2132.9274.9274,0,0,0-.0155-1.1812,3.6619,3.6619,0,0,0-1.0121-.7894,6.8485,6.8485,0,0,1-2.3494-2.6019,2.8231,2.8231,0,0,0-.6139-.9364C24.326,28.5236,19.4935,29.7665,17.6131,29.6741Z" transform="translate(-0.9385 -0.5752)" fill="#e8e8e8"/><path d="M31.0969,41.4613c-.2681.3887-.6675.7407-.6845,1.2126-.0287.799.9775,1.156,1.7685,1.2723l3.51.5163a1.1579,1.1579,0,0,1,.4392.1258,1.2583,1.2583,0,0,1,.4122.5663A6.037,6.037,0,0,0,40.4015,48.46.89.89,0,0,0,41,48.4483a.9736.9736,0,0,0,.33-.3327,3.496,3.496,0,0,0,.93-2.5758c-.3217-1.563-2.5217-2.0119-3.1449-3.481-.5355-1.2626.3088-2.6827.2455-4.0527-.8635-.4406-1.9771-.8615-2.7276-.2479a2.5253,2.5253,0,0,0-.5873.8363c-.479.9294-.9692,2.841-2.2334,2.7912C32.4581,41.3324,32.3157,39.6932,31.0969,41.4613Z" transform="translate(-0.9385 -0.5752)" fill="#757575"/><path d="M45.5641,48.0229c.11.19.3.3216.4273.5.3776.5283.1177,1.256.1616,1.9039a.5815.5815,0,0,0,.16.4131.6809.6809,0,0,0,.4638.1057l1.3991-.0233a4.4423,4.4423,0,0,0,.2143-2.3374,4.6964,4.6964,0,0,1-.2-1.6369c.1519-.8421,1.2618-3.4459-.9355-2.7989C46.3451,44.4174,45.117,47.2488,45.5641,48.0229Z" transform="translate(-0.9385 -0.5752)" fill="#a3a3a3"/><path d="M34.3247,31.229a1.5392,1.5392,0,0,0-.7737,1.953,2.4929,2.4929,0,0,0,2.1354,1.2087c1.1917.1223,2.405-.0685,3.588.12,1.8358.2931,3.43,1.47,5.2549,1.8249a1.6569,1.6569,0,0,0,1.1212-.0812.6958.6958,0,0,0,.2883-.9685,1.0333,1.0333,0,0,0-.3955-.2674,51.2668,51.2668,0,0,0-5.911-2.479C38.4744,32.1646,35.4658,30.74,34.3247,31.229Z" transform="translate(-0.9385 -0.5752)" fill="#a3a3a3"/><path d="M38.0945,23.8731a3.6241,3.6241,0,0,0,.7824.3788c.5193.2884.6984.93,1.0006,1.4418s1.0125.9383,1.4567.5439c.3523-.3129.2326-.8988-.0207-1.2961a3.7579,3.7579,0,0,1-.7054-1.2114c-.1783-.9387.1414-2.895-1.452-2.831C38.0749,20.9424,37.3155,23.1462,38.0945,23.8731Z" transform="translate(-0.9385 -0.5752)" fill="#a3a3a3"/><path d="M44.9454,28.9661a2.6668,2.6668,0,0,0,.3166-.982,16.2447,16.2447,0,0,0,.2173-3.5561,1.7841,1.7841,0,0,1,.0463-.664,1.0152,1.0152,0,0,1,1.3564-.5072,1.4487,1.4487,0,0,1,.7579,1.345,6.846,6.846,0,0,0-.1013,1.3259c.163.9132,1.2286,1.284,2.0531,1.709a5.67,5.67,0,0,1,2.8365,3.5472,1.7612,1.7612,0,0,1-.41,1.9272,1.87,1.87,0,0,1-.8972.25,12.2826,12.2826,0,0,1-6.779-1.3526C41.9675,30.76,44.2019,30.1465,44.9454,28.9661Z" transform="translate(-0.9385 -0.5752)" fill="#757575"/><path d="M43.5574,18.1827a5.7178,5.7178,0,0,0,3.2614.529c.2479-.4856-.1408-1.0656-.593-1.37-1.9682-1.3257-2.7669-4.7033-5.908-3.4524-.8755.3486-1.6379,1.0676-1.226,2.0851C39.563,17.1378,42.4511,17.7217,43.5574,18.1827Z" transform="translate(-0.9385 -0.5752)" fill="#757575"/><path d="M43.7144,4.696c.01.5426-.1977,1.0756-.1579,1.6168.0977,1.3288,1.5359,2.0736,2.3344,3.14.8524,1.1386.9786,2.6967,1.829,3.8369.409.5483,1.2582.9693,1.7345.4783a1.3987,1.3987,0,0,0,.2551-.4363c.4758-1.1086.8884-2.4368.261-3.4672-.3877-.6368-1.0987-1.0108-1.54-1.6114-.6657-.9052-.6093-2.1451-1.0319-3.1862a4.8853,4.8853,0,0,0-2.89-2.5679,14.1526,14.1526,0,0,0-3.9046-.6837c-.2137-.0167.2867.8839.4214.9851.1944.1461.7979-.1234,1.0659-.0229A2.169,2.169,0,0,1,43.7144,4.696Z" transform="translate(-0.9385 -0.5752)" fill="#e8e8e8"/><path d="M52.4793,15.6537A6.7269,6.7269,0,0,0,50.6,18.2356a.7529.7529,0,0,0-.0786.4089c.0377.2106.231.35.38.5033a4.4569,4.4569,0,0,1,.7417,2.1845c.184.7586.8136,1.5859,1.57,1.393a1.2056,1.2056,0,0,0,.7912-.8517,3.5283,3.5283,0,0,0,.0749-1.207,7.6268,7.6268,0,0,1,.148-2.5609,5.4568,5.4568,0,0,0,.3769-1.4137A1.3307,1.3307,0,0,0,52.4793,15.6537Z" transform="translate(-0.9385 -0.5752)" fill="#a3a3a3"/><path d="M49.9924,37.6127c-.8786.5381-1.8176,1.2408-2.8265,1.0324a2.0361,2.0361,0,0,0-.1613,1.1631l2.7462.4805a1.6917,1.6917,0,0,1,.6228.1948,1.5709,1.5709,0,0,1,.4255.458,14.9124,14.9124,0,0,0,1.3239,1.8493,2.645,2.645,0,0,0,1.998.9321.7158.7158,0,0,0,.3982-.1223.8972.8972,0,0,0,.2378-.7117l.05-1.67a6.85,6.85,0,0,0-.2272-2.47C53.8966,36.7907,51.5662,36.6488,49.9924,37.6127Z" transform="translate(-0.9385 -0.5752)" fill="#e8e8e8"/><path d="M5.9195,50.9905,4.9132,49.7a2.6707,2.6707,0,0,0-.4847-.5189,1.3888,1.3888,0,0,0-1.9318.3688c-.5455.8854.1284,2.079,1.0317,2.5944a23.9406,23.9406,0,0,0,2.9448,1.0093,7.6861,7.6861,0,0,0,1.3363.5208,1.3137,1.3137,0,0,0,1.309-.3774,1.2533,1.2533,0,0,0-.3126-1.6217,3.6481,3.6481,0,0,0-1.6725-.665L5.3984,50.638" transform="translate(-0.9385 -0.5752)" fill="#e8e8e8"/><path d="M17,50.3418c-.4869.6669-1.3191,1.2323-1.255,2.0556a.5053.5053,0,0,0,.1282.3274.6521.6521,0,0,0,.3583.14q.8938.1518,1.7955.2507a1.4177,1.4177,0,0,0,.68-.0389,1.3982,1.3982,0,0,0,.5229-.4475,18.9794,18.9794,0,0,0,1.3069-1.7858c.6951-1.0763,1.2858-2.9093-.4073-3.3807C18.2066,46.9267,17.8045,49.24,17,50.3418Z" transform="translate(-0.9385 -0.5752)" fill="#a3a3a3"/><path d="M2.1,39.278A5.2151,5.2151,0,0,0,1.83,40.9387a.8331.8331,0,0,0,.1369.4662,1.0035,1.0035,0,0,0,.8288.26l2.184,0a1.1718,1.1718,0,0,0,.6337-.12,1.0854,1.0854,0,0,0,.3915-.7919c.2245-1.4623.9955-5.729-.5942-6.52C2.8255,32.9466,2.5023,37.8236,2.1,39.278Z" transform="translate(-0.9385 -0.5752)" fill="#757575"/><path d="M5.913,15.1779C6.6269,13.38,3.15,11.1514,1.7393,12.4346-.1368,14.1409,6.1992,14.457,5.913,15.1779Z" transform="translate(-0.9385 -0.5752)" fill="#e8e8e8"/><path d="M14.2444,2.7125a2.12,2.12,0,0,0-1.2564.021.7335.7335,0,0,0-.3713,1.0421.9609.9609,0,0,0,.3238.2333,5.4158,5.4158,0,0,0,1.8431.5557,1.5653,1.5653,0,0,0-.3816-1.49" transform="translate(-0.9385 -0.5752)" fill="#e8e8e8"/><path d="M16.8559,7.0175a3.6725,3.6725,0,0,0-1.4917.3108L15.39,8.47a1.213,1.213,0,0,0,1.694-1.5566" transform="translate(-0.9385 -0.5752)" fill="#757575"/><path d="M13.0231,13.7723l-2.7909.7555a1.9247,1.9247,0,0,0-.7767.34.6583.6583,0,0,0-.208.7647.9652.9652,0,0,0,.3959.3454,2.926,2.926,0,0,0,1.3123.5083,4.6049,4.6049,0,0,0,1.75-.5512,8.0411,8.0411,0,0,1,2.9587-.3368l2.27.0255C17.93,15,17.22,14.6579,16.6185,14.4917a20.5088,20.5088,0,0,0-3.8522-.6781" transform="translate(-0.9385 -0.5752)" fill="#a3a3a3"/><path d="M23.0061,20.696l-.8307-.0368c-.4152-.0184-.9769.087-.9964.5022-.02.4179.536.5732.954.59l.7638.03a.7057.7057,0,0,0,.5853-.1569.4769.4769,0,0,0-.06-.6021,1.3908,1.3908,0,0,0-.5682-.3236" transform="translate(-0.9385 -0.5752)" fill="#e8e8e8"/><path d="M1.5562,26.732a1.6792,1.6792,0,0,0-.1253.7871.3436.3436,0,0,0,.0694.2074.3811.3811,0,0,0,.163.0893l1.0187.3558a1.4215,1.4215,0,0,0,.5411.1126.484.484,0,0,0,.4388-.2875.6453.6453,0,0,0-.21-.6,2.8882,2.8882,0,0,0-1.8823-.947" transform="translate(-0.9385 -0.5752)" fill="#a3a3a3"/><path d="M5.4314,30.2835l-.4254.014a.9205.9205,0,0,0,.3175.9841A1.9867,1.9867,0,0,0,6.34,31.67a.3945.3945,0,0,0,.27-.0282.408.408,0,0,0,.1217-.1512c.25-.44.496-1.01.196-1.418a1.3485,1.3485,0,0,0-1.1046-.37.9691.9691,0,0,0-.4167.0528.3312.3312,0,0,0-.2115.3317" transform="translate(-0.9385 -0.5752)" fill="#757575"/><path d="M9.9278,25.0847c-.16.0759-.3589-.1283-.5121-.04a.2974.2974,0,0,0-.1139.1805,2.9268,2.9268,0,0,0-.1208,1.1356,5.4711,5.4711,0,0,0,1.415.0287.9953.9953,0,0,0,.8286-.42.74.74,0,0,0-.3974-.92,2.1524,2.1524,0,0,0-1.09-.1369" transform="translate(-0.9385 -0.5752)" fill="#e8e8e8"/><path d="M14.5023,31.7167a.5988.5988,0,0,0-.3824-.0276,5.1338,5.1338,0,0,0-.0582,1.3773,4.0627,4.0627,0,0,0,1.525.1223.3254.3254,0,0,0,.13-.034.2533.2533,0,0,0,.1-.1322.6677.6677,0,0,0-.18-.6732,1.9639,1.9639,0,0,0-.62-.3873l-.416-.1924" transform="translate(-0.9385 -0.5752)" fill="#e8e8e8"/><path d="M9.1638,39.96l.6836.0645a3.0743,3.0743,0,0,1,1.59.4515,5.7413,5.7413,0,0,0,.1541-1.1253c.0317-.8588-1.4933-1.3422-2.216-1.1626C8.5649,38.3891,8.0361,39.8533,9.1638,39.96Z" transform="translate(-0.9385 -0.5752)" fill="#e8e8e8"/><path d="M15.3769,40.6039a2.9184,2.9184,0,0,1-.8657-.0085,1.3249,1.3249,0,0,0-.8406.1458.5574.5574,0,0,0-.1981.7508.8326.8326,0,0,0,.379.24l1.5664.6281a.2261.2261,0,0,0,.112.0238c.0876-.0119.1275-.1145.1442-.2013A2.1037,2.1037,0,0,0,15.3373,40.6" transform="translate(-0.9385 -0.5752)" fill="#e8e8e8"/><path d="M15.69,35.1872a2.8331,2.8331,0,0,0-1.3975.078.9734.9734,0,0,0-.6287,1.12.2383.2383,0,0,0,.0955.1364.2843.2843,0,0,0,.1211.0273,2.667,2.667,0,0,0,1.1271-.0774c.1313-.0487.2543-.1179.3857-.1664a1.9763,1.9763,0,0,1,1.2378.0253c.0946.0282.2181.051.2742-.03a.2085.2085,0,0,0,.0228-.1387,1.0661,1.0661,0,0,0-.8549-.9253" transform="translate(-0.9385 -0.5752)" fill="#a3a3a3"/><path d="M21.9861,35.3515a.3991.3991,0,0,0-.3037.3623c.0075.2439.2867.3713.52.4424.8976.2734,1.7953.591,2.7052.8158A2.6988,2.6988,0,0,0,21.9861,35.3515Z" transform="translate(-0.9385 -0.5752)" fill="#e8e8e8"/><path d="M3.1976,45.728a.1984.1984,0,0,0,.1133.0039.1624.1624,0,0,0,.077-.081.543.543,0,0,0-.2013-.6983c-.2616-.1506-1.3116-.1781-1.4262.24C1.6646,45.5411,2.901,45.6565,3.1976,45.728Z" transform="translate(-0.9385 -0.5752)" fill="#e8e8e8"/><path d="M5.2436,47.3818a1.65,1.65,0,0,0-.6894-.0441.41.41,0,0,0,.1527.4751A1.2,1.2,0,0,0,5.2082,48l1.345.2811c.043-.3656.051-.8113-.2567-1.0132a1.0011,1.0011,0,0,0-.3435-.12l-1.0245-.2222" transform="translate(-0.9385 -0.5752)" fill="#a3a3a3"/><path d="M.9593,53.4567a.3391.3391,0,0,0,.1472.3938.9413.9413,0,0,0,.4348.1228,1.0644,1.0644,0,0,0,.9267-.2076.576.576,0,0,0,.0627-.6542.6133.6133,0,0,0-.5958-.29.8426.8426,0,0,0-.6206.52,2.4858,2.4858,0,0,0-.16.8266" transform="translate(-0.9385 -0.5752)" fill="#757575"/><path d="M11.3861,50.1162a.84.84,0,0,0-.5334-.0341.4369.4369,0,0,0,.1248.5944,2.1467,2.1467,0,0,0,.6237.2621,2.0446,2.0446,0,0,1,.6341.37.3065.3065,0,0,0,.1814.098.22.22,0,0,0,.1707-.108.6022.6022,0,0,0,.017-.5928,1.3587,1.3587,0,0,0-.41-.46,3.8248,3.8248,0,0,0-.6676-.4185" transform="translate(-0.9385 -0.5752)" fill="#e8e8e8"/><path d="M12.4775,53.1381a.8766.8766,0,0,0-.8133-.1375.2705.2705,0,0,0-.0106.4083.782.782,0,0,0,.4305.1734l.6814.1242c.2678.0488.5894.08.7684-.1247a.5209.5209,0,0,0-.0705-.6811,1.1069,1.1069,0,0,0-.6874-.2706,6.0556,6.0556,0,0,1-.75-.0705" transform="translate(-0.9385 -0.5752)" fill="#e8e8e8"/><path d="M21.5913,53.1023a.3248.3248,0,0,0-.4828-.135.6442.6442,0,0,0-.24.51.4644.4644,0,0,0,.1573.43.5341.5341,0,0,0,.2639.0624,8.5171,8.5171,0,0,0,.9287,0,3.3991,3.3991,0,0,0,.0615-1.0377A.1893.1893,0,0,0,22.23,52.8a.1944.1944,0,0,0-.1307-.03l-.5118.007" transform="translate(-0.9385 -0.5752)" fill="#a3a3a3"/><path d="M23.6866,45.7716a2.0133,2.0133,0,0,0-.7869.008.7343.7343,0,0,0,.8531,1.1381.6378.6378,0,0,0,.38-.4216.4984.4984,0,0,0-.1857-.5212" transform="translate(-0.9385 -0.5752)" fill="#e8e8e8"/><path d="M18.2768,44.31a.3149.3149,0,0,0-.4256.1287.8557.8557,0,0,0-.0773.4865.6838.6838,0,0,0,.0476.2582.718.718,0,0,0,.3945.3027,1.3093,1.3093,0,0,0,.578.1547.4484.4484,0,0,0,.4378-.343c.0277-.2117-.1494-.39-.3183-.5209a5.5031,5.5031,0,0,0-.7978-.5135" transform="translate(-0.9385 -0.5752)" fill="#757575"/><path d="M25.0808,41.6883c.8234.2981.6031-1.2054.1773-1.5491a2.041,2.041,0,0,0-1.5088-.3682c-.5741.1777-.419.1806-.1126.5557A4.8368,4.8368,0,0,0,25.0808,41.6883Z" transform="translate(-0.9385 -0.5752)" fill="#a3a3a3"/><path d="M29.06,37.0446a.9415.9415,0,0,0-1.2668,1.1329.4623.4623,0,0,0,.0917.1811.6151.6151,0,0,0,.3193.1532l.4414.1133a2.2446,2.2446,0,0,0,.9117.1039.7655.7655,0,0,0,.6551-.5663.7348.7348,0,0,0-.2828-.6582,1.7141,1.7141,0,0,0-.6776-.3067" transform="translate(-0.9385 -0.5752)" fill="#e8e8e8"/><path d="M27.6068,43.2715l-.6093-.0706a.1953.1953,0,0,0-.2615.1857,1.1887,1.1887,0,0,0,.0931,1.1006,1.0759,1.0759,0,0,0,.3886.2358,1.089,1.089,0,0,0,.6185.1126.7984.7984,0,0,0,.5633-.6072,2.3491,2.3491,0,0,0,.0021-.8681.3338.3338,0,0,0-.0558-.1749.3138.3138,0,0,0-.2087-.0884,2.3858,2.3858,0,0,0-.7866.0243" transform="translate(-0.9385 -0.5752)" fill="#757575"/><path d="M30.6187,46.475a.4051.4051,0,0,0-.5906.1885.5832.5832,0,0,0,.2007.6416,1.0751,1.0751,0,0,0,.6754.2058c.0918.0007.2015-.0165.24-.1a.4419.4419,0,0,0,.0036-.2,2.49,2.49,0,0,1,.08-.3608.5787.5787,0,0,0-.3508-.55,1.6968,1.6968,0,0,0-.68-.1238c-.1449-.0062-.3522.0607-.31.2" transform="translate(-0.9385 -0.5752)" fill="#e8e8e8"/><path d="M35.399,46.3142l-1.24-.0042a.1213.1213,0,0,0-.1529.1318.8469.8469,0,0,0,.09.6075.7374.7374,0,0,0,.2942.2049,1.3536,1.3536,0,0,0,.657.1456.6516.6516,0,0,0,.5468-.3484.4353.4353,0,0,0-.2038-.5723c-.1865-.0715-.45-.0019-.5532-.173" transform="translate(-0.9385 -0.5752)" fill="#a3a3a3"/><path d="M37.6124,52.6l-.7311-.2209a.3914.3914,0,0,0-.2265-.0216c-.1285.04-.1774.1926-.2076.3238-.0748.3251-.115.7417.1674.9194a.8043.8043,0,0,0,.3911.0894q.8767.0469,1.7551.04a.3444.3444,0,0,0,.19-.0387.3156.3156,0,0,0,.1046-.1512,1.0554,1.0554,0,0,0-.0356-.9805.9942.9942,0,0,0-.73-.3871,2.9453,2.9453,0,0,0-.846.0782" transform="translate(-0.9385 -0.5752)" fill="#e8e8e8"/><path d="M41.5645,50.7354a1.9913,1.9913,0,0,0,.8106.4156,5.6653,5.6653,0,0,0,1.4932.2382.3746.3746,0,0,0,.1985-.0329.3885.3885,0,0,0,.14-.1963c.1112-.2579.2165-.5764.0467-.8a.7889.7889,0,0,0-.37-.2265,6.6559,6.6559,0,0,0-2.0072-.7055C41.1676,49.4892,41.1256,50.3213,41.5645,50.7354Z" transform="translate(-0.9385 -0.5752)" fill="#757575"/><path d="M50.6283,52.6744c-.1318-.1965-.4673-.118-.59.0842a1.0758,1.0758,0,0,0-.07.6925.3335.3335,0,0,0,.066.1927.3118.3118,0,0,0,.1195.07,5.2067,5.2067,0,0,0,2.1031.2037,1.0289,1.0289,0,0,0,.4847-.1.5752.5752,0,0,0,.246-.3077.84.84,0,0,0-.3327-.9022,1.7777,1.7777,0,0,0-.9694-.2968,1.74,1.74,0,0,0-1.0651.21c-.246.1606-.4321.4234-.7139.5065" transform="translate(-0.9385 -0.5752)" fill="#a3a3a3"/><path d="M52.1738,46.96a.52.52,0,0,0-.6934.1019,1.5116,1.5116,0,0,0-.2935.71l-.1169.5231a.6394.6394,0,0,0,.0088.4448.5763.5763,0,0,0,.2781.219,3.0177,3.0177,0,0,0,1.3075.2825.4686.4686,0,0,0,.2378-.0484.4927.4927,0,0,0,.1718-.2333,7.5393,7.5393,0,0,0,.3579-.95,1.1184,1.1184,0,0,0-.0333-.9714c-.2658-.3666-.818-.3128-1.2612-.22" transform="translate(-0.9385 -0.5752)" fill="#e8e8e8"/><path d="M44.4555,40.0718l-1.2188.1463c-.2321.0279-.51.0916-.5825.3139-.0918.2825.2286.516.5011.6343a14.88,14.88,0,0,0,2.454.82c.3051-.365.0568-.9473-.3266-1.229s-.8686-.3932-1.2622-.66" transform="translate(-0.9385 -0.5752)" fill="#e8e8e8"/><path d="M34.888,35.7334a2.0831,2.0831,0,0,0-.8161.3554.7116.7116,0,0,0-.2434.7991c.1784.3906.7228.4076,1.1453.3308q.393-.0714.7778-.1808a1.209,1.209,0,0,0,.4379-.1959.7677.7677,0,0,0,.0555-1.059A1.0377,1.0377,0,0,0,35.16,35.52" transform="translate(-0.9385 -0.5752)" fill="#a3a3a3"/><path d="M51.6847,34.8658a15.5842,15.5842,0,0,0-1.629-.007c-.0561.27-.0883.6076.1361.7684a.7237.7237,0,0,0,.3611.1l.7094.0667a1.7676,1.7676,0,0,0,.7838-.0441.5341.5341,0,0,0,.02-1.0426,1.764,1.764,0,0,0-.6218-.0739,1.1272,1.1272,0,0,0-.9051.2747" transform="translate(-0.9385 -0.5752)" fill="#a3a3a3"/><path d="M54.38,26.7162a.6766.6766,0,0,0-.8546.1821.9394.9394,0,0,0-.1565.4971,1.4534,1.4534,0,0,0,.6017,1.287.7286.7286,0,0,0,.4245.14.6865.6865,0,0,0,.54-.3763,1.9958,1.9958,0,0,0,.1884-.6577,1.6268,1.6268,0,0,0-.04-.9641.5693.5693,0,0,0-.8071-.2738" transform="translate(-0.9385 -0.5752)" fill="#e8e8e8"/><path d="M49.8311,22.6132a2.1651,2.1651,0,0,0-.14,1.4158,1.0882,1.0882,0,0,0,1.07.8036.3412.3412,0,0,0,.1912-.07.3667.3667,0,0,0,.0967-.17,1.3455,1.3455,0,0,0-.7922-1.6169,2.5946,2.5946,0,0,0-.3952-.0979L49.33,22.776" transform="translate(-0.9385 -0.5752)" fill="#e8e8e8"/><path d="M30.5343,29.2261a1.2044,1.2044,0,0,0,2.1481,1.0881.3978.3978,0,0,0,.0223-.4207.4478.4478,0,0,0-.2019-.1261,6.029,6.029,0,0,0-2.4919-.4008" transform="translate(-0.9385 -0.5752)" fill="#e8e8e8"/><path d="M17.5174,28.2732l.68-.0208a.356.356,0,0,0,.387-.2318.9953.9953,0,0,0,.1845-.6186c-.0643-.4052-.559-.5561-.9639-.6221-.5182-.0845-1.5438-.1227-1.6944.5757C15.9357,28.1678,16.9834,28.29,17.5174,28.2732Z" transform="translate(-0.9385 -0.5752)" fill="#757575"/><path d="M22.1287,25.0029a.9539.9539,0,0,0-.6464.9555c.0779.494.6318.7458,1.1193.8575a11.5032,11.5032,0,0,0,4.19.004,1.1723,1.1723,0,0,0,.4369-.1233.4082.4082,0,0,0,.2176-.3734.58.58,0,0,0-.28-.3658A5.9179,5.9179,0,0,0,22.1287,25.0029Z" transform="translate(-0.9385 -0.5752)" fill="#a3a3a3"/><path d="M36.5286,26.1289a.5969.5969,0,0,0-.6861.1291,1.1382,1.1382,0,0,0-.2913.6754,1.521,1.521,0,0,0,.019.5428,1.5985,1.5985,0,0,0,1.0855,1.0629,4.7172,4.7172,0,0,0,1.5706.159.3969.3969,0,0,0,.2569-.063.366.366,0,0,0,.1-.1957,2.07,2.07,0,0,0-.4711-1.9539,3.5462,3.5462,0,0,0-2.5217-.7052" transform="translate(-0.9385 -0.5752)" fill="#e8e8e8"/><path d="M42.1785,28.5087l-1.6717.0021c-.2618,0-.5822.0373-.6841.2783a.4477.4477,0,0,0,.1376.4833,1.0824,1.0824,0,0,0,.4817.2213,4.071,4.071,0,0,0,1.6709.0592.41.41,0,0,0,.18-.0629.4327.4327,0,0,0,.1249-.2043,1.031,1.031,0,0,0,.0426-.919" transform="translate(-0.9385 -0.5752)" fill="#757575"/><path d="M33.4255,18.6842a1.9261,1.9261,0,0,0,.575,2.1984.3259.3259,0,0,0,.2394.0916.3342.3342,0,0,0,.18-.122,2.8947,2.8947,0,0,0,.7335-2.1771.2815.2815,0,0,0-.05-.1611.2942.2942,0,0,0-.2011-.0758,12.7971,12.7971,0,0,0-1.5287-.0694c-.127.0018-.3049.0774-.2542.1939" transform="translate(-0.9385 -0.5752)" fill="#e8e8e8"/><path d="M27.7314,15.5954a.5058.5058,0,0,0-.5815.1618.8973.8973,0,0,0-.17.6124,1.443,1.443,0,0,0,.8554,1.2474,1.1155,1.1155,0,0,0,.9688-.0351.829.829,0,0,0,.4136-.8447,1.0068,1.0068,0,0,0-.65-.6849,4.3387,4.3387,0,0,0-.9627-.1953" transform="translate(-0.9385 -0.5752)" fill="#a3a3a3"/><path d="M43.6295,20.2947l-.8163-.2458c-.1267-.0381-.287-.0671-.3716.0346a.3378.3378,0,0,0-.0564.1994q-.0307.49-.0182.9808a.43.43,0,0,0,.0439.2149.4094.4094,0,0,0,.2141.1478,5.7887,5.7887,0,0,0,2.4169.213,1.63,1.63,0,0,0-.6113-1.2209,4.829,4.829,0,0,0-1.2185-.7" transform="translate(-0.9385 -0.5752)" fill="#a3a3a3"/><path d="M48.5783,19.89a4.025,4.025,0,0,0-1.3021-.1781.8166.8166,0,0,0,.0477.9386,1.1276,1.1276,0,0,0,.8815.4087.6114.6114,0,0,0,.4732-.1654.7727.7727,0,0,0,.137-.2886,1.3987,1.3987,0,0,0,.0945-.5631.477.477,0,0,0-.33-.4262" transform="translate(-0.9385 -0.5752)" fill="#e8e8e8"/><path d="M36.094,15.2784a.9035.9035,0,0,0-.9687.448.28.28,0,0,0-.0337.2332c.0392.0921.149.1271.2461.1516a2.4792,2.4792,0,0,0,1.1966.1.8511.8511,0,0,0,.6877-.8655.3881.3881,0,0,0-.1679-.2807.5575.5575,0,0,0-.25-.0562,1.4012,1.4012,0,0,0-1.2233.3153" transform="translate(-0.9385 -0.5752)" fill="#e8e8e8"/><path d="M39.5729,10.0339a1.14,1.14,0,0,0-1.2865.4593.9919.9919,0,0,0,.2746,1.3023,1.4935,1.4935,0,0,0,.5744.1927,4.4175,4.4175,0,0,0,.9229.0545.5613.5613,0,0,0,.2815-.0664.5453.5453,0,0,0,.1842-.2578,2.9593,2.9593,0,0,0,.1937-.6517.4437.4437,0,0,0-.0091-.254.4176.4176,0,0,0-.2025-.1836,1.5918,1.5918,0,0,0-.8613-.1758" transform="translate(-0.9385 -0.5752)" fill="#a3a3a3"/><path d="M44.1538,11.3a4.45,4.45,0,0,0-1.5762-.1437.2954.2954,0,0,0-.1492.0417.2628.2628,0,0,0-.0756.1005,1.0768,1.0768,0,0,0,.0563,1.0064,1.3939,1.3939,0,0,0,.8244.61,3.2554,3.2554,0,0,0,.8225.0865.7115.7115,0,0,0,.6094-.1857.6379.6379,0,0,0-.0878-.6936,2.825,2.825,0,0,0-.8674-.865" transform="translate(-0.9385 -0.5752)" fill="#757575"/><path d="M53.8947,10.7152a1.1262,1.1262,0,0,0-1.2015.2385.757.757,0,0,0,.1289,1.1242,1.01,1.01,0,0,0,.4066.1036.798.798,0,0,0,.7791-.2777.913.913,0,0,0,.0922-.3923l.047-.5726c.0125-.1523-.0387-.37-.19-.3474" transform="translate(-0.9385 -0.5752)" fill="#a3a3a3"/><path d="M51.8919,5.4766a1.6067,1.6067,0,0,0-.6011.1322.5951.5951,0,0,0-.3479.4772A.5947.5947,0,0,0,51.25,6.59a1.5968,1.5968,0,0,0,.5877.18,3.9552,3.9552,0,0,0,1.7806-.0319.5209.5209,0,0,0,.2654-.1517.5737.5737,0,0,0,.0921-.227C54.3367,4.8813,52.8186,5.4028,51.8919,5.4766Z" transform="translate(-0.9385 -0.5752)" fill="#e8e8e8"/><path d="M50.4768,1.2061a1.5366,1.5366,0,0,0-1.3218.4413.5917.5917,0,0,0-.2005.5458c.067.2279.3294.3278.5606.3818a6.0539,6.0539,0,0,0,1.9251.1332.7859.7859,0,0,0,.5657-.2241.5744.5744,0,0,0-.1992-.7823A1.6664,1.6664,0,0,0,50.935,1.5l-1.28-.0582" transform="translate(-0.9385 -0.5752)" fill="#e8e8e8"/><path d="M26.9577,9.9147a.9593.9593,0,0,0-.8866.0984.9438.9438,0,0,0-.21.4608.4619.4619,0,0,0,0,.33.414.414,0,0,0,.1426.1368,1.4144,1.4144,0,0,0,1.0753.2507.8478.8478,0,0,0,.6764-.7989.4657.4657,0,0,0-.1923-.38.6473.6473,0,0,0-.1979-.0727,5.1538,5.1538,0,0,0-.8992-.1336" transform="translate(-0.9385 -0.5752)" fill="#e8e8e8"/><path d="M22.1376,7.6306a.4155.4155,0,0,0-.5228.0628.6152.6152,0,0,0-.1433.534,1.1023,1.1023,0,0,0,.7685.7919,3.2474,3.2474,0,0,0,1.1481.098.26.26,0,0,0,.1757-.05.224.224,0,0,0,.0552-.14,1.1064,1.1064,0,0,0-.5169-.98,3.2594,3.2594,0,0,0-1.0786-.4183" transform="translate(-0.9385 -0.5752)" fill="#a3a3a3"/><path d="M29.6334,3.3778c-.3732-.0652-.8385-.0934-1.0457.2237a.7927.7927,0,0,0,.1879.9126,1.8089,1.8089,0,0,0,.5178.4024.8163.8163,0,0,0,.4233.11.7133.7133,0,0,0,.5658-.4575,2.1,2.1,0,0,0,.1211-.7516.7545.7545,0,0,0-.0387-.3376c-.1381-.31-.5777-.2915-.91-.2225" transform="translate(-0.9385 -0.5752)" fill="#a3a3a3"/><path d="M36.0822,1.6864a2.6059,2.6059,0,0,0-.876-.0626.8832.8832,0,0,0-.6936.4823.8448.8448,0,0,0,.2713.9222,1.7651,1.7651,0,0,0,.9446.3638,4.037,4.037,0,0,0,.7815.0258.7472.7472,0,0,0,.6776-.3347.5928.5928,0,0,0-.3312-.6986,3.9825,3.9825,0,0,0-.8147-.2347.8209.8209,0,0,1-.619-.5228" transform="translate(-0.9385 -0.5752)" fill="#e8e8e8"/><path d="M17.9779.7465a.6119.6119,0,0,0-.6.3687.6119.6119,0,0,0,.1719.6831,1.1257,1.1257,0,0,0,.6256.1969.9922.9922,0,0,0,.7363-.1355c.3365-.28.1648-.8762-.21-1.1024a2.0909,2.0909,0,0,0-1.28-.1533" transform="translate(-0.9385 -0.5752)" fill="#e8e8e8"/><path d="M3.2231,8.2573a3.4435,3.4435,0,0,0-.8057-.0048.8841.8841,0,0,0,.0365.861,1.4937,1.4937,0,0,0,1.1418.5581,9.5727,9.5727,0,0,0,1.5735.0023c.0706-.1358-.0612-.2856-.1817-.38A12.7578,12.7578,0,0,0,2.9837,8.007" transform="translate(-0.9385 -0.5752)" fill="#e8e8e8"/><path d="M1.82,2.47l-.2413.01a2.0721,2.0721,0,0,0-.1026,1.222c.0644.2892.2522.6069.5484.6139a.5992.5992,0,0,0,.3342-.1134,1.2,1.2,0,0,0,.4287-1.4355,1.2,1.2,0,0,0-1.3435-.663" transform="translate(-0.9385 -0.5752)" fill="#e8e8e8"/><path d="M9.4024,1.2834a.6863.6863,0,0,0-.44-.1773.4616.4616,0,0,0-.3576.3047,1.3589,1.3589,0,0,0-.0666.4869,3.89,3.89,0,0,0,2.0935.2949,1.1594,1.1594,0,0,0-1.4506-.8289" transform="translate(-0.9385 -0.5752)" fill="#a3a3a3"/></svg>