<?xml version="1.0" encoding="utf-8"?>
<!-- Generator: Adobe Illustrator 21.1.0, SVG Export Plug-In . SVG Version: 6.00 Build 0)  -->
<svg version="1.1" id="Layer_1" xmlns="http://www.w3.org/2000/svg" xmlns:xlink="http://www.w3.org/1999/xlink" x="0px" y="0px"
	 width="100px" height="100px" viewBox="0 0 100 100" enable-background="new 0 0 100 100" xml:space="preserve">
<path d="M26.2,22.9c-1.1-0.8-2.7-0.8-3.9,0C9.8,32,7.9,42.3,6,56.9h13.4H29h13.4C40.6,42.3,38.7,32,26.2,22.9z"/>
<path d="M77.7,22.9c-1.1-0.8-2.7-0.8-3.9,0c-12.5,9.1-14.4,19.4-16.3,34H71h9.6H94C92.1,42.3,90.2,32,77.7,22.9z"/>
<g>
	<path fill="none" stroke="#FFFFFF" stroke-width="10.2" stroke-miterlimit="10" d="M53,24.3c-1.8-1.3-4.2-1.3-6,0
		C27.5,38.4,24.6,54.5,21.7,77.1h20.8l2.9-20.5h9l2.9,20.5h20.8C75.4,54.5,72.5,38.4,53,24.3z"/>
	<path d="M53,24.3c-1.8-1.3-4.2-1.3-6,0C27.5,38.4,24.6,54.5,21.7,77.1h20.8l2.9-20.5h9l2.9,20.5h20.8C75.4,54.5,72.5,38.4,53,24.3z
		"/>
</g>
</svg>
