<?xml version="1.0" encoding="utf-8"?>
<!-- Generator: Adobe Illustrator 21.1.0, SVG Export Plug-In . SVG Version: 6.00 Build 0)  -->
<svg version="1.1" id="Layer_1" xmlns="http://www.w3.org/2000/svg" xmlns:xlink="http://www.w3.org/1999/xlink" x="0px" y="0px"
	 width="48px" height="48px" viewBox="0 0 48 48" enable-background="new 0 0 48 48" xml:space="preserve">
<g>
	<defs>
		<rect id="SVGID_1_" width="48" height="48"/>
	</defs>
	<clipPath id="SVGID_2_">
		<use xlink:href="#SVGID_1_"  overflow="visible"/>
	</clipPath>
	<g clip-path="url(#SVGID_2_)">
		<path fill="#7469AF" d="M55.6,28.8c-0.5,1-1,1.9-1.6,2.8c0.9,0.5,1.8,1.1,2.6,1.7c0.9-1.5,1.7-3,2.3-4.6c1.1-2.4,2.1-4.9,2.9-7.5
			c-1-0.6-1.9-1.2-2.9-1.8c-0.3,1.1-0.6,2.2-0.9,3.3c-0.1,0.5-0.5,0.6-0.9,0.4c-0.9-0.5-1.8-1.1-2.7-1.6c-0.6-0.4-1.3-0.8-2-1.1
			c-0.3-0.2-0.4-0.3-0.8-0.2c-0.4,0-0.7,0.1-1.1,0.1c-0.2,0-0.3,0-0.5,0.1c-0.3,0-0.7,0.1-1,0c-0.2,0-0.3,0-0.5-0.1
			c-0.2,0-0.3-0.1-0.5-0.1c0,0-0.1,0-0.1,0c0,0,0,0,0,0c0,0-0.1,0-0.1-0.1c0,0-0.1,0-0.1-0.1c-0.1,0-0.1-0.1-0.2-0.1
			c-0.3-0.2-0.6-0.4-0.9-0.5c-0.3-0.2-0.6-0.3-0.9-0.4c-0.8-0.2-1.7-0.5-2.5-0.6c-0.4-0.1-0.7-0.2-1.1-0.1c-0.4,0.1-0.8,0.1-1.2,0.1
			c-0.8,0.1-1.6,0.3-2.5,0.5c-1.6,0.4-3.2,1-4.8,1.6c-3.8,1.5-7.5,3.1-11.5,4c-3.7,0.8-7.5,1.1-11.2,0.5c-2-0.3-4-0.9-6-1.8
			c-1.6-0.7-3.1-1.5-4.5-2.6c-1.7-1.3-3.3-2.9-4.8-4.7c-1.1-1.4-1.8-3-2.1-4.8c-1-0.3-2.1-0.6-3.1-0.7c0.1,2.9,0.5,5.8,1.2,8.7
			c0.4,1.9,1,3.6,1.6,5.3c1.5,0.7,3.1,1.5,4.6,2.2c-0.7-1-1.3-2.1-1.8-3.2c0,0,0-0.1,0-0.1c-0.1-0.4-0.4-0.8-0.1-1.1
			c0.3-0.4,0.5,0.2,0.7,0.4c1.8,1.3,3.7,2.3,5.5,3.3c3.2,1.9,6.6,2.6,10.1,2.9c3.6,0.4,7.2,0,10.8-0.8c4-1,7.9-2.5,11.8-4.1
			c1.6-0.6,3.2-1.1,4.8-1.4c1.4-0.3,3.1-0.1,4.5,0.2c0.9,0.2,1.8,0.5,2.6,1.1c0.3,0.2,0.6,0.4,0.9,0.6c0,0,0.1,0.1,0.1,0.1
			c0,0,0.1,0.1,0.1,0.1c0,0,0,0,0.1,0.1c0,0,0.1,0,0.1,0c0,0,0.1,0,0.1,0c0,0,0.1,0,0.1,0c0.1,0,0.2,0.1,0.2,0.1
			c0.2,0,0.3,0.1,0.5,0.1c0.3,0,0.7,0,1,0c0.3,0,0.7-0.1,1-0.1c0.2,0,0.5,0,0.7,0c0.3,0,0.6,0.1,0.9,0.2c0.3,0.1,0.5,0.3,0.7,0.5
			c0.6,0.5,1.3,1.1,1.9,1.6C56,27.4,56,28,55.6,28.8z"/>
		<path fill="#7469AF" d="M21.7,42.5c1-0.4,2.1-0.9,3.1-1.4c3.7-1.8,7.4-3.7,11.1-5.2c1.2-0.5,2.5-0.8,3.7-1.4
			c0.9-0.5,1.9-0.8,2.9-0.9c1.6-0.1,3.4,0.6,4.5,1.8c0.2,0.2,0.4,0.5,0.7,0.7c0.4,0.4,0.7,0.8,1,1.2c0.1,0.2,0.3,0.5,0.4,0.7
			c0.1,0.3,0.3,0.5,0.4,0.8c0.1,0.2,0.2,0.6,0.4,0.8c0.1,0.2,0.4,0.3,0.5,0.4c0.2,0.2,0.5,0.4,0.7,0.6c0.4-0.6,0.8-1.1,1.2-1.7
			c1.2-1.8,2.3-3.7,3.4-5.6c0.3-0.6,0.7-1.2,1-1.9c-0.9-0.5-1.8-1-2.7-1.5c-0.4,0.8-0.8,1.5-1.2,2.3c-0.2,0.5-0.5,0.6-1,0.5
			c-0.2-0.1-0.4-0.1-0.6-0.2c-0.2-0.1-0.2-0.1-0.4,0c-0.2,0.1-0.4,0.1-0.5,0.1c-0.5,0.1-1.1,0-1.6-0.2c-0.5-0.2-0.9-0.6-1.4-0.8
			c-0.6-0.2-1.1-0.7-1.7-1c-1.2-0.6-2.7-0.7-4-0.4c-1.4,0.4-2.7,1.1-4.1,1.5c-1.3,0.3-2.5,0.8-3.7,1.2c-3.3,1.2-6.5,2.8-9.6,4.3
			c-2.6,1.3-5.2,1.9-8,1.9c-1.6,0-3.1,0.1-4.6-0.4c-1.4-0.5-2.8-0.9-4.1-1.7c-0.3-0.2-0.6-0.3-0.8-0.4c-1.4-0.7-2.8-1.4-4.1-2.4
			c-1.1-0.9-2.1-2-3.1-3.1c-0.6-0.7-1.1-1.4-1.7-2.1C-4,28.3-5.5,27.6-7.1,27c0.7,1.6,1.5,3.1,2.5,4.6c0.5,0.7,1,1.5,1.5,2.2
			c0.5,0.6,0.9,0.9,1.5,1.3c2.4,1.6,3.9,4.2,6.5,5.6C5.9,41.4,7,41.9,8,42.6c1,0.6,2.4,0.8,3.6,1c2.7,0.4,5.4,0.4,8-0.4
			C20.4,43,21,42.8,21.7,42.5z"/>
		<path fill="#7469AF" d="M57.7,14.7c0.4,0.3,0.8,0.7,1.1,1c0.4,0.4,0.5,0.9,0.4,1.5c-0.1,0.5-0.2,1-0.3,1.5c1,0.6,2,1.2,2.9,1.8
			c0.3-0.8,0.5-1.7,0.7-2.5c0.7-2.7,1.3-5.5,1.7-8.4c0.1-0.6,0.2-1.2,0.2-1.8c-1.1-0.6-2.1-1.3-3.2-1.8c0,1.1-0.1,2.1-0.3,3.2
			c-0.1,0.4-0.1,0.8-0.2,1.2c-0.1,0.9-0.5,1.1-1.1,0.5C59,10.1,58.1,9.6,57.3,9c-0.4-0.2-0.8-0.5-1.2-0.7c-1.4-0.8-2.8-1.4-4.3-2
			c-0.7-0.2-1.5-0.5-2.2-0.6c-0.4-0.1-0.7-0.2-1.1-0.2c0,0-0.1,0-0.1,0c0,0-0.1,0-0.1,0c-0.1,0-0.1,0-0.1,0c0,0,0,0,0,0
			c0,0-0.1-0.1-0.1-0.1c0,0-0.1-0.1-0.1-0.1c-0.1,0-0.1-0.1-0.2-0.1C47.3,5,47,4.9,46.7,4.8c-0.3-0.1-0.6-0.1-0.9-0.1
			c-0.9,0-1.9,0-2.8,0.1c-0.9,0.1-1.7,0.4-2.6,0.5C37,5.8,33.6,6.8,30.3,8.1c-3.4,1.4-6.8,3-10.4,3.8c-3,0.6-5.9,0.5-8.8-0.1
			c-3.2-0.6-6-2.3-8.7-4.2c-2.6-1.9-4.6-4.5-6-7.8c-0.3-0.7-0.6-1.4-0.8-2.1c-0.3-0.9-0.4-1.9-0.3-2.9C-4.6-6-4.4-6.7-4.3-7.4
			C-5.2-8.1-6-8.8-6.9-9.5c-0.4,1.3-0.8,2.6-1.1,4c-0.5,2.2-0.9,4.4-1.2,6.7c-0.3,2.8-0.4,5.6-0.3,8.3c1,0.2,2.1,0.4,3.1,0.7
			c-0.1-0.5-0.2-1.1-0.2-1.6c-0.1-1.4-0.2-2.7-0.3-4.1c0-0.3-0.1-0.6,0.2-0.7c0.3-0.1,0.4,0.1,0.6,0.3c0.8,1.1,1.6,2.2,2.5,3.2
			c1.8,2.1,3.9,3.7,6.1,5.2c1.4,0.9,2.9,1.6,4.4,2.2c1.6,0.7,3.3,1.1,5,1.3c3.7,0.4,7.2-0.2,10.8-1.3c3.7-1.1,7.3-2.7,10.9-3.9
			c3-1,6.1-2,9.3-2c1,0,2,0.3,2.9,0.7c0.5,0.2,0.9,0.5,1.4,0.8c0.2,0.1,0.4,0.3,0.6,0.5c0.2,0.1,0.5,0.1,0.7,0.1
			c0.3,0,0.5,0,0.7-0.1c0.3-0.1,0.5-0.6,0.8-0.6c0.3,0.1,0.8,0.4,1.1,0.6c0.7,0.4,1.5,0.9,2.2,1.3C54.9,12.9,56.3,13.8,57.7,14.7z"
			/>
	</g>
</g>
</svg>
