<svg id="Layer_1" data-name="Layer 1" xmlns="http://www.w3.org/2000/svg" xmlns:xlink="http://www.w3.org/1999/xlink" width="32" height="32" viewBox="0 0 32 32"><defs><clipPath id="clip-path"/></defs><title>water-3</title><g clip-path="url(#clip-path)"><path d="M32.0058,21.8476a2.8966,2.8966,0,0,0-.5925-.341,9.3834,9.3834,0,0,1-1.0667-.64,4.3392,4.3392,0,0,0-2.3467,0,19.8564,19.8564,0,0,0-2.6667,1.0667,16.5923,16.5923,0,0,0-2.4533.8533q-3.2,1.28-6.4,2.88a11.8908,11.8908,0,0,1-5.3333,1.28,7.674,7.674,0,0,1-3.0933-.32A12.7432,12.7432,0,0,1,5.28,25.4533c-.2133-.1066-.32-.2133-.5333-.32a14.3939,14.3939,0,0,1-2.7734-1.6A12.9463,12.9463,0,0,1-.0018,21.4683a30.4689,30.4689,0,0,0,.0053,3.24c1.2384,1.0411,2.2149,2.385,3.57,3.198.7466.4266,1.3867.7466,2.1333,1.1733a5.9545,5.9545,0,0,0,2.4534.64,11.2419,11.2419,0,0,0,5.3333-.2133,8.101,8.101,0,0,0,1.1733-.4267c.7466-.32,1.3867-.5333,2.0267-.8533,2.4533-1.1733,4.9066-2.4533,7.4666-3.52a16.76,16.76,0,0,0,2.4534-.96,6.78,6.78,0,0,1,1.92-.64A3.9378,3.9378,0,0,1,31.52,24.28l.4266.4267c.0217.0217.0433.0444.065.0681C32.2033,24.9839,32.1283,21.927,32.0058,21.8476Z" fill="#7469af"/><path d="M32.0533,13.6133a.1045.1045,0,0,1-.1067-.1067c-.2133-.1066-.32-.2133-.5333-.32a1.5164,1.5164,0,0,0-.64-.2133,7.9889,7.9889,0,0,0-1.7067-.4266c-.2133,0-.5333-.1067-.7466-.1067a2.3482,2.3482,0,0,0-.8533.1067l-1.6.32a18.7743,18.7743,0,0,0-3.2,1.0667,50.3733,50.3733,0,0,1-7.68,2.6666,19.5905,19.5905,0,0,1-7.4667.32,19.3622,19.3622,0,0,1-4.0533-1.1733A10.35,10.35,0,0,1,.48,14.04q-.24-.1743-.4726-.3618a8.585,8.585,0,0,0-.0011,2.5032c.612.352,1.2352.6939,1.86,1.0586a15.2186,15.2186,0,0,0,6.72,1.92,23.8175,23.8175,0,0,0,7.2534-.5333A76.39,76.39,0,0,0,23.7333,15.96a18.2376,18.2376,0,0,1,3.2-.96,7.0614,7.0614,0,0,1,2.9866.1067,3.5052,3.5052,0,0,1,1.7067.7466,1.9068,1.9068,0,0,1,.42.3161A14.4275,14.4275,0,0,0,32.0533,13.6133Z" fill="#7469af"/><path d="M32.0533,2.9467s-.7085-.2675-1.1528-.393a.9524.9524,0,0,0-.2613-.0336,9.0136,9.0136,0,0,0-1.6793.1066c-.5334.1067-1.1733.2134-1.7067.32a28.6,28.6,0,0,0-6.72,1.92A45.5552,45.5552,0,0,1,13.6,7.4266,14.1043,14.1043,0,0,1,7.6267,7.32a15.1779,15.1779,0,0,1-5.76-2.7733A11.1467,11.1467,0,0,1-.0088,2.7153Q-.0191,4.52-.07,6.2789c.6309.5272,1.2813,1.014,1.9366,1.4678A15.6241,15.6241,0,0,0,4.8533,9.24a12.598,12.598,0,0,0,3.3067.8533A18.0585,18.0585,0,0,0,15.3067,9.24c2.4533-.7466,4.8-1.8134,7.2533-2.56A20.6418,20.6418,0,0,1,28.7466,5.4a5.6139,5.6139,0,0,1,1.92.4266,4.3249,4.3249,0,0,1,.96.5333c.1067.1067.32.2133.4267.32S32.0533,2.9467,32.0533,2.9467Z" fill="#7469af"/></g></svg>