<?xml version="1.0" encoding="utf-8"?>
<!-- Generator: Adobe Illustrator 21.1.0, SVG Export Plug-In . SVG Version: 6.00 Build 0)  -->
<svg version="1.1" id="Layer_1" xmlns="http://www.w3.org/2000/svg" xmlns:xlink="http://www.w3.org/1999/xlink" x="0px" y="0px"
	 width="30px" height="34.9px" viewBox="0 0 30 34.9" enable-background="new 0 0 30 34.9" xml:space="preserve">
<g>
	<defs>
		<rect id="SVGID_1_" y="-2.3" width="30" height="30"/>
	</defs>
	<clipPath id="SVGID_2_">
		<use xlink:href="#SVGID_1_"  overflow="visible" opacity="0"/>
	</clipPath>
	<g clip-path="url(#SVGID_2_)">
		<path fill="#7469AF" d="M13.5,24.9c0.7-0.3,1.3-0.5,1.9-0.8c2.3-1.1,4.6-2.3,7-3.3c0.8-0.3,1.6-0.5,2.3-0.9
			c0.6-0.3,1.2-0.5,1.8-0.6c1-0.1,2.1,0.4,2.8,1.1c0.1,0.1,0.3,0.3,0.4,0.4c0.2,0.2,0.4,0.5,0.6,0.7c0.1,0.1,0.2,0.3,0.2,0.5
			c0.1,0.2,0.2,0.3,0.2,0.5c0.1,0.1,0.1,0.4,0.2,0.5c0.1,0.1,0.2,0.2,0.3,0.2c0.2,0.1,0.3,0.2,0.4,0.3c0.3-0.3,0.5-0.7,0.8-1.1
			c0.8-1.1,1.4-2.3,2.1-3.5c0.2-0.4,0.4-0.8,0.6-1.2c-0.6-0.3-1.1-0.6-1.7-0.9c-0.2,0.5-0.5,0.9-0.7,1.4c-0.1,0.3-0.3,0.4-0.6,0.3
			c-0.1,0-0.3-0.1-0.4-0.1c-0.1-0.1-0.1-0.1-0.3,0c-0.1,0-0.2,0.1-0.3,0.1c-0.3,0.1-0.7,0-1-0.2c-0.3-0.1-0.6-0.4-0.9-0.5
			c-0.4-0.2-0.7-0.4-1-0.6C27.7,17,26.8,17,26,17.2c-0.9,0.2-1.7,0.7-2.5,1c-0.8,0.2-1.6,0.5-2.3,0.8c-2,0.8-4,1.7-6,2.7
			c-1.6,0.8-3.3,1.2-5,1.2c-1,0-1.9,0.1-2.9-0.3c-0.9-0.3-1.8-0.6-2.6-1.1c-0.2-0.1-0.3-0.2-0.5-0.3c-0.9-0.4-1.8-0.9-2.6-1.5
			c-0.7-0.6-1.3-1.2-1.9-2c-0.4-0.4-0.7-0.9-1.1-1.3c-1-0.4-2-0.8-2.9-1.2c0.4,1,1,2,1.5,2.9c0.3,0.5,0.6,0.9,0.9,1.4
			c0.3,0.4,0.6,0.5,1,0.8c1.5,1,2.5,2.6,4,3.5c0.7,0.4,1.3,0.7,2,1.1c0.6,0.4,1.5,0.5,2.3,0.6c1.7,0.3,3.4,0.3,5-0.2
			C12.7,25.2,13.1,25.1,13.5,24.9z"/>
		<path fill="#7469AF" d="M34.7,15.8c-0.3,0.6-0.6,1.2-1,1.8c0.6,0.3,1.1,0.7,1.6,1.1c0.5-0.9,1-1.9,1.5-2.9
			c0.7-1.5,1.3-3.1,1.8-4.7c-0.6-0.4-1.2-0.8-1.8-1.1c-0.2,0.7-0.4,1.4-0.6,2c-0.1,0.3-0.3,0.4-0.6,0.2c-0.6-0.3-1.1-0.7-1.7-1
			c-0.4-0.3-0.8-0.5-1.2-0.7c-0.2-0.1-0.3-0.2-0.5-0.1c-0.2,0-0.5,0.1-0.7,0.1c-0.1,0-0.2,0-0.3,0c-0.2,0-0.4,0-0.6,0
			c-0.1,0-0.2,0-0.3,0c-0.1,0-0.2-0.1-0.3-0.1c0,0,0,0,0,0c0,0,0,0,0,0c0,0,0,0-0.1,0c0,0,0,0-0.1,0c0,0-0.1,0-0.1-0.1
			c-0.2-0.1-0.3-0.2-0.5-0.3c-0.2-0.1-0.4-0.2-0.6-0.2c-0.5-0.2-1-0.3-1.6-0.4c-0.2,0-0.5-0.1-0.7-0.1c-0.3,0-0.5,0-0.8,0.1
			c-0.5,0.1-1,0.2-1.5,0.3c-1,0.2-2,0.6-3,1c-2.4,1-4.7,1.9-7.2,2.5c-2.3,0.5-4.7,0.7-7,0.3c-1.3-0.2-2.5-0.6-3.8-1.1
			c-1-0.4-2-0.9-2.8-1.6c-1.1-0.8-2.1-1.8-3-2.9c-0.7-0.9-1.1-1.9-1.3-3c-0.6-0.2-1.3-0.4-1.9-0.4C-5.9,6-5.6,7.8-5.2,9.6
			c0.3,1.2,0.6,2.3,1,3.3c1,0.4,1.9,0.9,2.9,1.4c-0.4-0.6-0.8-1.3-1.1-2c0,0,0,0,0-0.1c-0.1-0.2-0.3-0.5-0.1-0.7
			c0.2-0.2,0.3,0.1,0.5,0.2c1.1,0.8,2.3,1.4,3.5,2.1c2,1.2,4.1,1.6,6.3,1.8c2.3,0.2,4.5,0,6.8-0.5c2.5-0.6,4.9-1.6,7.4-2.5
			c1-0.4,2-0.7,3-0.9c0.9-0.2,1.9-0.1,2.8,0.1c0.6,0.1,1.1,0.3,1.6,0.7c0.2,0.1,0.4,0.3,0.5,0.4c0,0,0.1,0,0.1,0.1
			c0,0,0.1,0,0.1,0.1c0,0,0,0,0,0c0,0,0.1,0,0.1,0c0,0,0,0,0.1,0c0,0,0.1,0,0.1,0c0.1,0,0.1,0,0.2,0c0.1,0,0.2,0,0.3,0.1
			c0.2,0,0.4,0,0.6,0c0.2,0,0.4,0,0.6-0.1c0.2,0,0.3,0,0.5,0c0.2,0,0.4,0,0.6,0.1c0.2,0.1,0.3,0.2,0.4,0.3c0.4,0.3,0.8,0.7,1.2,1
			C35,14.9,35,15.3,34.7,15.8z"/>
		<path fill="#7469AF" d="M36.1,6.3c0.3,0.2,0.5,0.4,0.7,0.6C37,7.2,37.1,7.5,37,7.9c0,0.3-0.1,0.6-0.2,0.9c0.6,0.4,1.2,0.7,1.8,1.1
			c0.2-0.5,0.3-1,0.5-1.6c0.5-1.7,0.8-3.5,1.1-5.2c0-0.4,0.1-0.8,0.1-1.1c-0.7-0.4-1.3-0.8-2-1.2c0,0.7-0.1,1.3-0.2,2
			c0,0.3-0.1,0.5-0.1,0.8c-0.1,0.6-0.3,0.7-0.7,0.3c-0.5-0.5-1-0.8-1.6-1.2c-0.2-0.2-0.5-0.3-0.7-0.4c-0.9-0.5-1.8-0.9-2.7-1.2
			C31.9,1,31.4,0.8,31,0.7c-0.2-0.1-0.5-0.1-0.7-0.1c0,0,0,0-0.1,0c0,0,0,0-0.1,0c0,0-0.1,0-0.1,0c0,0,0,0,0,0c0,0,0,0-0.1-0.1
			c0,0-0.1-0.1-0.1-0.1c0,0-0.1,0-0.1-0.1c-0.2-0.1-0.4-0.1-0.5-0.2c-0.2,0-0.4,0-0.6-0.1c-0.6,0-1.2,0-1.7,0.1
			c-0.5,0.1-1.1,0.2-1.6,0.3C23.1,0.7,21,1.4,19,2.2c-2.2,0.9-4.3,1.9-6.5,2.4C10.6,5,8.8,4.9,6.9,4.5c-2-0.4-3.7-1.4-5.4-2.6
			C-0.1,0.7-1.3-0.9-2.2-3c-0.2-0.4-0.4-0.9-0.5-1.3C-3-4.9-3-5.5-2.9-6.1c0.1-0.5,0.2-0.9,0.3-1.4c-0.6-0.4-1.1-0.9-1.7-1.3
			C-4.6-8-4.8-7.2-5-6.3C-5.3-5-5.6-3.6-5.7-2.2C-5.9-0.4-6,1.3-5.9,3.1C-5.3,3.2-4.6,3.3-4,3.5c-0.1-0.3-0.1-0.7-0.1-1
			c-0.1-0.9-0.1-1.7-0.2-2.6c0-0.2-0.1-0.4,0.1-0.5C-4-0.6-3.9-0.4-3.8-0.3c0.5,0.7,1,1.4,1.6,2C-1.1,3,0.2,4,1.5,4.9
			c0.9,0.6,1.8,1,2.8,1.4c1,0.4,2.1,0.7,3.1,0.8c2.3,0.2,4.5-0.1,6.7-0.8c2.3-0.7,4.5-1.7,6.8-2.4c1.9-0.6,3.8-1.2,5.8-1.2
			c0.6,0,1.3,0.2,1.8,0.4c0.3,0.1,0.6,0.3,0.9,0.5c0.1,0.1,0.3,0.2,0.4,0.3c0.1,0.1,0.3,0.1,0.4,0.1c0.2,0,0.3,0,0.5-0.1
			c0.2-0.1,0.3-0.4,0.5-0.4c0.2,0,0.5,0.3,0.7,0.4c0.5,0.3,0.9,0.5,1.4,0.8C34.3,5.2,35.2,5.7,36.1,6.3z"/>
	</g>
	
		<use xlink:href="#SVGID_1_"  overflow="visible" opacity="0" fill="none" stroke="#000000" stroke-width="0.3125" stroke-miterlimit="10"/>
</g>
</svg>
