<?xml version="1.0" encoding="utf-8"?>
<!-- Generator: Adobe Illustrator 21.1.0, SVG Export Plug-In . SVG Version: 6.00 Build 0)  -->
<svg version="1.1" id="Layer_1" xmlns="http://www.w3.org/2000/svg" xmlns:xlink="http://www.w3.org/1999/xlink" x="0px" y="0px"
	 viewBox="0 0 50 50" enable-background="new 0 0 50 50" xml:space="preserve">
<title>water-2</title>
<image overflow="visible" width="614" height="614" xlink:href="266E7E8E.jpg"  transform="matrix(8.143322e-02 0 0 8.143322e-02 0 0)">
</image>
<path fill="#6464CC" d="M10.9,41.1c-1.3-1.7-1.3-4.1,0-5.7c1-1.2,2.7-1.8,4.2-1.3c1.6,0.5,2.5,2.1,2,3.7c0,0.1,0,0.1-0.1,0.2
	c-0.3,0.8-1.1,1.3-2,1.3c-0.6,0-1.1-0.4-1.3-1c-0.1-0.3,0-0.5,0.2-0.7c0.2-0.2,0.4-0.1,0.6,0c0.2,0.1,0.4,0.1,0.5-0.1
	c0.2-0.2,0.3-0.6,0.1-0.9c-0.3-0.7-1.1-1-1.8-0.7c-1.1,0.4-1.7,1.5-1.5,2.6c0.2,1,0.8,1.8,1.7,2.3c1.4,0.8,3.2,0.5,4.3-0.7
	c1-0.9,1.5-2.2,1.3-3.5c-0.1-1.6-1.1-3.1-2.5-3.9c-2.5-1.5-5.7-0.9-7.6,1.6C8.4,35.4,8,36.7,8,38c0,0.5,0,1-0.1,1.5
	c0,0.4-0.1,0.8-0.2,1.2c-0.3,1-0.6,2.5-1.5,3.1C6,44,5.9,44.1,5.7,44.3c-0.1,0.1-0.2,0.3-0.2,0.5c0,0.1,0.1,0.1,0.1,0.2
	c0.2,0.1,0.4,0.1,0.6,0c0.9-0.6,2.1-0.9,3.2-0.8c0.9,0,1.7,0.1,2.5,0.3c0.4,0.1,0.9,0.2,1.3,0.3c0.3,0.1,0.6,0.2,0.9,0.4
	c0.1,0.1,0.3,0.1,0.5,0.1c0,0,0,0,0.1,0c0,0,0,0,0-0.1c0-0.2,0-0.4-0.2-0.6c-0.1-0.1-0.3-0.3-0.5-0.4c-0.6-0.3-1.2-0.7-1.7-1.1
	c-0.2-0.3-0.4-0.5-0.7-0.8C11.6,42.1,11,41.2,10.9,41.1z"/>
<path fill="#6464CC" d="M36.5,14c-1.3-1.7-1.3-4.1,0-5.7c1-1.2,2.7-1.8,4.2-1.3c1.6,0.5,2.5,2.1,2,3.7c0,0.1,0,0.1-0.1,0.2
	c-0.3,0.8-1.1,1.3-2,1.3c-0.6,0-1.1-0.4-1.3-1c-0.1-0.3,0-0.5,0.2-0.7c0.2-0.2,0.4-0.1,0.6,0c0.2,0.1,0.4,0.1,0.5-0.1
	c0.2-0.2,0.3-0.6,0.1-0.9c-0.3-0.7-1.1-1-1.8-0.7c-1.1,0.4-1.7,1.5-1.5,2.6c0.2,1,0.8,1.8,1.7,2.3c1.4,0.8,3.2,0.5,4.3-0.7
	c1-0.9,1.5-2.2,1.3-3.5c-0.1-1.6-1.1-3.1-2.5-3.9c-2.5-1.5-5.7-0.9-7.6,1.6c-0.8,1.1-1.3,2.4-1.3,3.7c0,0.5,0,1-0.1,1.5
	c0,0.4-0.1,0.8-0.2,1.2c-0.3,1-0.6,2.5-1.5,3.1c-0.2,0.1-0.3,0.2-0.5,0.4c-0.1,0.1-0.2,0.3-0.2,0.5c0,0.1,0.1,0.1,0.1,0.2
	c0.2,0.1,0.4,0.1,0.6,0c0.9-0.6,2.1-0.9,3.2-0.8c0.9,0,1.7,0.1,2.5,0.3c0.4,0.1,0.9,0.2,1.3,0.3c0.3,0.1,0.6,0.2,0.9,0.4
	c0.1,0.1,0.3,0.1,0.5,0.1c0,0,0,0,0.1,0c0,0,0,0,0-0.1c0-0.2,0-0.4-0.2-0.6c-0.1-0.1-0.3-0.3-0.5-0.4c-0.6-0.3-1.2-0.7-1.7-1.1
	c-0.2-0.3-0.4-0.5-0.7-0.8C37.2,15,36.6,14.1,36.5,14z"/>
</svg>
