<?xml version="1.0" encoding="utf-8"?>
<!-- Generator: Adobe Illustrator 21.1.0, SVG Export Plug-In . SVG Version: 6.00 Build 0)  -->
<svg version="1.1" xmlns="http://www.w3.org/2000/svg" xmlns:xlink="http://www.w3.org/1999/xlink" x="0px" y="0px"
	 viewBox="0 0 512 512" style="enable-background:new 0 0 512 512;" xml:space="preserve">
<style type="text/css">
	.st0{fill:#9CCEDB;}
	.st1{fill:#8383ED;}
</style>
<g id="Layer_2">
	<rect y="0" class="st0" width="512" height="512"/>
</g>
<g id="Layer_1">
	<g>
		<path class="st1" d="M107.8,106.1C99.4,95,99.5,80.7,108,70c6.1-7.8,17.1-11.2,26.4-8.2c10.7,3.4,16.4,14.9,12.3,24.8
			c-2.2,5.2-7.1,8.5-12.4,8.2c-4-0.2-7.4-3-8-6.5c-0.2-1.7,0.1-3.3,1.5-4.4c1.4-1.1,2.7-0.5,3.9,0.2c1.3,0.7,2.4,0.5,3.4-0.6
			c1.3-1.4,1.5-3.4,0.6-5.6c-1.8-4.2-6.8-5.9-11.6-4.2c-6.7,2.4-11,9.6-9.7,16.6c1.2,6.4,4.8,11.2,10.6,14.4
			c8.8,4.8,19.6,3,27.4-4.5c6.2-6.2,9.2-13.6,8.4-22.3c-1-10.9-6.5-19.1-15.7-24.8c-15.5-9.5-35.6-5.7-48,10.1
			c-5.4,6.8-7.6,14.7-8,23.3c-0.1,3.2-0.2,6.4-0.4,9.6c-0.1,2.7-0.6,5.3-1.3,7.7c-1.9,6.3-3.8,15.7-9.3,19.8c-1,0.8-2.1,1.4-3,2.3
			c-0.9,0.9-1.4,2.3-1,3.4c0.1,0.4,0.4,0.7,0.7,1c1.1,0.9,2.8,0.7,4-0.2c6-4.2,12.7-5.1,20-5c5.4,0.1,10.7,0.7,16,1.6
			c2.7,0.5,5.4,1.1,8.1,1.8c2.3,0.6,3.5,1.6,5.6,2.7c0.9,0.5,1.9,0.6,2.9,0.5c0.2,0,0.3,0,0.4-0.1c0.1-0.1,0.2-0.3,0.2-0.4
			c0.3-1.2-0.3-2.5-1.1-3.5c-0.8-1-1.9-1.6-3-2.3c-3.5-2.1-8-4-10.8-7.1c-1.4-1.6-2.8-3.3-4.1-5
			C112.2,112.2,108.2,106.7,107.8,106.1z"/>
	</g>
	<g>
		<path class="st1" d="M317.7,106.1c-8.3-11.1-8.3-25.4,0.2-36.2c6.1-7.8,17.1-11.2,26.4-8.2c10.7,3.4,16.4,14.9,12.3,24.8
			c-2.2,5.2-7.1,8.5-12.4,8.2c-4-0.2-7.4-3-8-6.5c-0.2-1.7,0.1-3.3,1.5-4.4c1.4-1.1,2.7-0.5,3.9,0.2c1.3,0.7,2.4,0.5,3.4-0.6
			c1.3-1.4,1.5-3.4,0.6-5.6c-1.8-4.2-6.8-5.9-11.6-4.2c-6.7,2.4-11,9.6-9.7,16.6c1.2,6.4,4.8,11.2,10.6,14.4
			c8.8,4.8,19.6,3,27.4-4.5c6.2-6.2,9.2-13.6,8.4-22.3c-1-10.9-6.5-19.1-15.7-24.8c-15.5-9.5-35.6-5.7-48,10.1
			c-5.4,6.8-7.6,14.7-8,23.3c-0.1,3.2-0.2,6.4-0.4,9.6c-0.1,2.7-0.6,5.3-1.3,7.7c-1.9,6.3-3.8,15.7-9.3,19.8c-1,0.8-2.1,1.4-3,2.3
			s-1.4,2.3-1,3.4c0.1,0.4,0.4,0.7,0.7,1c1.1,0.9,2.8,0.7,4-0.2c6-4.2,12.7-5.1,20-5c5.4,0.1,10.7,0.7,16,1.6
			c2.7,0.5,5.4,1.1,8.1,1.8c2.3,0.6,3.5,1.6,5.6,2.7c0.9,0.5,1.9,0.6,2.9,0.5c0.2,0,0.3,0,0.4-0.1c0.1-0.1,0.2-0.3,0.2-0.4
			c0.3-1.2-0.3-2.5-1.1-3.5c-0.8-1-1.9-1.6-3-2.3c-3.5-2.1-8-4-10.8-7.1c-1.4-1.6-2.8-3.3-4.1-5
			C322.1,112.2,318.1,106.7,317.7,106.1z"/>
	</g>
	<g>
		<path class="st1" d="M212.7,274.9c-8.3-11.1-8.3-25.4,0.2-36.2c6.1-7.8,17.1-11.2,26.4-8.2c10.7,3.4,16.4,14.9,12.3,24.8
			c-2.2,5.2-7.1,8.5-12.4,8.2c-4-0.2-7.4-3-8-6.5c-0.2-1.7,0.1-3.3,1.5-4.4c1.4-1.1,2.7-0.5,3.9,0.2c1.3,0.7,2.4,0.5,3.4-0.6
			c1.3-1.4,1.5-3.4,0.6-5.6c-1.8-4.2-6.8-5.9-11.6-4.2c-6.7,2.4-11,9.6-9.7,16.6c1.2,6.4,4.8,11.2,10.6,14.4
			c8.8,4.8,19.6,3,27.4-4.5c6.2-6.2,9.2-13.6,8.4-22.3c-1-10.9-6.5-19.1-15.7-24.8c-15.5-9.5-35.6-5.7-48,10.1
			c-5.4,6.8-7.6,14.7-8,23.3c-0.1,3.2-0.2,6.4-0.4,9.6c-0.1,2.7-0.6,5.3-1.3,7.7c-1.9,6.3-3.8,15.7-9.3,19.8c-1,0.8-2.1,1.4-3,2.3
			s-1.4,2.3-1,3.4c0.1,0.4,0.4,0.7,0.7,1c1.1,0.9,2.8,0.7,4-0.2c6-4.2,12.7-5.1,20-5c5.4,0.1,10.7,0.7,16,1.6
			c2.7,0.5,5.4,1.1,8.1,1.8c2.3,0.6,3.5,1.6,5.6,2.7c0.9,0.5,1.9,0.6,2.9,0.5c0.2,0,0.3,0,0.4-0.1c0.1-0.1,0.2-0.3,0.2-0.4
			c0.3-1.2-0.3-2.5-1.1-3.5s-1.9-1.6-3-2.3c-3.5-2.1-8-4-10.8-7.1c-1.4-1.6-2.8-3.3-4.1-5C217.1,280.9,213.1,275.4,212.7,274.9z"/>
	</g>
	<g>
		<path class="st1" d="M422.6,274.9c-8.3-11.1-8.3-25.4,0.2-36.2c6.1-7.8,17.1-11.2,26.4-8.2c10.7,3.4,16.4,14.9,12.3,24.8
			c-2.2,5.2-7.1,8.5-12.4,8.2c-4-0.2-7.4-3-8-6.5c-0.2-1.7,0.1-3.3,1.5-4.4c1.4-1.1,2.7-0.5,3.9,0.2c1.3,0.7,2.4,0.5,3.4-0.6
			c1.3-1.4,1.5-3.4,0.6-5.6c-1.8-4.2-6.8-5.9-11.6-4.2c-6.7,2.4-11,9.6-9.7,16.6c1.2,6.4,4.8,11.2,10.6,14.4
			c8.8,4.8,19.6,3,27.4-4.5c6.2-6.2,9.2-13.6,8.4-22.3c-1-10.9-6.5-19.1-15.7-24.8c-15.5-9.5-35.6-5.7-48,10.1
			c-5.4,6.8-7.6,14.7-8,23.3c-0.1,3.2-0.2,6.4-0.4,9.6c-0.1,2.7-0.6,5.3-1.3,7.7c-1.9,6.3-3.8,15.7-9.3,19.8c-1,0.8-2.1,1.4-3,2.3
			s-1.4,2.3-1,3.4c0.1,0.4,0.4,0.7,0.7,1c1.1,0.9,2.8,0.7,4-0.2c6-4.2,12.7-5.1,20-5c5.4,0.1,10.7,0.7,16,1.6
			c2.7,0.5,5.4,1.1,8.1,1.8c2.3,0.6,3.5,1.6,5.6,2.7c0.9,0.5,1.9,0.6,2.9,0.5c0.2,0,0.3,0,0.4-0.1c0.1-0.1,0.2-0.3,0.2-0.4
			c0.3-1.2-0.3-2.5-1.1-3.5s-1.9-1.6-3-2.3c-3.5-2.1-8-4-10.8-7.1c-1.4-1.6-2.8-3.3-4.1-5C427.1,280.9,423,275.4,422.6,274.9z"/>
	</g>
	<g>
		<path class="st1" d="M107.8,433.1c-8.3-11.1-8.3-25.4,0.2-36.2c6.1-7.8,17.1-11.2,26.4-8.2c10.7,3.4,16.4,14.9,12.3,24.8
			c-2.2,5.2-7.1,8.5-12.4,8.2c-4-0.2-7.4-3-8-6.5c-0.2-1.7,0.1-3.3,1.5-4.4c1.4-1.1,2.7-0.5,3.9,0.2c1.3,0.7,2.4,0.5,3.4-0.6
			c1.3-1.4,1.5-3.4,0.6-5.6c-1.8-4.2-6.8-5.9-11.6-4.2c-6.7,2.4-11,9.6-9.7,16.6c1.2,6.4,4.8,11.2,10.6,14.4
			c8.8,4.8,19.6,3,27.4-4.5c6.2-6.2,9.2-13.6,8.4-22.3c-1-10.9-6.5-19.1-15.7-24.8c-15.5-9.5-35.6-5.7-48,10.1
			c-5.4,6.8-7.6,14.7-8,23.3c-0.1,3.2-0.2,6.4-0.4,9.6c-0.1,2.7-0.6,5.3-1.3,7.7c-1.9,6.3-3.8,15.7-9.3,19.8c-1,0.8-2.1,1.4-3,2.3
			c-0.9,0.9-1.4,2.3-1,3.4c0.1,0.4,0.4,0.7,0.7,1c1.1,0.9,2.8,0.7,4-0.2c6-4.2,12.7-5.1,20-5c5.4,0.1,10.7,0.7,16,1.6
			c2.7,0.5,5.4,1.1,8.1,1.8c2.3,0.6,3.5,1.6,5.6,2.7c0.9,0.5,1.9,0.6,2.9,0.5c0.2,0,0.3,0,0.4-0.1c0.1-0.1,0.2-0.3,0.2-0.4
			c0.3-1.2-0.3-2.5-1.1-3.5s-1.9-1.6-3-2.3c-3.5-2.1-8-4-10.8-7.1c-1.4-1.6-2.8-3.3-4.1-5C112.2,439.1,108.2,433.6,107.8,433.1z"/>
	</g>
	<g>
		<path class="st1" d="M317.7,433.1c-8.3-11.1-8.3-25.4,0.2-36.2c6.1-7.8,17.1-11.2,26.4-8.2c10.7,3.4,16.4,14.9,12.3,24.8
			c-2.2,5.2-7.1,8.5-12.4,8.2c-4-0.2-7.4-3-8-6.5c-0.2-1.7,0.1-3.3,1.5-4.4c1.4-1.1,2.7-0.5,3.9,0.2c1.3,0.7,2.4,0.5,3.4-0.6
			c1.3-1.4,1.5-3.4,0.6-5.6c-1.8-4.2-6.8-5.9-11.6-4.2c-6.7,2.4-11,9.6-9.7,16.6c1.2,6.4,4.8,11.2,10.6,14.4
			c8.8,4.8,19.6,3,27.4-4.5c6.2-6.2,9.2-13.6,8.4-22.3c-1-10.9-6.5-19.1-15.7-24.8c-15.5-9.5-35.6-5.7-48,10.1
			c-5.4,6.8-7.6,14.7-8,23.3c-0.1,3.2-0.2,6.4-0.4,9.6c-0.1,2.7-0.6,5.3-1.3,7.7c-1.9,6.3-3.8,15.7-9.3,19.8c-1,0.8-2.1,1.4-3,2.3
			s-1.4,2.3-1,3.4c0.1,0.4,0.4,0.7,0.7,1c1.1,0.9,2.8,0.7,4-0.2c6-4.2,12.7-5.1,20-5c5.4,0.1,10.7,0.7,16,1.6
			c2.7,0.5,5.4,1.1,8.1,1.8c2.3,0.6,3.5,1.6,5.6,2.7c0.9,0.5,1.9,0.6,2.9,0.5c0.2,0,0.3,0,0.4-0.1c0.1-0.1,0.2-0.3,0.2-0.4
			c0.3-1.2-0.3-2.5-1.1-3.5s-1.9-1.6-3-2.3c-3.5-2.1-8-4-10.8-7.1c-1.4-1.6-2.8-3.3-4.1-5C322.1,439.1,318.1,433.6,317.7,433.1z"/>
	</g>
</g>
</svg>
