<svg id="Layer_1" data-name="Layer 1" xmlns="http://www.w3.org/2000/svg" xmlns:xlink="http://www.w3.org/1999/xlink" width="49.3867" height="36.8051" viewBox="0 0 49.3867 36.8051"><defs><clipPath id="clip-path" transform="translate(6.4 11.6833)"><rect y="-4.75" width="32" height="32" fill="none"/></clipPath></defs><title>water-3</title><g clip-path="url(#clip-path)"><path d="M14.4,24.2633c.7467-.32,1.3867-.5333,2.0267-.8533,2.4533-1.1733,4.9067-2.4533,7.4667-3.52a16.7608,16.7608,0,0,0,2.4533-.96,6.78,6.78,0,0,1,1.92-.64,3.9374,3.9374,0,0,1,2.9867,1.1733l.4267.4267c.2133.2133.4267.5333.64.7467a.8148.8148,0,0,1,.2133.5333c.1067.2133.2133.32.2133.5333.1067.1067.1067.4267.2133.5333s.2133.2133.32.2133a1.4725,1.4725,0,0,1,.4267.32,11.173,11.173,0,0,0,.8533-1.1733,43.2,43.2,0,0,0,2.24-3.7333l.64-1.28c-.64-.32-1.1733-.64-1.8133-.96-.2133.5333-.5333.96-.7467,1.4933a.4472.4472,0,0,1-.64.32c-.1067,0-.32-.1067-.4267-.1067-.1067-.1067-.1067-.1067-.32,0-.1067,0-.2133.1067-.32.1067a1.3137,1.3137,0,0,1-1.0667-.2133c-.32-.1067-.64-.4267-.96-.5333a9.38,9.38,0,0,1-1.0667-.64,4.3389,4.3389,0,0,0-2.3467,0,19.8525,19.8525,0,0,0-2.6667,1.0667,16.5822,16.5822,0,0,0-2.4533.8533q-3.2,1.28-6.4,2.88A11.8911,11.8911,0,0,1,10.88,22.13a7.6746,7.6746,0,0,1-3.0933-.32,12.743,12.743,0,0,1-2.7733-1.1733c-.2133-.1067-.32-.2133-.5333-.32a14.3967,14.3967,0,0,1-2.7733-1.6A12.906,12.906,0,0,1-.32,16.5833c-.4267-.4267-.7467-.96-1.1733-1.3867-1.0667-.4267-2.1333-.8533-3.0933-1.28a28.149,28.149,0,0,0,1.6,3.0933c.32.5333.64.96.96,1.4933A4.1764,4.1764,0,0,0-.96,19.3567C.64,20.4233,1.7067,22.13,3.3067,23.09c.7467.4267,1.3867.7467,2.1333,1.1733a5.9554,5.9554,0,0,0,2.4533.64,11.2419,11.2419,0,0,0,5.3333-.2133A8.1025,8.1025,0,0,0,14.4,24.2633Z" transform="translate(6.4 11.6833)" fill="#7469af"/><path d="M37.0133,14.5567a17.2576,17.2576,0,0,1-1.0667,1.92A9.6664,9.6664,0,0,1,37.6533,17.65c.5333-.96,1.0667-2.0267,1.6-3.0933a40.5148,40.5148,0,0,0,1.92-5.0133,18.5536,18.5536,0,0,0-1.92-1.1733c-.2133.7467-.4267,1.4933-.64,2.1333-.1067.32-.32.4267-.64.2133-.64-.32-1.1733-.7467-1.8133-1.0667a7.9558,7.9558,0,0,0-1.28-.7467c-.2133-.1067-.32-.2133-.5333-.1067-.2133,0-.5333.1067-.7467.1067H32.32c-.1067,0-.2133-.1067-.32-.1067h-.2133A.1045.1045,0,0,1,31.68,8.69c-.2133-.1067-.32-.2133-.5333-.32a1.5161,1.5161,0,0,0-.64-.2133A7.9906,7.9906,0,0,0,28.8,7.73c-.2133,0-.5333-.1067-.7467-.1067A2.3486,2.3486,0,0,0,27.2,7.73l-1.6.32a18.7732,18.7732,0,0,0-3.2,1.0667,50.3754,50.3754,0,0,1-7.68,2.6667,19.5909,19.5909,0,0,1-7.4667.32A19.3625,19.3625,0,0,1,3.2,10.93,10.3517,10.3517,0,0,1,.2133,9.2233a17.5206,17.5206,0,0,1-3.2-3.0933,7.1685,7.1685,0,0,1-1.3867-3.2A6.8866,6.8866,0,0,0-6.4,2.5033a37.8756,37.8756,0,0,0,.8533,5.44,27.5011,27.5011,0,0,0,1.0667,3.52c1.0667.4267,2.0267.96,3.0933,1.4933A13.6645,13.6645,0,0,1-2.56,10.8233v-.1067c-.1067-.2133-.32-.5333-.1067-.7467s.32.1067.5333.2133A43.2006,43.2006,0,0,0,1.6,12.4233a15.2187,15.2187,0,0,0,6.72,1.92,23.8166,23.8166,0,0,0,7.2533-.5333,76.3737,76.3737,0,0,0,7.8933-2.6667,18.2428,18.2428,0,0,1,3.2-.96,7.0621,7.0621,0,0,1,2.9867.1067,3.5059,3.5059,0,0,1,1.7067.7467,2.3268,2.3268,0,0,1,.5333.4267,21230252518349.254,21230252518349.254,0,0,0,.2133.2133H32.64a.3919.3919,0,0,1,.32.1067h.64a1.3529,1.3529,0,0,0,.64-.1067h.5333a1.3529,1.3529,0,0,1,.64.1067,1.4725,1.4725,0,0,1,.4267.32c.4267.32.8533.7467,1.28,1.0667A1.323,1.323,0,0,1,37.0133,14.5567Z" transform="translate(6.4 11.6833)" fill="#7469af"/><path d="M38.5067,4.4233a4.6394,4.6394,0,0,1,.7467.64A1.24,1.24,0,0,1,39.4667,6.13a3.1145,3.1145,0,0,1-.2133.96c.64.4267,1.28.7467,1.92,1.1733.2133-.5333.32-1.0667.5333-1.7067A51.3708,51.3708,0,0,0,42.88,1.01c0-.4267.1067-.8533.1067-1.1733C42.24-.59,41.6-1.0167,40.8533-1.4433A14.4555,14.4555,0,0,1,40.64.69c0,.32-.1067.5333-.1067.8533-.1067.64-.32.7467-.7467.32A10.1862,10.1862,0,0,0,38.08.5833a2.6736,2.6736,0,0,0-.7467-.4267,17.0132,17.0132,0,0,0-2.88-1.28c-.4267-.1067-.96-.32-1.3867-.4267a1.8152,1.8152,0,0,0-.7467-.1067H32l-.1067-.1067L31.7867-1.87a.1045.1045,0,0,1-.1067-.1067c-.2133-.1067-.4267-.1067-.5333-.2133a1.3529,1.3529,0,0,1-.64-.1067,9.76,9.76,0,0,0-1.8133.1067c-.5333.1067-1.1733.2133-1.7067.32a28.5993,28.5993,0,0,0-6.72,1.92,45.5566,45.5566,0,0,1-6.9333,2.56A14.1044,14.1044,0,0,1,7.36,2.5033,15.1775,15.1775,0,0,1,1.6-.27,12.38,12.38,0,0,1-2.3467-5.4967,7.4063,7.4063,0,0,1-2.88-6.8833a3.0121,3.0121,0,0,1-.2133-1.92c.1067-.5333.2133-.96.32-1.4933-.64-.4267-1.1733-.96-1.8133-1.3867a19.4592,19.4592,0,0,0-.7467,2.6667A28.7854,28.7854,0,0,0-6.08-4.6433,33.4228,33.4228,0,0,0-6.2933,1.01a13.717,13.717,0,0,1,2.0267.4267A3.6287,3.6287,0,0,1-4.3733.37C-4.48-.59-4.48-1.4433-4.5867-2.4033c0-.2133-.1067-.4267.1067-.5333.2133,0,.32.2133.4267.32A16.6221,16.6221,0,0,0-2.3467-.4833,19.7141,19.7141,0,0,0,1.6,2.93,15.6276,15.6276,0,0,0,4.5867,4.4233a12.6,12.6,0,0,0,3.3067.8533A18.0588,18.0588,0,0,0,15.04,4.4233c2.4533-.7467,4.8-1.8133,7.2533-2.56A20.6422,20.6422,0,0,1,28.48.5833,5.6134,5.6134,0,0,1,30.4,1.01a4.3236,4.3236,0,0,1,.96.5333c.1067.1067.32.2133.4267.32a.6413.6413,0,0,0,.4267.1067.9616.9616,0,0,0,.5333-.1067c.2133-.1067.32-.4267.5333-.4267s.5333.32.7467.4267c.5333.32.96.5333,1.4933.8533A27.1271,27.1271,0,0,1,38.5067,4.4233Z" transform="translate(6.4 11.6833)" fill="#7469af"/></g></svg>