<?xml version="1.0" encoding="utf-8"?>
<!-- Generator: Adobe Illustrator 21.1.0, SVG Export Plug-In . SVG Version: 6.00 Build 0)  -->
<svg version="1.1" id="Layer_1" xmlns="http://www.w3.org/2000/svg" xmlns:xlink="http://www.w3.org/1999/xlink" x="0px" y="0px"
	 width="96px" height="96px" viewBox="0 0 96 96" enable-background="new 0 0 96 96" xml:space="preserve">
<g>
	<path fill="#3A3B93" d="M23.3,21.6c0.1,3.2,2.4,6.1,5.4,6.7c1.7,0.4,3.1-0.1,4.4-1.2c0.4-0.3,0.8-0.7,1.2-1
		c0.3-0.2,0.6-0.3,0.9-0.1c0.4,0.2,0.3,0.5,0.3,0.9c-0.1,0.4,0,0.8,0.1,1.2c0.2,1,1,1.4,2.1,1.2c0.8-0.2,1.4-0.6,2-1.1
		c0.6-0.6,1.1-0.5,1.5,0.3c0.4,0.8,1.2,1.1,2,1.2c1.2,0.2,2.2-0.3,3-1.3c0.4-0.5,1-0.6,1.4,0c0.6,0.9,1.4,1.3,2.5,1.4
		c0.7,0,1.1,0.5,0.8,1.1c-0.1,0.3-0.4,0.5-0.8,0.5c-1.1,0-2.1-0.4-3-1.1c-0.2-0.1-0.2-0.2-0.4,0c-1.9,1.5-4.2,1.5-6.1,0
		c-0.3-0.2-0.4-0.2-0.7,0c-1.9,1.5-3.8,1.5-5.9,0.1c-0.2-0.2-0.4-0.2-0.6,0c-1.9,1.5-4.4,1.2-6,0.1c-0.2-0.1-0.3-0.2-0.5,0
		c-1.9,1.3-4.2,1.2-6-0.2c-0.2-0.1-0.3-0.2-0.5,0c-2,1.6-3.9,1.6-6,0.2c-0.3-0.2-0.4-0.2-0.7,0c-0.8,0.6-1.8,1-2.8,1
		c-0.1,0-0.1,0-0.2,0c-0.5,0-0.9-0.4-0.9-0.8c0-0.4,0.4-0.8,0.9-0.8c1.5,0.1,2.4-0.9,3.3-2c0.9-1.1,1.5-2.4,1.9-3.7
		c0.8-2.3,1.7-4.4,3.1-6.4c1.6-2.1,3.5-3.6,6-4.4c2.1-0.6,4.3-0.7,6.2,0.6c1.6,1.1,2.7,2.5,2.9,4.5c0.2,2.3-1.4,5-4.2,4.8
		c-1-0.1-1.9-0.3-2.7-1c-0.8-0.7-1.1-1.6-0.8-2.6c0.3-1,1-1.5,2-1.6c0.5-0.1,1,0.1,1.4,0.3c0.4,0.2,0.5,0.5,0.3,0.9
		c-0.1,0.3-0.5,0.5-0.8,0.4c-0.1,0-0.1,0-0.2-0.1c-0.6-0.2-1-0.1-1.3,0.3c-0.2,0.4-0.1,1,0.3,1.4c0.7,0.6,2.1,0.8,3,0.4
		c0.9-0.5,1.5-1.6,1.4-2.6c-0.1-1.5-1.4-2.8-3.1-3.2c-1.8-0.4-3.3,0.3-4.4,1.6C23.8,18.5,23.2,19.9,23.3,21.6z"/>
	<path fill="#3A3B93" d="M43.3,37.5c-1.1-0.1-2-0.4-2.8-1.1c-0.2-0.2-0.3-0.2-0.5,0c-1.8,1.5-4.3,1.5-6.1-0.1
		c-0.2-0.2-0.3-0.2-0.5,0c-1.9,1.5-3.8,1.6-5.9,0.2c-0.3-0.2-0.5-0.2-0.8,0c-0.8,0.6-1.8,1-2.8,1c-0.6,0-0.9-0.3-0.9-0.8
		c0-0.5,0.4-0.8,0.9-0.8c1,0,1.8-0.5,2.5-1.1c0.5-0.5,0.9-0.5,1.4,0c0.2,0.2,0.4,0.3,0.6,0.4c1.6,1.1,3,0.9,4.4-0.4
		c0.9-0.9,1-0.9,1.9,0c1.5,1.6,4,1.4,5-0.3c0.3-0.5,1-0.5,1.3,0c0.6,0.9,1.5,1.4,2.6,1.4c0.5,0,0.9,0.4,0.8,0.8
		C44.3,37.2,43.9,37.5,43.3,37.5z"/>
</g>
<g>
	<path fill="#3A3B93" d="M60,67.3c0.1,3.2,2.4,6.1,5.4,6.7c1.7,0.4,3.1-0.1,4.4-1.2c0.4-0.3,0.8-0.7,1.2-1c0.3-0.2,0.6-0.3,0.9-0.1
		c0.4,0.2,0.3,0.5,0.3,0.9c-0.1,0.4,0,0.8,0.1,1.2c0.2,1,1,1.4,2.1,1.2c0.8-0.2,1.4-0.6,2-1.1c0.6-0.6,1.1-0.5,1.5,0.3
		c0.4,0.8,1.2,1.1,2,1.2c1.2,0.2,2.2-0.3,3-1.3c0.4-0.5,1-0.6,1.4,0c0.6,0.9,1.4,1.3,2.5,1.4c0.7,0,1.1,0.5,0.8,1.1
		c-0.1,0.3-0.4,0.5-0.8,0.5c-1.1,0-2.1-0.4-3-1.1c-0.2-0.1-0.2-0.2-0.4,0c-1.9,1.5-4.2,1.5-6.1,0c-0.3-0.2-0.4-0.2-0.7,0
		c-1.9,1.5-3.8,1.5-5.9,0.1c-0.2-0.2-0.4-0.2-0.6,0c-1.9,1.5-4.4,1.2-6,0.1c-0.2-0.1-0.3-0.2-0.5,0c-1.9,1.3-4.2,1.2-6-0.2
		c-0.2-0.1-0.3-0.2-0.5,0c-2,1.6-3.9,1.6-6,0.2c-0.3-0.2-0.4-0.2-0.7,0c-0.8,0.6-1.8,1-2.8,1c-0.1,0-0.1,0-0.2,0
		c-0.5,0-0.9-0.4-0.9-0.8c0-0.4,0.4-0.8,0.9-0.8c1.5,0.1,2.4-0.9,3.3-2c0.9-1.1,1.5-2.4,1.9-3.7c0.8-2.3,1.7-4.4,3.1-6.4
		c1.6-2.1,3.5-3.6,6-4.4c2.1-0.6,4.3-0.7,6.2,0.6c1.6,1.1,2.7,2.5,2.9,4.5c0.2,2.3-1.4,5-4.2,4.8c-1-0.1-1.9-0.3-2.7-1
		c-0.8-0.7-1.1-1.6-0.8-2.6c0.3-1,1-1.5,2-1.6c0.5-0.1,1,0.1,1.4,0.3c0.4,0.2,0.5,0.5,0.3,0.9c-0.1,0.3-0.5,0.5-0.8,0.4
		c-0.1,0-0.1,0-0.2-0.1c-0.6-0.2-1-0.1-1.3,0.3c-0.2,0.4-0.1,1,0.3,1.4c0.7,0.6,2.1,0.8,3,0.4c0.9-0.5,1.5-1.6,1.4-2.6
		c-0.1-1.5-1.4-2.8-3.1-3.2c-1.8-0.4-3.3,0.3-4.4,1.6C60.6,64.3,60,65.7,60,67.3z"/>
	<path fill="#3A3B93" d="M80,83.2c-1.1-0.1-2-0.4-2.8-1.1c-0.2-0.2-0.3-0.2-0.5,0c-1.8,1.5-4.3,1.5-6.1-0.1c-0.2-0.2-0.3-0.2-0.5,0
		c-1.9,1.5-3.8,1.6-5.9,0.2c-0.3-0.2-0.5-0.2-0.8,0c-0.8,0.6-1.8,1-2.8,1c-0.6,0-0.9-0.3-0.9-0.8c0-0.5,0.4-0.8,0.9-0.8
		c1,0,1.8-0.5,2.5-1.1c0.5-0.5,0.9-0.5,1.4,0c0.2,0.2,0.4,0.3,0.6,0.4c1.6,1.1,3,0.9,4.4-0.4c0.9-0.9,1-0.9,1.9,0
		c1.5,1.6,4,1.4,5-0.3c0.3-0.5,1-0.5,1.3,0c0.6,0.9,1.5,1.4,2.6,1.4c0.5,0,0.9,0.4,0.8,0.8C81,82.9,80.6,83.2,80,83.2z"/>
</g>
</svg>
